<svg width="32" height="32" viewBox="0 0 32 32" fill="none" xmlns="http://www.w3.org/2000/svg">
<g clip-path="url(#clip0_4349_5034)">
<rect width="32" height="32" rx="6.4" fill="white"/>
<rect width="8" height="32" fill="#FF1D1D"/>
<path d="M16.7647 22H16.2353L16.3676 19.4054C16.3602 19.2688 16.3066 19.2329 16.1029 19.2432L13.9853 19.5676C13.9853 19.5676 14.3824 18.9189 14.3824 18.5946C14.3824 18.2703 12 16.1622 12 16.1622C12 16.1622 12.5294 16 12.6618 15.8378C12.7941 15.6757 12.1324 13.8919 12.1324 13.8919C12.1324 13.8919 13.4774 14.5405 13.5882 14.3784C13.6991 14.2162 13.8529 13.5676 13.8529 13.5676C13.8529 13.5676 14.9118 15.027 15.1765 15.027C15.4412 15.027 14.6471 11.4595 14.6471 11.4595C14.6471 11.4595 15.3088 12.1081 15.5735 12.1081C15.8382 12.1081 16.5 10 16.5 10C16.5 10 17.1618 12.1081 17.2941 12.1081C17.4265 12.1081 18.3529 11.4595 18.3529 11.4595C18.3529 11.4595 17.6912 14.8649 17.8235 15.027C17.9559 15.1892 19.1471 13.5676 19.1471 13.5676C19.1471 13.5676 19.2794 14.2162 19.4118 14.3784C19.5441 14.5405 20.8676 13.8919 20.8676 13.8919C20.8676 13.8919 20.2059 15.6757 20.3382 15.8378C20.4706 16 21 16.1622 21 16.1622C21 16.1622 18.6176 18.2703 18.6176 18.5946C18.6176 18.9189 18.8824 19.5676 18.8824 19.5676L16.8971 19.2432C16.7375 19.1872 16.6822 19.2297 16.6324 19.4054L16.7647 22Z" fill="#FF1D1D"/>
<rect x="25" y="-1" width="8" height="32" fill="#FF1D1D"/>
</g>
<defs>
<clipPath id="clip0_4349_5034">
<rect width="32" height="32" rx="6.4" fill="white"/>
</clipPath>
</defs>
</svg>
