<svg width="44" height="44" viewBox="0 0 44 44" fill="none" xmlns="http://www.w3.org/2000/svg">
<path d="M40.0983 1.6604H3.90484C2.66514 1.6604 1.66016 2.66538 1.66016 3.90509V40.0985C1.66016 41.3382 2.66514 42.3432 3.90484 42.3432H40.0983C41.338 42.3432 42.343 41.3382 42.343 40.0985V3.90509C42.343 2.66538 41.338 1.6604 40.0983 1.6604Z" fill="#4267B2"/>
<path d="M29.7292 42.3396V26.5856H35.0161L35.8067 20.4462H29.7292V16.5274C29.7292 14.7502 30.2242 13.5368 32.7714 13.5368H36.0233V8.03681C34.4486 7.873 32.8661 7.79497 31.283 7.80306C26.6011 7.80306 23.3767 10.6562 23.3767 15.919V20.4462H18.0898V26.5856H23.3767V42.3396H29.7292Z" fill="white"/>
</svg>
