<svg width="44" height="44" viewBox="0 0 44 44" fill="none" xmlns="http://www.w3.org/2000/svg">
<path d="M39.875 1.03141H4.125C3.31386 1.02315 2.53257 1.33702 1.95256 1.90413C1.37256 2.47124 1.04122 3.24529 1.03125 4.05641V39.9508C1.04303 40.7607 1.37516 41.533 1.95496 42.0986C2.53477 42.6643 3.31503 42.9772 4.125 42.9689H39.875C40.6862 42.9753 41.467 42.6604 42.0467 42.0929C42.6264 41.5255 42.9579 40.7516 42.9688 39.9405V4.0461C42.9543 3.23735 42.6212 2.467 42.0419 1.90249C41.4626 1.33798 40.6838 1.02494 39.875 1.03141Z" fill="#0076B2"/>
<path d="M7.245 16.7512H13.4703V36.7815H7.245V16.7512ZM10.3594 6.78247C11.0734 6.78247 11.7714 6.99424 12.365 7.391C12.9586 7.78775 13.4212 8.35167 13.6943 9.01139C13.9674 9.67112 14.0387 10.397 13.8991 11.0973C13.7596 11.7975 13.4155 12.4406 12.9104 12.9453C12.4052 13.4499 11.7618 13.7934 11.0614 13.9323C10.361 14.0712 9.63521 13.9992 8.97574 13.7255C8.31628 13.4518 7.75281 12.9886 7.35662 12.3946C6.96043 11.8006 6.74932 11.1024 6.75 10.3884C6.75091 9.43174 7.13159 8.51456 7.80838 7.83842C8.48517 7.16227 9.40271 6.78247 10.3594 6.78247ZM17.3753 16.7512H23.3428V19.5012H23.4253C24.2572 17.9268 26.2853 16.2665 29.3138 16.2665C35.6181 16.2528 36.7869 20.4018 36.7869 25.7815V36.7815H30.5616V27.0362C30.5616 24.7159 30.5203 21.7287 27.3269 21.7287C24.1334 21.7287 23.5903 24.2587 23.5903 26.885V36.7815H17.3753V16.7512Z" fill="white"/>
</svg>
