<svg width="32" height="32" viewBox="0 0 32 32" fill="none" xmlns="http://www.w3.org/2000/svg">
<path d="M5.33268 26.6667C4.59935 26.6667 3.97179 26.4058 3.45002 25.884C2.92824 25.3622 2.6669 24.7342 2.66602 24V8.00001C2.66602 7.26668 2.92735 6.63912 3.45002 6.11734C3.97268 5.59557 4.60024 5.33423 5.33268 5.33334H26.666C27.3993 5.33334 28.0273 5.59468 28.55 6.11734C29.0727 6.64001 29.3336 7.26757 29.3327 8.00001V24C29.3327 24.7333 29.0718 25.3613 28.55 25.884C28.0282 26.4067 27.4002 26.6676 26.666 26.6667H5.33268ZM15.9993 17.3333L5.33268 10.6667V24H26.666V10.6667L15.9993 17.3333ZM15.9993 14.6667L26.666 8.00001H5.33268L15.9993 14.6667ZM5.33268 10.6667V8.00001V24V10.6667Z" fill="#002C9C"/>
</svg>
