<svg width="32" height="32" viewBox="0 0 32 32" fill="none" xmlns="http://www.w3.org/2000/svg">
<path d="M15.9994 29.3333C14.1549 29.3333 12.4216 28.9831 10.7994 28.2827C9.17713 27.5822 7.76602 26.6324 6.56602 25.4333C5.36602 24.2342 4.41624 22.8231 3.71668 21.2C3.01713 19.5769 2.66691 17.8435 2.66602 16C2.66513 14.1564 3.01535 12.4231 3.71668 10.8C4.41802 9.17688 5.3678 7.76577 6.56602 6.56666C7.76424 5.36755 9.17535 4.41777 10.7994 3.71732C12.4234 3.01688 14.1567 2.66666 15.9994 2.66666C19.3771 2.66666 22.3051 3.75555 24.7834 5.93332C27.2616 8.1111 28.7336 10.8222 29.1994 14.0667C28.7549 13.8444 28.294 13.6724 27.8167 13.5507C27.3394 13.4289 26.8447 13.3564 26.3327 13.3333C25.9105 11.7111 25.1491 10.2667 24.0487 8.99999C22.9482 7.73332 21.5985 6.77777 19.9994 6.13332V6.66666C19.9994 7.39999 19.7385 8.02799 19.2167 8.55066C18.6949 9.07332 18.0669 9.33421 17.3327 9.33332H14.666V12C14.666 12.3778 14.538 12.6947 14.282 12.9507C14.026 13.2067 13.7096 13.3342 13.3327 13.3333H10.666V16H18.666C18.9105 16 19.1385 16.0613 19.35 16.184C19.5616 16.3067 19.7225 16.4787 19.8327 16.7C19.4549 17.3 19.166 17.9333 18.966 18.6C18.766 19.2667 18.666 19.9555 18.666 20.6667C18.666 22.0667 19.0273 23.3667 19.75 24.5667C20.4727 25.7667 21.2114 26.8889 21.966 27.9333C21.0549 28.3778 20.0993 28.7222 19.0993 28.9667C18.0993 29.2111 17.066 29.3333 15.9994 29.3333ZM14.666 26.6V24C13.9327 24 13.3051 23.7391 12.7834 23.2173C12.2616 22.6955 12.0002 22.0675 11.9994 21.3333V20L5.59935 13.6C5.53268 14 5.4718 14.4 5.41668 14.8C5.36157 15.2 5.33357 15.6 5.33268 16C5.33268 18.6889 6.21624 21.0444 7.98335 23.0667C9.75046 25.0889 11.978 26.2667 14.666 26.6ZM25.9994 29.3333C25.8438 29.3333 25.7105 29.2889 25.5994 29.2C25.4882 29.1111 25.4105 29 25.366 28.8667C25.1216 28.0889 24.7771 27.3667 24.3327 26.7C23.8882 26.0333 23.4105 25.3778 22.8993 24.7333C22.4327 24.1555 22.0549 23.5222 21.766 22.8333C21.4771 22.1444 21.3327 21.4222 21.3327 20.6667C21.3327 19.3778 21.7882 18.2778 22.6994 17.3667C23.6105 16.4555 24.7105 16 25.9994 16C27.2882 16 28.3882 16.4555 29.2994 17.3667C30.2105 18.2778 30.666 19.3778 30.666 20.6667C30.666 21.4222 30.5162 22.1391 30.2167 22.8173C29.9171 23.4955 29.5447 24.1342 29.0994 24.7333C28.5882 25.3778 28.1105 26.0333 27.666 26.7C27.2216 27.3667 26.8771 28.0889 26.6327 28.8667C26.5882 29 26.5105 29.1111 26.3994 29.2C26.2882 29.2889 26.1549 29.3333 25.9994 29.3333ZM25.9994 25.5667C26.2216 25.1889 26.466 24.8391 26.7327 24.5173C26.9994 24.1955 27.2549 23.8675 27.4994 23.5333C27.8105 23.1111 28.0829 22.6613 28.3167 22.184C28.5505 21.7067 28.6669 21.2009 28.666 20.6667C28.666 19.9333 28.4051 19.3058 27.8834 18.784C27.3616 18.2622 26.7336 18.0009 25.9994 18C25.2651 17.9991 24.6376 18.2604 24.1167 18.784C23.5958 19.3075 23.3345 19.9351 23.3327 20.6667C23.3327 21.2 23.4496 21.7058 23.6834 22.184C23.9171 22.6622 24.1891 23.112 24.4994 23.5333L25.2834 24.5173C25.5385 24.84 25.7771 25.1898 25.9994 25.5667ZM25.9994 22.3333C25.5327 22.3333 25.138 22.172 24.8154 21.8493C24.4927 21.5267 24.3318 21.1324 24.3327 20.6667C24.3336 20.2009 24.4949 19.8062 24.8167 19.4827C25.1385 19.1591 25.5327 18.9982 25.9994 19C26.466 19.0018 26.8607 19.1631 27.1834 19.484C27.506 19.8049 27.6669 20.1991 27.666 20.6667C27.6651 21.1342 27.5038 21.5289 27.182 21.8507C26.8602 22.1724 26.466 22.3333 25.9994 22.3333Z" fill="url(#paint0_linear_4736_5390)"/>
<defs>
<linearGradient id="paint0_linear_4736_5390" x1="2.66602" y1="16" x2="30.666" y2="16" gradientUnits="userSpaceOnUse">
<stop stop-color="#06007B"/>
<stop offset="1" stop-color="#E100B0"/>
</linearGradient>
</defs>
</svg>
