<svg width="32" height="32" viewBox="0 0 32 32" fill="none" xmlns="http://www.w3.org/2000/svg">
<path d="M14.6673 18.6667H17.334V14.6667H21.334V12H17.334V7.99999H14.6673V12H10.6673V14.6667H14.6673V18.6667ZM16.0007 29.3333C12.4229 26.2889 9.75087 23.4613 7.98465 20.8507C6.21843 18.24 5.33487 15.8231 5.33398 13.6C5.33398 10.2667 6.40643 7.6111 8.55132 5.63332C10.6962 3.65555 13.1793 2.66666 16.0007 2.66666C18.822 2.66666 21.3055 3.65555 23.4513 5.63332C25.5971 7.6111 26.6691 10.2667 26.6673 13.6C26.6673 15.8222 25.7842 18.2391 24.018 20.8507C22.2518 23.4622 19.5793 26.2898 16.0007 29.3333Z" fill="#002C9C"/>
</svg>
