<svg width="175" height="175" viewBox="0 0 175 175" fill="none" xmlns="http://www.w3.org/2000/svg">
<path d="M25.7184 156.028L11.9727 1.84851H163.02L149.26 156.004L87.4045 173.153L25.7184 156.028Z" fill="#1572B6"/>
<path d="M87.5 160.046L137.483 146.188L149.242 14.4539H87.5V160.046Z" fill="#33A9DC"/>
<path d="M87.5 70.3131H112.522L114.25 50.9497H87.5V32.0401H134.917L134.463 37.1137L129.814 89.2227H87.5V70.3131Z" fill="white"/>
<path d="M87.6107 119.422L87.5274 119.447L66.4686 113.761L65.1219 98.6795H46.1426L48.7908 128.371L87.5246 139.121L87.6107 139.096V119.422Z" fill="#EBEBEB"/>
<path d="M110.911 88.4229L108.633 113.746L87.543 119.439V139.113L126.308 128.369L126.593 125.174L129.882 88.4229H110.911Z" fill="white"/>
<path d="M87.5609 32.0401V50.9497H41.8859L41.5072 46.7005L40.6459 37.1137L40.1934 32.0401H87.5609ZM87.4967 70.3159V89.2255H66.7031L66.3244 84.9762L65.4617 75.3895L65.0105 70.3159H87.4967Z" fill="#EBEBEB"/>
</svg>
