<svg width="175" height="175" viewBox="0 0 175 175" fill="none" xmlns="http://www.w3.org/2000/svg">
<g clip-path="url(#clip0_4279_1243)">
<path d="M62.207 176.367C78.4766 176.367 91.6016 163.242 91.6016 146.973V117.578H62.207C45.9375 117.578 32.8125 130.703 32.8125 146.973C32.8125 163.242 45.9375 176.367 62.207 176.367Z" fill="#0ACF83"/>
<path d="M32.8125 88.1836C32.8125 71.9141 45.9375 58.7891 62.207 58.7891H91.6016V117.578H62.207C45.9375 117.578 32.8125 104.453 32.8125 88.1836Z" fill="#A259FF"/>
<path d="M32.8125 29.3945C32.8125 13.125 45.9375 0 62.207 0H91.6016V58.7891H62.207C45.9375 58.7891 32.8125 45.6641 32.8125 29.3945Z" fill="#F24E1E"/>
<path d="M91.6016 0H120.996C137.266 0 150.391 13.125 150.391 29.3945C150.391 45.6641 137.266 58.7891 120.996 58.7891H91.6016V0Z" fill="#FF7262"/>
<path d="M150.391 88.1836C150.391 104.453 137.266 117.578 120.996 117.578C104.727 117.578 91.6016 104.453 91.6016 88.1836C91.6016 71.9141 104.727 58.7891 120.996 58.7891C137.266 58.7891 150.391 71.9141 150.391 88.1836Z" fill="#1ABCFE"/>
</g>
<defs>
<clipPath id="clip0_4279_1243">
<rect width="175" height="175" fill="white"/>
</clipPath>
</defs>
</svg>
