<svg width="175" height="175" viewBox="0 0 175 175" fill="none" xmlns="http://www.w3.org/2000/svg">
<path d="M32.2727 148.755L19.9844 10.9375H155.008L142.703 148.734L87.4141 164.062L32.2727 148.755Z" fill="#E44F26"/>
<path d="M87.5 152.348L132.18 139.962L142.691 22.2086H87.5V152.348Z" fill="#F1662A"/>
<path d="M87.5 73.3196H65.1328L63.5906 56.011H87.5V39.1071H45.1172L45.5219 43.6461L49.6727 90.2235H87.5V73.3196ZM87.5 117.217L87.4234 117.239L68.6 112.159L67.3969 98.6782H50.4273L52.7953 125.213L87.4234 134.827L87.5 134.805V117.217Z" fill="#EBEBEB"/>
<path d="M87.4355 73.3196V90.2235H108.25L106.292 112.148L87.4355 117.234V134.821L122.091 125.213L122.343 122.358L126.313 77.8586L126.729 73.3196H87.4355ZM87.4355 39.1071V56.011H128.265L128.604 52.2157L129.375 43.6461L129.78 39.1071H87.4355Z" fill="white"/>
</svg>
