<svg width="166" height="166" viewBox="0 0 166 166" fill="none" xmlns="http://www.w3.org/2000/svg">
<g clip-path="url(#clip0_4278_1349)">
<path d="M0 0H166V166H0V0Z" fill="#F7DF1E"/>
<path d="M43.6491 138.721L56.352 131.034C58.8031 135.379 61.0324 139.055 66.3801 139.055C71.506 139.055 74.7384 137.05 74.7384 129.251V76.2101H90.3379V129.471C90.3379 145.629 80.8668 152.983 67.0486 152.983C54.5694 152.983 47.3257 146.52 43.6484 138.72M98.811 137.05L111.513 129.696C114.857 135.156 119.202 139.168 126.89 139.168C133.355 139.168 137.476 135.936 137.476 131.478C137.476 126.13 133.242 124.235 126.11 121.116L122.211 119.443C110.956 114.653 103.491 108.636 103.491 95.933C103.491 84.2326 112.405 75.3179 126.334 75.3179C136.251 75.3179 143.383 78.7727 148.508 87.7983L136.361 95.599C133.687 90.8077 130.791 88.9136 126.333 88.9136C121.764 88.9136 118.867 91.8109 118.867 95.599C118.867 100.279 121.764 102.174 128.45 105.071L132.349 106.742C145.61 112.426 153.076 118.22 153.076 131.256C153.076 145.297 142.044 152.985 127.224 152.985C112.739 152.985 103.379 146.077 98.8104 137.05" fill="black"/>
</g>
<defs>
<clipPath id="clip0_4278_1349">
<rect width="166" height="166" rx="16" fill="white"/>
</clipPath>
</defs>
</svg>
