<svg width="175" height="175" viewBox="0 0 175 175" fill="none" xmlns="http://www.w3.org/2000/svg">
<g clip-path="url(#clip0_4278_1389)">
<path d="M133.984 0H41.0156C18.3633 0 0 18.3633 0 41.0156V133.984C0 156.637 18.3633 175 41.0156 175H133.984C156.637 175 175 156.637 175 133.984V41.0156C175 18.3633 156.637 0 133.984 0Z" fill="#F4F2ED"/>
<path d="M83.0225 19.1775C82.7285 19.2042 81.7927 19.2978 80.9505 19.3641C61.5323 21.1148 43.3433 31.5929 31.8227 47.697C25.4085 56.6514 21.3049 66.8083 19.7552 77.5674C19.2076 81.323 19.1406 82.4325 19.1406 87.5239C19.1406 92.616 19.2076 93.7255 19.7559 97.4804C23.4705 123.153 41.7402 144.724 66.5178 152.716C70.955 154.146 75.6321 155.122 80.9512 155.71C83.0231 155.937 91.9769 155.937 94.0488 155.71C103.23 154.694 111.008 152.422 118.679 148.506C119.855 147.905 120.083 147.744 119.922 147.611C119.816 147.53 114.803 140.808 108.79 132.683L97.8578 117.915L84.1586 97.6411C76.6213 86.4951 70.4204 77.38 70.3664 77.38C70.3131 77.3671 70.2598 86.3748 70.2331 97.3738C70.1928 116.632 70.1798 117.407 69.9392 117.861C69.5919 118.516 69.3246 118.783 68.7627 119.078C68.3355 119.291 67.9608 119.332 65.9429 119.332H63.631L63.0157 118.944C62.6348 118.705 62.3254 118.368 62.1202 117.968L61.8399 117.367L61.8673 90.5714L61.9069 63.7622L62.3212 63.2406C62.5352 62.9603 62.9897 62.5994 63.3104 62.4258C63.8579 62.1585 64.0719 62.1318 66.3838 62.1318C69.1106 62.1318 69.5646 62.2384 70.2734 63.0136C70.4737 63.2276 77.8907 74.4003 86.7651 87.8582C95.7494 101.48 104.739 115.098 113.734 128.713L124.56 145.112L125.108 144.751C129.959 141.597 135.091 137.106 139.154 132.428C147.8 122.499 153.374 110.391 155.245 97.4804C155.792 93.7255 155.859 92.616 155.859 87.5239C155.859 82.4318 155.792 81.323 155.245 77.5674C151.529 51.8943 133.26 30.3242 108.482 22.3323C104.112 20.9152 99.4615 19.9397 94.2491 19.3518C92.966 19.2178 84.1319 19.0716 83.0231 19.1782M111.008 60.5281C111.649 60.8487 112.171 61.4632 112.358 62.1045C112.465 62.4524 112.491 69.8831 112.465 86.6284L112.425 110.658L108.188 104.163L103.938 97.6677V80.2006C103.938 68.9076 103.992 62.5591 104.072 62.2514C104.286 61.5036 104.753 60.9157 105.395 60.5677C105.943 60.2875 106.144 60.2601 108.242 60.2601C110.22 60.2601 110.567 60.2875 111.008 60.5281Z" fill="black"/>
</g>
<defs>
<clipPath id="clip0_4278_1389">
<rect width="175" height="175" fill="white"/>
</clipPath>
</defs>
</svg>
