<svg width="175" height="175" viewBox="0 0 175 175" fill="none" xmlns="http://www.w3.org/2000/svg">
<g clip-path="url(#clip0_4278_1338)">
<path d="M133.984 0H41.0156C18.3633 0 0 18.3633 0 41.0156V133.984C0 156.637 18.3633 175 41.0156 175H133.984C156.637 175 175 156.637 175 133.984V41.0156C175 18.3633 156.637 0 133.984 0Z" fill="#242938"/>
<path d="M87.4992 100.455C94.543 100.455 100.252 94.7448 100.252 87.7018C100.252 80.6587 94.543 74.9486 87.4992 74.9486C80.4555 74.9486 74.7461 80.6587 74.7461 87.7018C74.7461 94.7448 80.4562 100.455 87.4992 100.455Z" fill="#00D8FF"/>
<path d="M87.5014 61.7714C104.624 61.7714 120.531 64.2283 132.524 68.3579C146.975 73.3324 155.859 80.8731 155.859 87.7015C155.859 94.817 146.444 102.828 130.925 107.969C119.193 111.856 103.755 113.885 87.5014 113.885C70.8367 113.885 55.056 111.981 43.1915 107.926C28.1812 102.796 19.1406 94.6817 19.1406 87.7015C19.1406 80.9285 27.624 73.4458 41.8715 68.4788C53.9096 64.2816 70.2085 61.7714 87.4986 61.7714H87.5014Z" stroke="#00D8FF" stroke-width="6.0915"/>
<path d="M64.9319 74.8111C73.4864 59.9785 83.5605 47.4264 93.1295 39.1002C104.658 29.0671 115.629 25.1378 121.544 28.5482C127.708 32.1029 129.944 44.2627 126.645 60.2738C124.154 72.3782 118.197 86.7651 110.076 100.846C101.751 115.282 92.2182 128.001 82.7799 136.25C70.8368 146.69 59.2902 150.469 53.2438 146.982C47.3765 143.6 45.133 132.512 47.948 117.688C50.3263 105.163 56.2947 89.7893 64.9292 74.8111H64.9319Z" stroke="#00D8FF" stroke-width="6.0915"/>
<path d="M64.9508 100.883C56.3723 86.0672 50.5317 71.0678 48.094 58.6196C45.1593 43.6209 47.2341 32.1536 53.1437 28.7329C59.3022 25.1672 70.9527 29.303 83.1767 40.1571C92.4189 48.3629 101.909 60.7066 110.053 74.7736C118.402 89.1961 124.66 103.808 127.094 116.104C130.174 131.666 127.681 143.555 121.64 147.052C115.779 150.445 105.053 146.853 93.6159 137.011C83.9526 128.695 73.6139 115.847 64.9508 100.883Z" stroke="#00D8FF" stroke-width="6.0915"/>
</g>
<defs>
<clipPath id="clip0_4278_1338">
<rect width="175" height="175" fill="white"/>
</clipPath>
</defs>
</svg>
