<svg width="195" height="195" viewBox="0 0 195 195" fill="none" xmlns="http://www.w3.org/2000/svg">
<path d="M172.222 14H21.7783C17.4825 14 14 17.4825 14 21.7783V172.222C14 176.518 17.4825 180 21.7783 180H172.222C176.518 180 180 176.518 180 172.222V21.7783C180 17.4825 176.518 14 172.222 14Z" fill="#3178C6"/>
<path fill-rule="evenodd" clip-rule="evenodd" d="M111.177 144.781V163.477C114.575 165.153 118.195 166.333 121.927 166.981C126.24 167.776 130.618 168.167 135.004 168.151C139.279 168.17 143.543 167.739 147.728 166.865C151.485 166.107 155.069 164.661 158.3 162.599C161.301 160.663 163.774 158.012 165.497 154.885C168.584 148.409 168.991 140.977 166.631 134.203C165.635 131.669 164.151 129.356 162.261 127.396C160.236 125.309 157.934 123.511 155.418 122.052C152.524 120.356 149.517 118.862 146.418 117.579C143.98 116.567 141.786 115.584 139.836 114.629C138.104 113.8 136.447 112.824 134.882 111.711C133.657 110.85 132.593 109.782 131.738 108.554C131.003 107.437 130.619 106.125 130.635 104.788C130.619 103.557 130.962 102.348 131.622 101.308C132.339 100.221 133.296 99.3121 134.419 98.6516C135.79 97.8396 137.284 97.2571 138.843 96.9271C140.755 96.5017 142.71 96.2972 144.669 96.3177C146.316 96.3245 147.961 96.4425 149.592 96.6711C151.355 96.9034 153.098 97.2639 154.809 97.7497C156.55 98.2324 158.252 98.8435 159.903 99.5779C161.504 100.293 163.036 101.154 164.479 102.149V84.703C161.476 83.5663 158.361 82.7493 155.186 82.2655C151.353 81.7071 147.482 81.4443 143.608 81.4794C139.374 81.4585 135.152 81.9392 131.031 82.9115C127.304 83.7577 123.762 85.2709 120.574 87.3782C117.611 89.3533 115.164 92.009 113.438 95.1233C111.61 98.5825 110.705 102.455 110.812 106.366C110.683 111.538 112.386 116.588 115.62 120.626C119.594 125.099 124.605 128.529 130.214 130.613C132.774 131.67 135.16 132.703 137.374 133.715C139.372 134.605 141.292 135.659 143.115 136.866C144.582 137.825 145.873 139.031 146.929 140.43C147.856 141.702 148.347 143.239 148.331 144.812C148.339 145.991 148.037 147.151 147.454 148.176C146.799 149.272 145.89 150.194 144.803 150.863C143.435 151.694 141.941 152.295 140.379 152.642C138.343 153.096 136.261 153.311 134.175 153.282C130.082 153.271 126.023 152.55 122.177 151.149C118.161 149.697 114.437 147.54 111.177 144.781ZM79.7702 98.2372H104.145V82.8383H36.1816V98.2372H60.447V166.816H79.7702V98.2372Z" fill="white"/>
</svg>
