<svg width="1370" height="2098" viewBox="0 0 1370 2098" fill="none" xmlns="http://www.w3.org/2000/svg">
<g opacity="0.3">
<path opacity="0.91" d="M700.847 42.1528C711.667 40.1468 722.538 38.6222 733.459 37.6192C744.38 36.7366 755.34 36.4156 766.363 36.6564C777.386 37.0977 788.46 38.1609 799.56 39.8459C810.684 41.7716 821.822 44.3192 832.998 47.5088C844.148 50.939 855.311 54.9911 866.448 59.6651C877.561 64.5597 888.622 70.036 899.594 76.0741C910.477 82.2926 921.246 89.0328 931.824 96.2543C942.263 103.596 952.447 111.38 962.351 119.564C972.026 127.789 981.333 136.374 990.233 145.261C998.828 154.127 1006.94 163.254 1014.53 172.622C1021.79 181.89 1028.5 191.358 1034.66 200.987C1040.49 210.475 1045.82 220.104 1050.64 229.833C1057.44 244.236 1069.65 273.283 1075.66 287.887C1080.08 297.455 1084.79 307.144 1089.9 316.933C1095.75 326.542 1102.21 336.271 1109.39 346.141C1117.48 355.87 1126.36 365.739 1136.01 375.789C1146.5 385.719 1157.61 395.829 1169.23 406.16C1181.25 416.39 1193.37 426.862 1205.37 437.554C1217.06 448.205 1228.1 459.098 1238.21 470.271C1247.27 481.425 1254.97 492.839 1261.09 504.534C1265.75 516.228 1268.68 528.224 1269.94 540.501C1269.92 552.798 1268.52 565.375 1266.03 578.234C1263.09 591.132 1259.78 604.312 1256.52 617.752C1254.02 631.232 1252.38 644.993 1251.95 658.995C1253.29 673.037 1256.29 687.34 1261.06 701.843C1267.72 716.406 1275.92 731.19 1285.35 746.175C1295.77 761.18 1306.52 776.405 1317.06 791.791C1327 807.197 1335.61 822.784 1342.39 838.531C1347.17 854.298 1349.47 870.186 1349.15 886.233C1346.57 902.281 1341.65 918.45 1334.77 934.738C1326.76 951.027 1317.93 967.416 1308.92 983.925C1300.74 1000.41 1293.74 1016.82 1288.44 1033.11C1285.35 1049.42 1284.41 1065.61 1285.58 1081.72C1288.94 1097.81 1293.86 1113.81 1299.88 1129.72C1306.76 1145.65 1313.62 1161.48 1319.85 1177.24C1325.22 1193.03 1328.97 1208.74 1330.74 1224.38C1330.58 1240.11 1328.1 1255.76 1323.34 1271.38C1316.71 1287.09 1308.24 1302.78 1298.3 1318.44C1287.48 1334.23 1276.05 1350.02 1264.5 1365.85C1253.36 1381.77 1242.9 1397.76 1233.43 1413.81C1225.32 1429.98 1218.58 1446.23 1213.25 1462.51C1209.5 1478.98 1207.01 1495.51 1205.6 1512.1C1205.28 1528.83 1205.53 1545.62 1206.05 1562.43C1206.84 1579.36 1207.33 1596.31 1207.22 1613.24C1206.61 1630.24 1205 1647.17 1202.27 1663.96C1198.55 1680.75 1193.58 1697.36 1187.38 1713.72C1180.14 1729.93 1171.78 1745.84 1162.42 1761.35C1152.31 1776.59 1141.47 1791.32 1130.09 1805.5C1118.35 1819.26 1106.35 1832.34 1094.26 1844.68C1082.21 1856.47 1070.28 1867.44 1058.58 1877.49C1047.19 1886.9 1036.16 1895.37 1025.49 1902.81C1015.25 1909.59 1005.41 1915.33 995.941 1920.02C986.914 1924.09 978.193 1927.16 969.725 1929.27C961.613 1930.85 953.68 1931.56 945.848 1931.47C938.258 1931.09 930.68 1930.07 923.064 1928.51C915.588 1926.96 907.998 1925.08 900.255 1922.97C892.563 1921.2 884.68 1919.46 876.569 1917.85C868.457 1916.91 860.104 1916.35 851.509 1916.21C842.877 1917.03 833.989 1918.46 824.861 1920.54C815.694 1923.73 806.273 1927.66 796.623 1932.32C786.947 1938.07 777.043 1944.51 766.923 1951.55C756.789 1959.52 746.453 1967.92 735.926 1976.65C725.386 1985.92 714.68 1995.25 703.797 2004.43C692.914 2013.7 681.992 2022.41 671.058 2030.39C660.137 2037.97 649.203 2044.51 638.269 2049.91C627.335 2054.5 616.413 2057.75 605.517 2059.6C594.621 2060.4 583.763 2059.68 572.931 2057.47C562.137 2054.16 551.381 2049.37 540.688 2043.17C530.034 2035.97 519.455 2027.48 508.966 2017.79C498.528 2007.36 488.204 1995.95 478.02 1983.67C467.913 1970.95 457.945 1957.59 448.155 1943.77C438.467 1929.79 428.969 1915.57 419.675 1901.18C410.496 1886.98 401.545 1872.82 392.823 1858.78C384.216 1845.16 375.837 1831.8 367.7 1818.74C359.665 1806.26 351.846 1794.16 344.255 1782.45C336.703 1771.38 329.342 1760.72 322.158 1750.43C314.962 1740.77 307.906 1731.46 300.964 1722.45C293.946 1714.01 287.016 1705.78 280.151 1697.72C273.171 1690.11 266.254 1682.59 259.376 1675.11C252.383 1667.93 245.441 1660.69 238.576 1653.3C231.621 1646.12 224.781 1638.74 218.068 1631.08C211.329 1623.52 204.782 1615.63 198.425 1607.37C192.118 1599.1 186.067 1590.44 180.256 1581.35C174.522 1572.18 169.055 1562.55 163.868 1552.46C158.731 1542.27 153.836 1531.6 149.17 1520.45C144.504 1509.19 140.042 1497.46 135.744 1485.28C131.409 1472.97 127.226 1460.21 123.195 1447.05C119.114 1433.77 115.198 1420.09 111.46 1406.05C107.722 1391.88 104.213 1377.38 100.971 1362.56C97.7926 1347.65 94.9319 1332.45 92.4018 1316.96C89.9734 1301.43 87.901 1285.63 86.1592 1269.6C84.481 1253.53 83.1078 1237.24 82.0017 1220.75C80.8574 1204.24 79.9039 1187.55 79.1156 1170.7C78.2129 1153.83 77.4246 1136.82 76.7508 1119.65C75.9371 1102.48 75.2632 1085.19 74.7801 1067.76C74.2461 1050.34 73.9664 1032.99 74.0045 1015.74C74.119 998.489 74.6021 981.337 75.4794 964.267C76.4965 947.196 77.9078 930.225 79.7005 913.354C81.5821 896.484 83.7944 879.694 86.2864 863.004C88.791 846.294 91.4991 829.685 94.3852 813.155C97.2078 796.626 100.157 780.177 103.26 763.808C106.273 747.419 109.439 731.13 112.783 714.922C116.075 698.693 119.597 682.545 123.348 666.517C127.124 650.449 131.167 634.462 135.49 618.594C139.864 602.707 144.517 586.94 149.412 571.293C154.358 555.646 159.52 540.12 164.885 524.754C170.212 509.388 175.705 494.203 181.337 479.198C186.893 464.233 192.551 449.469 198.323 434.946C204.019 420.483 209.829 406.26 215.767 392.339C221.653 378.517 227.705 364.997 233.935 351.797C240.19 338.759 246.662 326.061 253.375 313.744C260.19 301.608 267.259 289.873 274.607 278.579C282.096 267.466 289.852 256.814 297.887 246.623C306.049 236.634 314.466 227.125 323.124 218.118C331.872 209.292 340.822 200.947 349.951 193.104C359.131 185.421 368.437 178.219 377.859 171.479C387.254 164.879 396.752 158.721 406.3 152.984C415.797 147.327 425.333 142.071 434.919 137.177C444.404 132.282 453.927 127.728 463.475 123.476C472.922 119.163 482.419 115.111 491.942 111.299C501.376 107.347 510.873 103.616 520.409 100.066C529.881 96.3145 539.429 92.7238 549.054 89.2936C558.615 85.6226 568.278 82.1121 578.042 78.722C587.768 75.1112 597.609 71.6408 607.577 68.3309C617.519 64.8205 627.589 61.4905 637.811 58.3812C648.008 55.1115 658.357 52.1025 668.859 49.3944C679.348 46.6061 690.002 44.1788 700.835 42.1528" stroke="url(#paint0_linear_384_4430)" stroke-opacity="0.4" stroke-width="2.5" stroke-linecap="round" stroke-dasharray="19 2"/>
<path opacity="0.36" d="M743.863 79.9008C754.5 78.8194 765.132 78.2198 775.757 78.122C786.392 78.1255 797.006 78.6696 807.587 79.7733C818.174 81.0585 828.725 82.9432 839.242 85.4274C849.724 88.1496 860.158 91.4702 870.507 95.3857C880.82 99.5592 891.021 104.345 901.1 109.682C911.093 115.273 920.925 121.411 930.547 128.072C940.06 134.924 949.325 142.276 958.294 150.062C967.104 157.994 975.581 166.317 983.687 175.028C991.575 183.779 999.057 192.853 1006.11 202.209C1012.92 211.543 1019.28 221.117 1025.18 230.909C1030.87 240.6 1036.13 250.453 1040.98 260.429C1045.73 270.315 1050.16 280.312 1054.32 290.404C1058.55 300.361 1062.67 310.41 1066.77 320.577C1071.17 330.571 1075.75 340.682 1080.59 350.918C1086 361.006 1091.85 371.236 1098.24 381.615C1105.37 391.883 1113.15 402.311 1121.57 412.92C1130.73 423.436 1140.49 434.13 1150.78 445.033C1161.57 455.822 1172.65 466.818 1183.84 477.985C1195.04 489.053 1205.94 500.294 1216.34 511.69C1226.12 522.948 1234.96 534.318 1242.64 545.843C1249.17 557.18 1254.27 568.646 1257.84 580.21C1260.11 591.634 1260.9 603.182 1260.3 614.841C1258.8 626.417 1256.32 638.183 1253.18 650.129C1250.01 662.092 1246.83 674.295 1244.03 686.815C1242.23 699.449 1241.47 712.419 1241.98 725.749C1244.2 739.278 1247.94 753.17 1253.26 767.469C1260.17 781.916 1268.29 796.697 1277.3 811.781C1286.96 826.946 1296.67 842.316 1305.91 857.844C1314.39 873.321 1321.46 888.848 1326.71 904.387C1330.06 919.749 1331.1 935.057 1329.73 950.302C1326.32 965.378 1320.85 980.403 1313.61 995.404C1305.4 1010.34 1296.46 1025.32 1287.36 1040.43C1279.03 1055.61 1271.75 1070.83 1265.95 1086.14C1262.17 1101.63 1260.3 1117.23 1260.37 1132.97C1262.47 1148.9 1266.07 1164.91 1270.8 1180.98C1276.46 1197.14 1282.27 1213.29 1287.72 1229.35C1292.61 1245.4 1296.2 1261.29 1298.13 1277C1298.42 1292.62 1296.65 1308.03 1292.77 1323.22C1287.1 1338.33 1279.56 1353.28 1270.46 1368.09C1260.25 1382.9 1249.17 1397.64 1237.6 1412.38C1226.04 1427.22 1214.76 1442.13 1204.08 1457.13C1194.38 1472.32 1185.73 1487.68 1178.28 1503.18C1172.22 1518.94 1167.4 1534.82 1163.71 1550.84C1161.22 1567.04 1159.54 1583.35 1158.45 1599.66C1157.96 1616.09 1157.56 1632.47 1157.01 1648.76C1156.35 1665.02 1155.12 1681.08 1153.11 1696.89C1150.48 1712.52 1146.83 1727.81 1142.13 1742.71C1136.56 1757.3 1129.9 1771.41 1122.24 1784.97C1113.78 1798.14 1104.43 1810.68 1094.36 1822.52C1083.73 1833.92 1072.6 1844.56 1061.11 1854.4C1049.41 1863.7 1037.56 1872.17 1025.69 1879.76C1013.9 1886.77 1002.26 1892.88 990.823 1898.06C979.659 1902.69 968.783 1906.41 958.222 1909.22C948.011 1911.53 938.111 1913 928.522 1913.64C919.278 1913.92 910.289 1913.49 901.53 1912.39C893.03 1911.16 884.689 1909.42 876.453 1907.27C868.404 1905.22 860.375 1902.94 852.34 1900.53C844.416 1898.53 836.402 1896.58 828.292 1894.8C820.207 1893.71 811.969 1892.94 803.551 1892.6C795.125 1893.14 786.499 1894.25 777.648 1895.94C768.772 1898.65 759.656 1901.99 750.325 1905.96C740.945 1910.9 731.327 1916.41 721.511 1922.45C711.64 1929.29 701.565 1936.5 691.302 1943.94C681.008 1951.87 670.536 1959.8 659.891 1967.57C649.256 1975.42 638.591 1982.73 627.938 1989.36C617.299 1995.62 606.682 2000.94 596.092 2005.2C585.553 2008.79 575.061 2011.11 564.655 2012.15C554.297 2012.25 544.028 2010.98 533.862 2008.32C523.771 2004.67 513.795 1999.65 503.958 1993.29C494.206 1986.01 484.59 1977.5 475.142 1967.88C465.799 1957.51 456.619 1946.17 447.623 1934C438.723 1921.32 430.024 1908.01 421.536 1894.16C413.145 1880.12 404.958 1865.73 396.995 1851.13C389.119 1836.61 381.447 1822.05 374.004 1807.51C366.613 1793.3 359.433 1779.23 352.435 1765.4C345.458 1752.03 338.66 1738.96 332.004 1726.23C325.327 1714.03 318.764 1702.19 312.316 1690.68C305.77 1679.74 299.314 1669.14 292.898 1658.81C286.361 1649.02 279.865 1639.48 273.401 1630.12C266.791 1621.22 260.204 1612.43 253.663 1603.75C246.996 1595.39 240.392 1587.04 233.878 1578.66C227.279 1570.51 220.812 1562.25 214.49 1553.85C208.176 1545.57 202.061 1537.08 196.185 1528.35C190.356 1519.7 184.794 1510.74 179.498 1501.45C174.291 1492.18 169.391 1482.54 164.746 1472.54C160.167 1462.49 155.844 1452.06 151.778 1441.24C147.726 1430.35 143.882 1419.04 140.243 1407.35C136.569 1395.56 133.064 1383.35 129.75 1370.79C126.389 1358.14 123.207 1345.1 120.217 1331.72C117.218 1318.24 114.447 1304.44 111.917 1290.34C109.427 1276.16 107.229 1261.69 105.321 1246.97C103.478 1232.19 101.938 1217.15 100.712 1201.89C99.5374 1186.61 98.6264 1171.09 97.9776 1155.38C97.3175 1139.62 96.868 1123.68 96.6164 1107.56C96.2759 1091.44 96.1205 1075.13 96.1108 1058.67C96.0256 1042.18 96.1242 1025.55 96.419 1008.78C96.6885 992.007 97.2231 975.297 98.0346 958.674C98.8842 942.054 100.062 925.526 101.579 909.088C103.173 892.658 105.108 876.32 107.369 860.093C109.681 843.87 112.284 827.715 115.137 811.683C118.003 795.633 121.069 779.681 124.323 763.827C127.539 747.95 130.918 732.148 134.458 716.462C137.948 700.75 141.613 685.136 145.465 669.639C149.305 654.121 153.37 638.704 157.66 623.409C161.975 608.116 166.553 592.948 171.38 577.924C176.271 562.905 181.399 548.029 186.776 533.297C192.164 518.606 197.762 504.075 203.533 489.722C209.275 475.425 215.164 461.303 221.173 447.393C227.089 433.555 233.112 419.948 239.215 406.59C245.212 393.322 251.301 380.324 257.468 367.634C263.566 355.059 269.781 342.796 276.134 330.908C282.457 319.157 288.956 307.804 295.643 296.851C302.389 286.064 309.359 275.72 316.555 265.819C323.859 256.109 331.426 246.865 339.241 238.107C347.177 229.54 355.375 221.46 363.81 213.864C372.352 206.46 381.118 199.538 390.082 193.116C399.13 186.823 408.34 180.988 417.699 175.588C427.091 170.312 436.608 165.449 446.199 160.995C455.802 156.562 465.454 152.516 475.171 148.797C484.85 145.054 494.568 141.617 504.326 138.484C514.013 135.225 523.741 132.21 533.487 129.418C543.175 126.46 552.893 123.706 562.644 121.116C572.339 118.319 582.091 115.669 591.877 113.162C601.633 110.431 611.436 107.805 621.322 105.348C631.166 102.646 641.093 100.092 651.104 97.7062C661.11 95.0993 671.197 92.7009 681.391 90.5133C691.578 88.1844 701.87 86.1065 712.278 84.3406C722.689 82.4747 733.201 80.9798 743.851 79.8996" stroke="url(#paint1_linear_384_4430)" stroke-opacity="0.4" stroke-width="2.5" stroke-linecap="round" stroke-dasharray="13 16"/>
<path opacity="0.88" d="M780.535 121.441C790.881 121.25 801.155 121.509 811.356 122.22C821.536 123.048 831.64 124.386 841.627 126.249C851.601 128.291 861.445 130.874 871.169 134.02C880.838 137.399 890.364 141.317 899.718 145.828C909.005 150.549 918.082 155.838 926.94 161.671C935.693 167.707 944.202 174.263 952.431 181.312C960.519 188.536 968.304 196.21 975.75 204.304C983.059 212.535 989.993 221.141 996.557 230.081C1002.96 239.072 1008.99 248.377 1014.63 257.934C1020.16 267.509 1025.32 277.298 1030.16 287.269C1034.93 297.209 1039.45 307.323 1043.73 317.596C1048.1 327.784 1052.35 338.109 1056.56 348.59C1061.03 358.978 1065.59 369.505 1070.34 380.166C1075.52 390.768 1081.03 401.511 1086.93 412.429C1093.43 423.276 1100.41 434.314 1107.9 445.548C1116.04 456.701 1124.69 468.051 1133.81 479.609C1143.43 491.077 1153.38 502.731 1163.55 514.524C1173.89 526.229 1184.15 538.041 1194.18 549.95C1203.89 561.699 1213.01 573.478 1221.33 585.291C1228.83 596.851 1235.25 608.411 1240.43 619.921C1245.84 636.746 1248.4 669.886 1246.04 686.291C1243.59 697.126 1240.56 708.096 1237.26 719.236C1234.24 730.429 1231.55 741.926 1229.47 753.779C1228.53 765.844 1228.68 778.356 1230.1 791.327C1233.1 804.612 1237.46 818.372 1243.11 832.617C1250.08 847.107 1257.93 861.983 1266.34 877.186C1275.11 892.455 1283.67 907.908 1291.57 923.441C1298.6 938.81 1304.17 954.111 1307.98 969.264C1309.99 984.102 1309.87 998.723 1307.57 1013.1C1303.47 1027.16 1297.51 1041.04 1290.01 1054.81C1281.68 1068.43 1272.69 1082.08 1263.57 1095.87C1255.12 1109.79 1247.61 1123.86 1241.41 1138.16C1236.99 1152.79 1234.3 1167.72 1233.33 1182.95C1234.25 1198.54 1236.59 1214.36 1240.02 1230.4C1244.47 1246.62 1249.19 1262.89 1253.76 1279.11C1258.02 1295.32 1261.28 1311.34 1263.2 1327.11C1263.77 1342.67 1262.55 1357.92 1259.44 1372.81C1254.67 1387.45 1248.1 1401.78 1239.92 1415.83C1230.53 1429.73 1220.05 1443.47 1208.82 1457.07C1197.27 1470.72 1185.64 1484.36 1174.23 1498.07C1163.4 1511.97 1153.32 1526.03 1144.13 1540.25C1136.1 1554.75 1129.14 1569.47 1123.26 1584.33C1118.57 1599.48 1114.8 1614.73 1111.8 1630.05C1109.63 1645.5 1107.86 1660.93 1106.3 1676.23C1104.99 1691.5 1103.48 1706.53 1101.61 1721.23C1099.45 1735.71 1096.63 1749.77 1093.03 1763.3C1088.82 1776.47 1083.71 1789.03 1077.69 1800.92C1070.98 1812.33 1063.39 1823 1055.01 1832.91C1046.02 1842.24 1036.38 1850.78 1026.21 1858.46C1015.65 1865.58 1004.75 1871.83 993.601 1877.21C982.318 1882.05 970.96 1886.01 959.614 1889.13C948.344 1891.73 937.212 1893.54 926.254 1894.54C915.494 1895.14 904.978 1895.04 894.706 1894.23C884.681 1893.21 874.905 1891.61 865.372 1889.49C856.071 1887.35 846.966 1884.83 838.036 1882.01C829.294 1879.41 820.667 1876.65 812.106 1873.86C803.666 1871.52 795.241 1869.3 786.803 1867.26C778.417 1865.9 769.954 1864.89 761.396 1864.28C752.84 1864.51 744.144 1865.23 735.305 1866.49C726.423 1868.67 717.361 1871.38 708.129 1874.65C698.843 1878.8 689.368 1883.43 679.721 1888.48C670.007 1894.25 660.119 1900.28 650.077 1906.51C640.002 1913.15 629.778 1919.75 619.426 1926.18C609.067 1932.69 598.735 1938.68 588.45 1944.04C578.188 1949.09 567.989 1953.29 557.89 1956.52C547.849 1959.13 537.917 1960.63 528.125 1960.95C518.418 1960.47 508.871 1958.71 499.483 1955.69C490.212 1951.78 481.113 1946.61 472.22 1940.22C463.428 1932.99 454.864 1924.6 446.496 1915.14C438.255 1905 430.239 1893.91 422.439 1881.99C414.752 1869.59 407.281 1856.52 400.032 1842.89C392.878 1829.01 385.932 1814.75 379.2 1800.2C372.518 1785.66 366.013 1770.98 359.716 1756.25C353.405 1741.72 347.267 1727.26 341.261 1712.93C335.214 1698.98 329.268 1685.21 323.429 1671.71C317.483 1658.63 311.605 1645.84 305.769 1633.33C299.795 1621.31 293.851 1609.56 287.912 1598.09C281.811 1587.07 275.719 1576.28 269.636 1565.72C263.406 1555.56 257.191 1545.56 251.018 1535.68C244.727 1526.17 238.511 1516.68 232.393 1507.26C226.229 1498.11 220.21 1488.91 214.374 1479.66C208.548 1470.62 202.961 1461.45 197.602 1452.15C192.337 1442.97 187.328 1433.61 182.617 1424.03C178.004 1414.52 173.666 1404.75 169.616 1394.72C165.642 1384.71 161.935 1374.38 158.493 1363.76C155.052 1353.12 151.844 1342.12 148.837 1330.81C145.81 1319.44 142.962 1307.72 140.304 1295.69C137.602 1283.57 135.078 1271.12 132.744 1258.34C130.389 1245.52 128.25 1232.38 126.337 1218.95C124.428 1205.47 122.782 1191.73 121.399 1177.71C120.057 1163.67 118.989 1149.39 118.206 1134.88C117.463 1120.36 116.981 1105.6 116.757 1090.65C116.546 1075.69 116.554 1060.54 116.795 1045.19C116.998 1029.84 117.419 1014.3 118.045 998.603C118.62 982.894 119.425 967.026 120.456 951.039C121.463 935.026 122.734 919.084 124.256 903.208C125.804 887.337 127.628 871.538 129.739 855.832C131.899 840.156 134.323 824.55 137.034 809.037C139.756 793.547 142.741 778.146 145.935 762.844C149.13 747.543 152.524 732.319 156.101 717.21C159.653 702.097 163.378 687.056 167.286 672.15C171.156 657.238 175.235 642.425 179.499 627.727C183.786 613.053 188.28 598.52 193.021 584.113C197.798 569.733 202.833 555.502 208.097 541.455C213.423 527.44 218.993 513.591 224.765 499.942C230.574 486.32 236.571 472.915 242.731 459.722C248.875 446.587 255.13 433.674 261.496 420.984C267.779 408.38 274.132 396.031 280.542 383.955C286.843 371.96 293.187 360.256 299.596 348.867C305.881 337.596 312.257 326.665 318.695 316.089C325.083 305.666 331.582 295.647 338.218 286.017C344.854 276.569 351.661 267.557 358.652 259.003C365.694 250.621 372.957 242.704 380.439 235.292C388.023 228.041 395.84 221.277 403.876 215.019C412.028 208.904 420.4 203.274 428.981 198.107C437.666 193.081 446.535 188.514 455.565 184.36C464.689 180.305 473.939 176.636 483.324 173.377C492.749 170.105 502.274 167.195 511.878 164.603C521.499 161.953 531.188 159.599 540.922 157.495C550.651 155.29 560.428 153.295 570.228 151.507C580.016 149.535 589.83 147.729 599.668 146.11C609.498 144.266 619.344 142.547 629.23 140.977C639.096 139.161 649.003 137.473 658.938 135.933C668.866 134.148 678.846 132.515 688.865 131.05C698.875 129.362 708.946 127.887 719.08 126.605C729.197 125.199 739.386 124.029 749.628 123.172C759.863 122.232 770.164 121.628 780.522 121.439" stroke="url(#paint2_linear_384_4430)" stroke-opacity="0.4" stroke-width="2.5" stroke-linecap="round" stroke-dasharray="21 26"/>
<path opacity="0.93" d="M809.513 165.033C819.45 165.669 829.252 166.695 838.903 168.147C848.531 169.694 858 171.727 867.288 174.218C876.546 176.863 885.616 180.026 894.463 183.677C903.274 187.541 911.844 191.929 920.164 196.817C928.419 201.932 936.412 207.543 944.117 213.643C951.735 219.943 959.04 226.726 966.049 233.955C972.936 241.354 979.517 249.175 985.758 257.37C991.904 265.722 997.713 274.427 1003.2 283.45C1008.63 292.557 1013.76 301.946 1018.6 311.623C1023.43 321.336 1028.04 331.293 1032.47 341.484C1036.97 351.676 1041.38 362.084 1045.73 372.683C1050.31 383.282 1054.92 394.076 1059.66 405.068C1064.76 416.059 1070.08 427.235 1075.68 438.611C1081.75 449.999 1088.2 461.572 1095.02 473.375C1102.37 485.142 1110.12 497.124 1118.26 509.317C1126.86 521.456 1135.75 533.778 1144.88 546.249C1154.21 558.635 1163.6 571.118 1172.89 583.678C1182.06 596.057 1190.86 608.457 1199.14 620.831C1206.87 632.931 1213.82 644.931 1219.81 656.826C1226.95 674.034 1233.96 707.143 1233.85 723.067C1231.66 738.505 1223.48 769.275 1218.83 785.003C1216.32 795.686 1214.34 806.742 1213.1 818.234C1213.06 830.04 1214.1 842.377 1216.33 855.269C1219.94 868.552 1224.69 882.38 1230.49 896.705C1237.27 911.327 1244.65 926.323 1252.3 941.618C1260.06 956.924 1267.4 972.355 1273.95 987.748C1279.54 1002.87 1283.68 1017.81 1286.14 1032.46C1286.94 1046.64 1285.78 1060.48 1282.66 1073.97C1277.96 1086.99 1271.62 1099.75 1263.92 1112.32C1255.53 1124.69 1246.56 1137.08 1237.44 1149.62C1228.95 1162.35 1221.27 1175.28 1214.73 1188.56C1209.77 1202.29 1206.32 1216.46 1204.43 1231.04C1204.23 1246.13 1205.36 1261.61 1207.56 1277.38C1210.77 1293.45 1214.38 1309.64 1218 1325.86C1221.53 1342.08 1224.33 1358.11 1226.07 1373.84C1226.76 1389.34 1225.93 1404.4 1223.44 1419.05C1219.47 1433.29 1213.83 1447.11 1206.62 1460.49C1198.17 1473.59 1188.5 1486.36 1177.89 1498.88C1166.72 1511.29 1155.17 1523.58 1143.5 1535.87C1132.09 1548.25 1121.07 1560.73 1110.64 1573.35C1101.08 1586.24 1092.37 1599.3 1084.58 1612.57C1077.87 1626.11 1072.07 1639.8 1067.1 1653.6C1063.07 1667.59 1059.65 1681.58 1056.69 1695.48C1054.25 1709.41 1051.94 1723.1 1049.61 1736.48C1047.35 1749.68 1044.75 1762.4 1041.71 1774.59C1038.36 1786.42 1034.39 1797.59 1029.72 1808.03C1024.54 1817.99 1018.61 1827.14 1011.97 1835.44C1004.78 1843.17 996.909 1850.05 988.458 1856.02C979.546 1861.4 970.164 1865.92 960.403 1869.55C950.344 1872.63 940.056 1874.87 929.592 1876.26C919.021 1877.24 908.409 1877.43 897.815 1876.9C887.254 1876.07 876.792 1874.59 866.462 1872.52C856.25 1870.32 846.206 1867.65 836.327 1864.57C826.607 1861.55 817.047 1858.27 807.653 1854.77C798.382 1851.55 789.236 1848.26 780.2 1845.03C771.254 1842.25 762.368 1839.62 753.533 1837.24C744.714 1835.51 735.896 1834.11 727.047 1833.11C718.185 1832.9 709.26 1833.14 700.254 1833.86C691.181 1835.41 682.013 1837.45 672.741 1839.96C663.393 1843.26 653.92 1846.97 644.319 1851.01C634.672 1855.7 624.896 1860.61 615.029 1865.64C605.105 1871.05 595.101 1876.39 585.036 1881.57C574.967 1886.78 564.962 1891.55 555.074 1895.73C545.215 1899.66 535.485 1902.79 525.901 1905.09C516.39 1906.86 507.06 1907.59 497.923 1907.3C488.894 1906.29 480.07 1904.16 471.479 1900.86C463.003 1896.79 454.771 1891.58 446.796 1885.24C438.945 1878.14 431.33 1869.98 423.996 1860.83C416.763 1851.01 409.785 1840.31 403.051 1828.81C396.413 1816.82 390.017 1804.16 383.841 1790.93C377.724 1777.41 371.823 1763.46 366.102 1749.18C360.404 1734.8 354.856 1720.24 349.466 1705.54C344.04 1690.93 338.719 1676.31 333.497 1661.72C328.17 1647.38 322.921 1633.15 317.704 1619.09C312.361 1605.34 307.034 1591.8 301.707 1578.48C296.221 1565.55 290.723 1552.84 285.213 1540.34C279.541 1528.25 273.859 1516.37 268.192 1504.68C262.378 1493.39 256.599 1482.25 250.867 1471.26C245.045 1460.62 239.326 1450.08 233.725 1439.65C228.092 1429.5 222.635 1419.39 217.382 1409.31C212.166 1399.47 207.199 1389.59 202.481 1379.69C197.848 1369.95 193.51 1360.11 189.453 1350.19C183.65 1335.37 173.558 1305.02 169.208 1289.35C165.102 1273.46 157.896 1240.32 154.746 1223.05C152.631 1211.37 150.7 1199.44 148.944 1187.21C147.155 1174.93 145.552 1162.37 144.16 1149.55C142.745 1136.7 141.566 1123.6 140.631 1110.27C139.713 1096.91 139.054 1083.32 138.662 1069.54C138.299 1055.72 138.201 1041.73 138.384 1027.54C138.567 1013.35 139.018 998.971 139.732 984.419C140.435 969.864 141.387 955.156 142.589 940.293C143.78 925.407 145.218 910.407 146.905 895.253C148.591 880.099 150.529 865.015 152.691 849.995C154.869 834.959 157.294 820.012 159.955 805.153C162.626 790.316 165.523 775.544 168.655 760.857C171.773 746.187 175.098 731.617 178.622 717.122C182.119 702.64 185.799 688.25 189.647 673.969C193.481 659.705 197.485 645.529 201.668 631.485C205.849 617.46 210.236 603.555 214.814 589.785C219.426 576.065 224.266 562.491 229.331 549.102C234.469 535.755 239.833 522.573 245.442 509.622C251.112 496.71 257.027 484.029 263.138 471.546C269.291 459.156 275.627 446.981 282.115 435.053C288.582 423.2 295.176 411.586 301.857 400.242C308.453 388.955 315.109 377.95 321.81 367.222C328.383 356.601 334.989 346.254 341.61 336.238C348.103 326.328 354.622 316.751 361.164 307.548C367.615 298.462 374.126 289.759 380.71 281.444C387.248 273.299 393.894 265.571 400.659 258.285C407.43 251.163 414.37 244.497 421.465 238.281C428.63 232.249 435.988 226.678 443.527 221.565C451.176 216.626 459.019 212.129 467.044 208.091C475.197 204.17 483.523 200.665 492.019 197.594C500.636 194.599 509.405 191.972 518.313 189.71C527.309 187.473 536.424 185.555 545.658 183.955C554.951 182.291 564.332 180.876 573.799 179.729C583.305 178.471 592.865 177.411 602.48 176.551C612.131 175.496 621.813 174.614 631.53 173.884C641.271 172.937 651.049 172.122 660.839 171.433C670.653 170.526 680.479 169.745 690.332 169.074C700.194 168.201 710.08 167.458 719.976 166.859C729.891 166.084 739.827 165.476 749.763 165.093C759.717 164.552 769.666 164.274 779.625 164.264C789.592 164.175 799.546 164.429 809.5 165.029" stroke="url(#paint3_linear_384_4430)" stroke-opacity="0.4" stroke-width="2.5" stroke-linecap="round" stroke-dasharray="13 18"/>
<path opacity="0.61" d="M831.056 209.074C840.501 210.418 849.731 212.136 858.777 214.216C867.797 216.37 876.608 218.96 885.184 221.977C893.727 225.126 902.017 228.736 910.056 232.788C918.042 237.025 925.761 241.719 933.213 246.889C940.582 252.255 947.673 258.073 954.462 264.333C961.181 270.794 967.61 277.702 973.742 285.014C979.805 292.526 985.573 300.422 991.064 308.687C996.521 317.084 1001.73 325.86 1006.68 334.975C1011.64 344.217 1016.43 353.763 1021.04 363.613C1025.74 373.559 1030.33 383.794 1034.88 394.283C1039.59 404.852 1044.33 415.702 1049.14 426.805C1054.23 437.971 1059.48 449.383 1064.91 461.05C1070.71 472.775 1076.76 484.759 1083.1 496.976C1089.85 509.222 1096.89 521.706 1104.23 534.424C1111.92 547.112 1119.87 560.021 1128.02 573.087C1136.38 586.067 1144.81 599.177 1153.2 612.356C1161.56 625.379 1169.7 638.401 1177.49 651.395C1184.94 664.111 1191.81 676.715 1197.97 689.154C1203.5 701.229 1208.13 713.068 1211.81 724.67C1215.58 741.32 1216.86 772.829 1214.68 787.848C1211.2 802.415 1202.51 831.701 1198.52 846.923C1196.12 862.846 1196.89 897.792 1200.63 917.032C1204.67 930.501 1209.59 944.492 1215.28 959.001C1221.69 973.762 1228.42 988.869 1235.16 1004.19C1241.81 1019.45 1247.89 1034.71 1253.08 1049.85C1257.28 1064.6 1260.09 1079.03 1261.28 1093.05C1260.97 1106.51 1258.89 1119.5 1255.05 1132.02C1249.87 1144.04 1243.23 1155.7 1235.39 1167.12C1227 1178.3 1218.09 1189.51 1209.04 1200.86C1200.55 1212.42 1192.75 1224.28 1185.94 1236.51C1180.51 1249.29 1176.39 1262.59 1173.65 1276.42C1172.45 1290.86 1172.46 1305.76 1173.48 1321.08C1175.5 1336.78 1177.99 1352.7 1180.63 1368.67C1183.34 1384.72 1185.57 1400.6 1187.01 1416.18C1187.65 1431.5 1187.04 1446.37 1185.03 1460.71C1181.75 1474.63 1176.97 1487.96 1170.71 1500.76C1163.23 1513.13 1154.52 1525.02 1144.75 1536.51C1134.26 1547.76 1123.17 1558.75 1111.71 1569.56C1100.19 1580.36 1088.78 1591.14 1077.64 1601.97C1067.06 1612.99 1057.08 1624.12 1047.82 1635.41C1039.45 1646.97 1031.89 1658.7 1025.12 1670.54C1019.27 1682.62 1014.11 1694.72 1009.57 1706.8C1005.71 1718.97 1002.23 1730.99 999.001 1742.72C994.639 1759.98 985.406 1791.66 979.904 1805.67C973.518 1818.27 957.394 1838.52 947.621 1846.04C940.505 1850.2 932.896 1853.47 924.834 1855.84C916.442 1857.72 907.697 1858.75 898.666 1858.98C889.401 1858.78 879.956 1857.87 870.383 1856.25C860.704 1854.38 850.972 1851.92 841.228 1848.93C831.47 1845.86 821.75 1842.37 812.106 1838.56C802.474 1834.83 792.936 1830.91 783.5 1826.85C774.096 1823.09 764.784 1819.32 755.554 1815.62C746.344 1812.38 737.185 1809.33 728.08 1806.53C718.97 1804.36 709.864 1802.5 700.78 1801.03C691.638 1800.27 682.471 1799.94 673.279 1800.03C664.011 1800.88 654.703 1802.16 645.32 1803.85C635.871 1806.24 626.353 1808.99 616.781 1812.02C607.123 1815.6 597.423 1819.38 587.683 1823.25C577.896 1827.43 568.091 1831.56 558.272 1835.52C548.447 1839.51 538.773 1843.12 529.245 1846.2C519.764 1849.05 510.465 1851.22 501.383 1852.65C492.359 1853.61 483.577 1853.68 475.048 1852.84C466.618 1851.37 458.443 1848.89 450.552 1845.41C442.783 1841.22 435.285 1836.01 428.086 1829.78C420.991 1822.87 414.202 1814.98 407.666 1806.19C401.252 1796.77 395.096 1786.52 389.212 1775.51C383.39 1764 377.802 1751.82 372.441 1739.09C367.119 1726.02 361.969 1712.5 356.996 1698.59C352.009 1684.51 347.166 1670.18 342.433 1655.64C337.622 1641.1 332.904 1626.46 328.244 1611.78C323.461 1597.23 318.724 1582.71 313.991 1568.25C309.121 1554.01 304.242 1539.91 299.358 1525.94C294.297 1512.26 289.237 1498.76 284.178 1485.41C278.948 1472.42 273.745 1459.6 268.551 1446.97C263.242 1434.67 258 1422.54 252.832 1410.6C247.605 1398.97 242.486 1387.48 237.529 1376.14C232.576 1365.11 227.819 1354.17 223.281 1343.33C218.797 1332.75 214.551 1322.23 210.588 1311.74C204.903 1296.32 195.078 1265.64 190.907 1250.25C187.059 1234.87 180.533 1203.48 177.769 1187.33C175.115 1170.98 170.498 1137.09 168.549 1119.55C167.234 1107.72 166.086 1095.65 165.154 1083.38C164.175 1071.06 163.401 1058.52 162.851 1045.79C162.307 1033.02 162.011 1020.08 161.977 1006.97C161.974 993.825 162.228 980.533 162.781 967.086C163.361 953.629 164.212 940.027 165.346 926.284C166.517 912.556 167.971 898.686 169.679 884.686C171.425 870.701 173.439 856.589 175.704 842.367C177.995 828.154 180.514 813.986 183.267 799.907C186.009 785.824 188.96 771.819 192.122 757.895C195.259 743.961 198.582 730.097 202.096 716.347C205.573 702.583 209.221 688.904 213.023 675.325C216.785 661.751 220.717 648.262 224.798 634.912C228.855 621.553 233.075 608.318 237.473 595.211C241.852 582.139 246.444 569.209 251.241 556.481C256.076 543.766 261.14 531.263 266.424 518.945C271.788 506.7 277.379 494.684 283.21 482.903C289.12 471.194 295.254 459.735 301.597 448.54C307.992 437.427 314.559 426.564 321.29 415.991C328.001 405.471 334.837 395.246 341.76 385.303C348.62 375.438 355.53 365.84 362.47 356.562C369.284 347.34 376.116 338.434 382.94 329.835C389.619 321.325 396.289 313.142 402.957 305.309C409.493 297.57 416.053 290.191 422.607 283.202C429.093 276.31 435.606 269.842 442.19 263.771C448.728 257.828 455.37 252.316 462.117 247.236C468.871 242.282 475.769 237.754 482.806 233.69C489.906 229.733 497.174 226.212 504.599 223.121C512.102 220.121 519.789 217.541 527.64 215.354C535.589 213.203 543.701 211.444 551.972 210.014C560.332 208.597 568.843 207.484 577.463 206.681C586.197 205.818 595.038 205.201 603.972 204.826C612.989 204.338 622.094 204.048 631.274 203.952C640.517 203.694 649.829 203.586 659.17 203.633C668.594 203.484 678.036 203.466 687.513 203.565C697.035 203.453 706.586 203.497 716.137 203.624C725.742 203.564 735.343 203.627 744.931 203.85C754.562 203.883 764.191 204.101 773.778 204.509C783.398 204.785 792.997 205.281 802.543 206.045C812.098 206.751 821.608 207.749 831.044 209.069" stroke="url(#paint4_linear_384_4430)" stroke-opacity="0.4" stroke-width="2.5" stroke-linecap="round" stroke-dasharray="24 4"/>
<path opacity="0.18" d="M846.906 252.666C855.777 254.621 864.437 256.915 872.876 259.524C881.298 262.228 889.464 265.292 897.399 268.728C905.293 272.312 912.94 276.281 920.321 280.668C927.641 285.235 934.71 290.207 941.501 295.59C948.24 301.179 954.708 307.205 960.902 313.623C970.009 323.761 986.935 346.375 994.823 358.78C1000.03 367.387 1005.05 376.35 1009.93 385.663C1014.88 395.131 1019.72 404.972 1024.51 415.139C1029.42 425.452 1034.34 436.102 1039.28 447.056C1044.41 458.146 1049.65 469.576 1055 481.292C1060.62 493.117 1066.4 505.252 1072.38 517.645C1078.65 530.158 1085.13 542.917 1091.8 555.933C1098.75 568.982 1105.86 582.252 1113.11 595.694C1120.54 609.115 1128.02 622.668 1135.49 636.297C1142.95 649.818 1150.25 663.328 1157.3 676.842C1164.12 690.08 1170.52 703.216 1176.39 716.191C1181.8 728.813 1186.51 741.191 1190.46 753.305C1194.99 770.647 1198.67 803.174 1197.86 818.383C1195.58 832.862 1188.04 860.973 1183.67 875.043C1179.93 889.503 1175.67 920.708 1175.94 937.855C1177.45 949.961 1179.84 962.65 1183.08 975.956C1187.28 989.683 1192.13 1003.93 1197.5 1018.61C1203.33 1033.49 1209.25 1048.6 1214.99 1063.83C1220.47 1078.93 1225.26 1093.9 1229.1 1108.62C1231.99 1122.87 1233.53 1136.69 1233.57 1149.99C1232.27 1162.64 1229.39 1174.74 1224.95 1186.29C1219.36 1197.3 1212.5 1207.9 1204.61 1218.21C1196.26 1228.3 1187.44 1238.37 1178.52 1248.6C1170.07 1259.05 1162.21 1269.82 1155.18 1281.03C1149.36 1292.81 1144.69 1305.17 1141.2 1318.13C1139.09 1331.75 1138.07 1345.94 1138 1360.57C1138.89 1375.7 1140.29 1391.1 1141.95 1406.63C1143.81 1422.27 1145.38 1437.8 1146.39 1453.08C1146.86 1468.1 1146.32 1482.66 1144.64 1496.68C1141.91 1510.19 1137.87 1523.1 1132.5 1535.35C1126.01 1547.07 1118.32 1558.19 1109.55 1568.76C1099.98 1578.94 1089.65 1588.69 1078.75 1598.12C1067.59 1607.39 1056.26 1616.5 1044.94 1625.49C1033.92 1634.56 1023.22 1643.66 1013.01 1652.82C1003.45 1662.21 994.537 1671.68 986.306 1681.27C978.877 1691.11 972.156 1701 966.072 1710.9C960.725 1720.96 955.904 1730.92 951.503 1740.7C945.78 1755.21 935.471 1782.06 930.302 1793.97C924.867 1804.7 912.034 1821.73 904.443 1827.85C895.963 1832.37 876.46 1836.53 865.555 1836.24C857.923 1835.44 850.005 1833.92 841.855 1831.75C833.511 1829.33 825.005 1826.38 816.357 1822.91C807.591 1819.37 798.747 1815.48 789.844 1811.27C780.868 1807.17 771.868 1802.91 762.87 1798.5C753.801 1794.4 744.756 1790.31 735.724 1786.29C726.636 1782.7 717.563 1779.3 708.498 1776.15C699.366 1773.54 690.244 1771.24 681.108 1769.28C671.899 1767.98 662.672 1767.05 653.412 1766.5C644.078 1766.61 634.708 1767.12 625.311 1767.98C615.828 1769.42 606.323 1771.18 596.794 1773.21C587.192 1775.69 577.569 1778.34 567.964 1781.04C558.311 1784.06 548.677 1786.98 539.097 1789.76C529.509 1792.57 520.121 1795.05 510.922 1797.08C501.763 1798.91 492.836 1800.16 484.155 1800.75C475.547 1800.95 467.207 1800.38 459.155 1799.01C451.21 1797.07 443.551 1794.27 436.194 1790.59C428.947 1786.27 422.006 1781.04 415.367 1774.93C408.842 1768.17 402.602 1760.53 396.654 1752.07C390.805 1743.03 385.211 1733.21 379.89 1722.66C374.609 1711.63 369.57 1699.96 364.722 1687.7C359.9 1675.11 355.254 1662.01 350.766 1648.5C346.239 1634.79 341.842 1620.74 337.533 1606.44C333.15 1592.04 328.837 1577.49 324.574 1562.82C320.199 1548.17 315.843 1533.49 311.503 1518.8C307.033 1504.23 302.567 1489.71 298.096 1475.29C293.495 1461.06 288.896 1446.96 284.319 1433.01C279.631 1419.31 274.978 1405.76 270.371 1392.39C265.694 1379.32 261.112 1366.44 256.634 1353.72C252.133 1341.32 247.785 1329.09 243.604 1317.03C239.46 1305.26 235.52 1293.68 231.82 1282.23C228.174 1271.05 224.783 1260 221.654 1249.03C217.215 1232.99 209.752 1201.42 206.702 1185.75C203.904 1170.23 199.288 1138.84 197.396 1122.89C195.545 1106.79 192.41 1073.64 191.139 1056.6C190.25 1045.11 189.523 1033.46 188.957 1021.6C188.355 1009.72 187.943 997.684 187.753 985.458C187.55 973.225 187.587 960.855 187.891 948.341C188.223 935.818 188.826 923.195 189.708 910.433C190.664 897.706 191.907 884.865 193.446 871.935C195.05 859.014 196.938 845.999 199.121 832.895C201.35 819.833 203.866 806.657 206.659 793.424C209.468 780.178 212.499 767.018 215.753 753.943C218.983 740.857 222.395 727.857 225.982 714.92C229.528 701.985 233.244 689.131 237.091 676.36C240.885 663.585 244.813 650.875 248.864 638.285C252.867 625.673 256.995 613.163 261.271 600.786C265.495 588.405 269.865 576.157 274.404 564.073C278.935 552.028 283.649 540.133 288.561 528.458C293.505 516.82 298.683 505.419 304.07 494.243C309.535 483.147 315.229 472.308 321.15 461.744C327.172 451.27 333.405 441.086 339.836 431.185C346.341 421.383 353.028 411.877 359.869 402.675C366.72 393.562 373.697 384.761 380.764 376.254C387.779 367.806 394.852 359.679 401.959 351.862C408.963 344.1 415.963 336.631 422.953 329.491C429.799 322.409 436.614 315.626 443.403 309.187C450.045 302.825 456.652 296.781 463.245 291.087C472.947 282.833 492.223 268.298 501.908 262.069C511.589 256.341 531.423 246.998 541.632 243.368C552.054 240.216 573.705 235.807 584.935 234.467C592.579 233.677 600.353 233.179 608.261 232.955C616.272 232.675 624.404 232.664 632.653 232.875C641.005 232.968 649.448 233.272 657.988 233.769C666.613 234.097 675.325 234.593 684.101 235.245C692.95 235.722 701.865 236.336 710.811 237.069C719.831 237.628 728.884 238.287 737.948 239.097C747.064 239.702 756.204 240.465 765.317 241.362C774.489 242.098 783.626 243.007 792.743 244.094C801.883 245.066 810.981 246.25 820.008 247.671C829.05 249.079 838.02 250.725 846.894 252.661" stroke="url(#paint5_linear_384_4430)" stroke-opacity="0.4" stroke-width="2.5" stroke-linecap="round" stroke-dasharray="8 12"/>
<path opacity="0.46" d="M859.656 296.036C867.961 298.533 876.052 301.312 883.935 304.397C891.796 307.577 899.434 311.075 906.844 314.911C914.212 318.873 921.354 323.216 928.248 327.929C938.417 335.442 957.532 352.751 966.493 362.534C975.22 373.036 991.717 396.391 999.589 409.218C1004.83 418.101 1009.97 427.373 1015.03 437.047C1020.17 446.896 1025.28 457.137 1030.38 467.752C1035.61 478.532 1040.88 489.695 1046.21 501.197C1051.71 512.879 1057.3 524.87 1062.99 537.203C1068.88 549.646 1074.89 562.413 1081 575.439C1087.3 588.55 1093.69 601.9 1100.16 615.451C1106.73 629.02 1113.31 642.723 1119.87 656.558C1126.4 670.296 1132.8 684.066 1139.01 697.826C1145.04 711.4 1150.73 724.844 1156.02 738.178C1160.97 751.184 1165.38 763.968 1169.18 776.48C1173.78 794.483 1178.54 828.183 1178.63 843.864C1177.31 858.637 1171.34 886.655 1167.25 900.27C1163.22 913.895 1156.42 942.437 1154.45 957.883C1154.14 968.733 1154.52 980.131 1155.61 992.142C1157.64 1004.63 1160.38 1017.7 1163.78 1031.33C1167.91 1045.33 1172.46 1059.78 1177.3 1074.59C1182.39 1089.47 1187.36 1104.5 1192 1119.54C1196.28 1134.31 1199.79 1148.86 1202.35 1163.03C1203.98 1176.65 1204.35 1189.74 1203.36 1202.22C1201.19 1214 1197.62 1225.18 1192.69 1235.76C1186.77 1245.77 1179.77 1255.34 1171.87 1264.6C1163.6 1273.63 1154.94 1282.64 1146.15 1291.79C1137.8 1301.17 1129.93 1310.88 1122.77 1321.04C1116.65 1331.78 1111.5 1343.16 1107.38 1355.13C1104.48 1367.8 1102.55 1381.09 1101.47 1394.9C1101.32 1409.24 1101.69 1423.89 1102.38 1438.74C1103.38 1453.79 1104.26 1468.77 1104.77 1483.54C1104.93 1498.11 1104.35 1512.22 1102.87 1525.81C1100.56 1538.9 1097.12 1551.34 1092.56 1563.05C1087.02 1574.19 1080.34 1584.62 1072.63 1594.37C1064.12 1603.64 1054.77 1612.33 1044.74 1620.51C1034.29 1628.42 1023.48 1635.97 1012.48 1643.26C1001.52 1650.48 990.655 1657.59 980.03 1664.63C969.831 1671.8 960.08 1678.98 950.846 1686.21C942.263 1693.66 934.272 1701.14 926.894 1708.65C917.129 1720.18 901.1 1742.93 894.457 1753.8C888.631 1764.25 877.763 1782.54 872.284 1790.04C860.224 1800.67 838.643 1807.79 830.076 1807.11C820.861 1805.26 800.704 1798.16 789.901 1793.19C782.433 1789.66 774.795 1785.76 767.006 1781.57C759.062 1777.47 751.009 1773.19 742.85 1768.79C734.549 1764.65 726.18 1760.52 717.737 1756.4C709.182 1752.71 700.556 1749.15 691.885 1745.78C683.101 1742.9 674.267 1740.28 665.383 1737.94C656.392 1736.18 647.354 1734.73 638.269 1733.6C629.088 1733.05 619.861 1732.82 610.608 1732.87C601.261 1733.45 591.896 1734.27 582.524 1735.3C573.066 1736.75 563.627 1738.3 554.21 1739.92C544.741 1741.77 535.329 1743.55 526.001 1745.2C516.651 1746.89 507.509 1748.26 498.603 1749.27C489.737 1750.1 481.111 1750.43 472.76 1750.22C464.469 1749.63 456.477 1748.4 448.772 1746.47C441.164 1744.06 433.854 1740.9 426.864 1736.94C419.962 1732.44 413.382 1727.14 407.094 1721.05C400.915 1714.38 395.029 1706.92 389.427 1698.7C383.901 1689.93 378.633 1680.46 373.621 1670.3C368.655 1659.65 363.909 1648.41 359.352 1636.59C354.827 1624.4 350.46 1611.71 346.23 1598.6C341.985 1585.21 337.86 1571.49 333.834 1557.45C329.746 1543.28 325.727 1528.86 321.759 1514.29C317.72 1499.67 313.715 1484.96 309.739 1470.19C305.682 1455.47 301.641 1440.75 297.643 1426.07C293.554 1411.55 289.504 1397.09 285.512 1382.74C281.45 1368.62 277.472 1354.61 273.586 1340.79C269.667 1327.23 265.869 1313.84 262.216 1300.64C258.577 1287.73 255.112 1275.01 251.828 1262.49C248.615 1250.26 245.598 1238.22 242.82 1226.39C238.873 1209.11 232.282 1175.65 229.632 1159.38C227.256 1143.44 223.547 1111.91 222.132 1096.21C220.773 1080.5 218.607 1048.69 217.733 1032.47C216.83 1016.08 215.483 982.508 215.102 965.335C214.852 953.816 214.78 942.166 214.912 930.4C215.045 918.634 215.404 906.764 216.015 894.806C216.677 882.856 217.615 870.831 218.847 858.763C220.144 846.711 221.746 834.624 223.664 822.463C225.649 810.363 227.941 798.226 230.543 786.036C233.205 773.88 236.161 761.681 239.384 749.445C242.643 737.23 246.113 725.094 249.786 713.077C253.423 701.039 257.243 689.086 261.202 677.235C265.106 665.331 269.133 653.54 273.278 641.819C277.336 630.068 281.509 618.406 285.78 606.843C289.964 595.251 294.258 583.765 298.653 572.425C302.997 561.075 307.482 549.872 312.093 538.827C316.695 527.821 321.459 516.993 326.399 506.396C331.366 495.858 336.545 485.571 341.925 475.529C347.375 465.592 353.056 455.94 358.946 446.557C364.933 437.338 371.127 428.39 377.529 419.776C384.008 411.292 390.674 403.109 397.49 395.271C404.349 387.542 411.337 380.124 418.429 373.022C425.494 366.033 432.625 359.34 439.795 352.946C446.879 346.631 453.973 340.621 461.065 334.909C468.023 329.248 474.951 323.89 481.833 318.847C491.919 311.454 511.623 298.322 521.282 292.585C530.733 287.217 549.515 278.21 558.918 274.611C568.319 271.374 587.478 266.668 597.303 265.153C607.311 263.957 628.001 263.028 638.701 263.218C645.959 263.353 653.349 263.736 660.846 264.353C668.439 264.853 676.148 265.55 683.946 266.448C691.844 267.212 699.83 268.113 707.894 269.208C716.054 270.123 724.275 271.182 732.558 272.383C740.92 273.417 749.32 274.579 757.758 275.87C766.255 277.025 774.777 278.301 783.289 279.742C791.863 281.027 800.411 282.489 808.942 284.134C817.495 285.685 826.017 287.431 834.469 289.414C842.946 291.349 851.334 293.551 859.644 296.029" stroke="url(#paint6_linear_384_4430)" stroke-opacity="0.4" stroke-width="2.5" stroke-linecap="round" stroke-dasharray="21 15"/>
<path opacity="0.47" d="M871.838 340.462C879.605 343.428 887.187 346.66 894.586 350.204C901.969 353.803 909.164 357.732 916.171 361.991C926.527 368.734 946.225 384.233 955.557 393.071C964.694 402.563 982.089 423.875 990.427 435.705C995.942 443.949 1001.36 452.605 1006.68 461.656C1012.05 470.917 1017.34 480.608 1022.61 490.669C1027.93 500.968 1033.24 511.635 1038.56 522.698C1043.97 533.933 1049.39 545.553 1054.86 557.502C1060.42 569.614 1066.03 582.054 1071.65 594.798C1077.4 607.641 1083.15 620.734 1088.91 634.07C1094.71 647.437 1100.47 660.997 1106.17 674.661C1111.83 688.301 1117.35 701.979 1122.68 715.699C1127.86 729.226 1132.76 742.721 1137.32 756.083C1141.61 769.197 1145.46 782.096 1148.83 794.792C1151.82 807.114 1154.23 819.133 1156.06 830.833C1157.8 847.615 1157.53 878.862 1155.64 893.408C1152.84 907.283 1145.38 934.125 1141.29 947.485C1137.69 961.156 1132.59 990.481 1131.65 1006.51C1131.97 1017.83 1132.91 1029.7 1134.45 1042.15C1136.75 1055.07 1139.59 1068.52 1142.89 1082.44C1146.71 1096.67 1150.77 1111.23 1154.89 1126C1159.1 1140.78 1163.04 1155.56 1166.54 1170.21C1169.6 1184.53 1171.88 1198.49 1173.23 1211.98C1173.7 1224.87 1173.02 1237.13 1171.12 1248.73C1168.18 1259.62 1164.02 1269.84 1158.7 1279.44C1152.55 1288.47 1145.47 1297.05 1137.63 1305.31C1129.49 1313.34 1121.01 1321.33 1112.41 1329.43C1104.18 1337.79 1096.36 1346.46 1089.13 1355.55C1082.79 1365.26 1077.28 1375.56 1072.64 1386.46C1069.07 1398.11 1066.33 1410.35 1064.39 1423.15C1063.29 1436.51 1062.71 1450.25 1062.5 1464.23C1062.66 1478.48 1062.82 1492.69 1062.8 1506.77C1062.59 1520.7 1061.85 1534.24 1060.43 1547.25C1058.4 1559.84 1055.48 1571.77 1051.59 1582.94C1046.88 1593.54 1041.19 1603.36 1034.55 1612.42C1027.14 1620.91 1018.89 1628.71 1009.95 1635.85C1000.48 1642.59 990.525 1648.83 980.234 1654.63C969.784 1660.25 959.238 1665.57 948.748 1670.69C938.44 1675.8 928.391 1680.83 918.682 1685.78C909.415 1690.89 900.615 1695.97 892.316 1701.04C880.984 1708.95 861.729 1724.73 853.641 1732.4C840.45 1746.62 823.294 1763.7 817.8 1767.35C806.056 1771.04 785.894 1769.45 778.13 1766.57C769.83 1762.97 751.747 1753.47 742.02 1747.86C735.287 1744.12 728.359 1740.18 721.262 1736.09C713.978 1732.24 706.544 1728.32 698.98 1724.42C691.239 1720.86 683.364 1717.38 675.374 1714.02C667.233 1711.1 658.984 1708.37 650.639 1705.84C642.139 1703.77 633.562 1701.98 624.913 1700.39C616.109 1699.32 607.256 1698.47 598.359 1697.83C589.346 1697.67 580.299 1697.67 571.229 1697.81C562.078 1698.29 552.93 1698.86 543.817 1699.46C534.636 1700.24 525.516 1700.96 516.465 1701.53C507.404 1702.14 498.556 1702.48 489.925 1702.49C481.329 1702.36 472.986 1701.78 464.895 1700.74C456.874 1699.39 449.136 1697.47 441.691 1694.95C430.792 1690.22 410.633 1676.63 401.355 1667.7C395.379 1661.02 389.675 1653.61 384.228 1645.52C378.878 1636.93 373.779 1627.69 368.911 1617.81C364.112 1607.48 359.517 1596.56 355.115 1585.1C350.745 1573.27 346.549 1560.96 342.496 1548.19C338.44 1535.17 334.521 1521.77 330.715 1508.05C326.881 1494.13 323.136 1479.99 319.481 1465.63C315.789 1451.2 312.167 1436.62 308.621 1421.97C305.019 1407.31 301.507 1392.63 298.051 1377.95C294.577 1363.39 291.185 1348.88 287.885 1334.44C284.587 1320.19 281.389 1306.08 278.322 1292.1C275.285 1278.36 272.379 1264.8 269.656 1251.43C266.97 1238.33 264.479 1225.43 262.177 1212.74C259.935 1200.34 257.905 1188.13 256.092 1176.13C253.568 1158.59 249.675 1124.74 248.269 1108.31C247.057 1092.24 245.394 1060.56 244.87 1044.81C244.342 1029.13 243.619 997.457 243.392 981.386C243.086 965.197 242.838 932.213 242.976 915.475C243.195 898.596 244.572 864.5 245.852 847.345C247.469 830.225 252.276 796.019 255.496 778.975C257.846 767.679 260.514 756.384 263.468 745.111C266.509 733.875 269.835 722.661 273.435 711.461C277.063 700.258 280.895 689.173 284.907 678.236C288.902 667.263 293.036 656.387 297.293 645.618C301.481 634.801 305.775 624.1 310.15 613.456C314.434 602.793 318.794 592.204 323.225 581.707C327.565 571.192 331.976 560.769 336.472 550.493C340.892 540.186 345.426 530.023 350.057 520.059C354.671 510.105 359.412 500.347 364.308 490.828C369.229 481.37 374.33 472.166 379.599 463.255C384.951 454.444 390.501 445.922 396.255 437.716C402.081 429.648 408.135 421.912 414.371 414.52C420.692 407.274 427.2 400.353 433.868 393.806C440.59 387.363 447.45 381.276 454.412 375.522C461.4 369.874 468.455 364.535 475.555 359.534C482.624 354.598 489.714 349.984 496.797 345.649C507.26 339.374 527.841 328.274 537.891 323.444C547.682 318.896 566.798 311.185 576.134 308.031C585.302 305.133 603.485 300.742 612.564 299.27C621.649 298.023 640.092 296.853 649.511 296.908C659.095 297.12 678.81 298.622 688.961 299.838C699.348 301.108 720.722 304.387 731.707 306.353C739.126 307.568 746.641 308.938 754.212 310.456C761.869 311.814 769.577 313.338 777.329 315.003C785.146 316.536 792.995 318.202 800.862 320.055C808.781 321.768 816.701 323.68 824.604 325.754C832.55 327.771 840.469 329.988 848.338 332.434C856.235 334.832 864.071 337.496 871.826 340.454" stroke="url(#paint7_linear_384_4430)" stroke-opacity="0.4" stroke-width="2.5" stroke-linecap="round" stroke-dasharray="18 15"/>
<path opacity="0.21" d="M885.147 387.574C892.411 390.973 899.553 394.658 906.547 398.628C916.936 404.851 936.917 419.066 946.508 427.146C952.817 432.795 958.988 438.829 965.01 445.238C976.994 458.593 988.465 473.584 999.492 490.176C1010.54 507.576 1021.27 526.632 1031.79 547.246C1042.43 568.643 1052.94 591.482 1063.31 615.648C1073.79 640.263 1084.04 665.89 1093.92 692.248C1103.54 718.496 1112.4 744.986 1120.18 771.303C1127.09 796.768 1132.4 821.533 1135.8 845.219C1137.85 867.544 1137.81 888.599 1135.69 908.348C1132.62 926.993 1128.09 944.832 1122.64 962.311C1117.81 979.922 1113.35 998.247 1109.96 1017.85C1108.93 1039.04 1109.79 1062.25 1112.65 1087.55C1117.84 1114.49 1124.13 1142.9 1130.64 1172.03C1136.89 1200.83 1141.14 1228.66 1142.29 1254.61C1140.9 1272.32 1131.51 1303.22 1123.56 1316.49C1117.27 1324.56 1110.17 1332.19 1102.45 1339.47C1094.47 1346.55 1086.22 1353.56 1077.83 1360.67C1069.78 1368.03 1062.07 1375.68 1054.85 1383.7C1048.38 1392.35 1042.59 1401.55 1037.55 1411.34C1033.41 1421.87 1030.03 1432.97 1027.34 1444.6C1025.41 1456.87 1023.99 1469.53 1022.95 1482.45C1021.99 1509.16 1020.77 1535.5 1018.17 1560.42C1013.88 1583.92 1006.56 1604.6 995.981 1622.15C982.666 1637.26 966.527 1649.44 948.295 1659.09C928.943 1667.44 909.074 1674.34 889.527 1680.23C871.004 1686.36 853.891 1692.19 838.492 1697.74C825.005 1704.04 813.232 1709.94 802.957 1715.13C794.102 1720.65 786.112 1724.91 778.572 1727.59C771.505 1729.99 764.247 1730.47 756.583 1728.98C748.626 1727.07 739.897 1723.3 730.368 1717.91C720.174 1712.54 709.086 1706.05 697.189 1698.75C684.538 1692.24 671.103 1685.55 656.974 1678.94C642.144 1673.79 626.693 1669.11 610.768 1665.01C602.569 1663.59 594.284 1662.29 585.908 1661.15C577.399 1660.38 568.845 1659.7 560.239 1659.09C551.546 1658.8 542.825 1658.51 534.11 1658.2C525.354 1658.06 516.604 1657.81 507.923 1657.39C499.225 1657.03 490.716 1656.38 482.407 1655.48C474.127 1654.44 466.076 1652.99 458.26 1651.13C450.508 1649.03 443.009 1646.41 435.778 1643.26C428.641 1639.78 421.767 1635.7 415.163 1631.01C402.286 1620.43 390.5 1607.25 379.742 1591.6C369.379 1574.19 359.937 1554.41 351.311 1532.5C342.93 1509.21 335.221 1484.18 328.111 1457.75C321.077 1430.58 314.531 1402.53 308.454 1373.91C302.416 1345.3 296.85 1316.59 291.824 1288.11C286.932 1260.24 282.657 1232.89 279.101 1206.26C275.763 1180.56 273.188 1155.67 271.424 1131.64C269.803 1108.48 268.918 1086.01 268.696 1064.14C268.369 1042.76 268.507 1021.67 269.049 1000.7C269.181 979.81 269.557 958.777 270.214 937.54C270.388 916.163 270.915 894.486 271.915 872.625C272.734 850.708 274.304 828.718 276.765 806.793C278.879 790.461 284.661 758.192 288.365 742.282C292.533 726.565 302.467 695.534 308.192 680.211C312.126 670.045 316.242 660.024 320.527 650.14C324.784 640.256 329.177 630.48 333.666 620.805C338.081 611.092 342.57 601.461 347.121 591.948C351.581 582.362 356.081 572.874 360.637 563.478C369.42 544.51 378.44 526.047 387.735 508.233C396.854 490.435 406.464 473.549 416.638 457.746C427.032 442.321 438.17 428.215 450.002 415.542C462.212 403.421 475.07 392.743 488.461 383.551C501.998 374.79 515.837 367.352 529.789 361.198C543.564 355.195 557.221 350.312 570.674 346.503C583.718 342.591 596.49 339.654 608.996 337.718C621.106 335.51 633.052 334.25 644.915 333.958C656.574 333.323 668.309 333.604 680.176 334.802C692.079 335.578 704.269 337.192 716.75 339.626C729.444 341.532 742.488 344.169 755.841 347.482C769.481 350.215 783.426 353.598 797.589 357.629C808.363 360.447 830.175 366.813 841.156 370.406C848.503 372.792 855.861 375.411 863.183 378.273C870.534 381.089 877.85 384.193 885.13 387.583" stroke="url(#paint8_linear_384_4430)" stroke-opacity="0.4" stroke-width="2.5" stroke-linecap="round" stroke-dasharray="25 8"/>
<path opacity="0.96" d="M899.833 438.618C913.491 446.276 926.721 455.167 939.485 465.277C952.14 475.799 964.326 487.746 976.033 501.181C987.636 515.216 998.796 530.841 1009.55 548.025C1020.23 565.902 1030.57 585.326 1040.56 606.171C1050.51 627.621 1060.08 650.338 1069.23 674.097C1078.19 698.107 1086.55 722.836 1094.15 747.909C1101.19 772.682 1107.15 797.35 1111.76 821.556C1115.43 844.836 1117.46 867.236 1117.74 888.545C1116.99 908.722 1114.57 927.8 1110.66 945.924C1106.42 963.437 1101.4 980.627 1096.11 997.941C1091.88 1015.91 1088.39 1034.97 1086.12 1055.51C1086 1077.79 1087.49 1101.98 1090.45 1127.99C1095.07 1155.3 1100.19 1183.57 1104.97 1212.02C1109.11 1239.75 1111.12 1266.06 1110.16 1290.18C1106.43 1311.68 1098.99 1330.33 1087.95 1346.24C1074.77 1360.14 1059.44 1372.68 1043.09 1384.87C1027.83 1398.04 1014.15 1412.62 1002.75 1429.18C994.418 1448.59 988.49 1470.05 984.437 1493.01C982.092 1517.53 979.896 1541.88 976.922 1565.07C972.92 1587.22 966.612 1606.73 957.697 1623.19C946.505 1637.28 932.732 1648.2 916.874 1656.25C899.629 1662.59 881.429 1666.94 862.997 1669.77C844.916 1672.37 827.657 1674.26 811.631 1675.69C797.014 1677.77 783.914 1679.52 772.279 1680.87C762.06 1682.85 752.93 1684.11 744.65 1684.39C737.094 1684.94 729.829 1684.23 722.573 1682.11C715.33 1680.08 707.683 1676.66 699.482 1671.93C690.829 1667.5 681.408 1662.08 671.221 1655.9C660.335 1650.5 648.637 1644.74 636.152 1638.89C622.961 1634.22 609.04 1629.73 594.516 1625.48C579.373 1622.54 563.754 1619.81 547.8 1617.19C531.46 1615.49 514.99 1613.51 498.561 1610.94C482.082 1608.47 466.267 1604.83 451.219 1599.77C436.448 1593.92 422.595 1586.15 409.711 1576.33C397.254 1565.15 385.81 1551.68 375.337 1535.99C365.317 1518.84 356.203 1499.53 347.96 1478.3C340.059 1455.87 332.909 1431.82 326.484 1406.48C320.304 1380.48 314.77 1353.62 309.878 1326.26C305.21 1298.85 301.178 1271.35 297.833 1244.07C294.724 1217.26 292.329 1190.94 290.664 1165.33C289.241 1140.45 288.521 1116.33 288.521 1092.97C288.584 1070.32 289.208 1048.26 290.345 1026.77C291.252 1005.57 292.474 984.645 293.958 963.842C294.953 943.007 296.128 922.082 297.473 901.058C298.376 879.835 299.59 858.528 301.24 837.158C302.753 815.801 305.001 794.566 308.098 773.625C311.48 752.948 315.948 732.716 321.57 712.99C327.614 693.633 334.768 674.741 342.991 656.302C351.357 637.994 360.311 620.323 369.669 603.234C378.752 585.891 388.006 568.962 397.357 552.447C406.282 535.609 415.318 519.268 424.504 503.555C433.466 487.773 442.799 472.892 452.555 459.099C462.457 445.626 472.987 433.477 484.118 422.767C495.613 412.624 507.73 403.985 520.364 396.847C533.247 390.193 546.47 384.923 559.901 380.96C573.283 377.208 586.653 374.561 599.9 372.962C612.867 371.243 625.609 370.41 638.093 370.43C650.243 370.12 662.174 370.559 673.918 371.78C685.454 372.529 696.932 373.992 708.413 376.201C719.871 377.877 731.464 380.259 743.234 383.316C755.131 385.794 767.297 388.937 779.72 392.736C792.327 395.961 805.219 399.845 818.339 404.427C831.645 408.507 845.129 413.379 858.714 419.088C872.403 424.52 886.133 430.991 899.822 438.608" stroke="url(#paint9_linear_384_4430)" stroke-opacity="0.4" stroke-width="2.5" stroke-linecap="round" stroke-dasharray="17 1"/>
<path opacity="0.67" d="M914.758 493.605C927.61 502.066 940.098 511.713 952.181 522.572C964.161 533.781 975.708 546.343 986.807 560.289C997.771 574.77 1008.27 590.686 1018.31 608.004C1028.18 625.867 1037.57 645.081 1046.43 665.431C1055.06 686.231 1063.1 707.999 1070.43 730.467C1077.35 752.991 1083.4 775.877 1088.41 798.829C1092.78 821.335 1095.89 843.513 1097.6 865.045C1098.49 885.753 1097.92 905.62 1095.89 924.558C1093.22 942.728 1089.39 960.18 1084.64 977.08C1080.04 993.964 1075.21 1010.99 1070.54 1028.58C1067.14 1047.25 1064.63 1067.23 1063.27 1088.77C1063.74 1112.03 1065.4 1136.93 1068.05 1163.25C1071.74 1190.5 1075.4 1218.15 1078.36 1245.47C1080.41 1271.72 1080.34 1296.21 1077.53 1318.29C1072.32 1337.76 1063.94 1354.41 1052.54 1368.36C1039.45 1380.5 1024.57 1391.27 1008.85 1401.64C994.048 1412.94 980.523 1425.45 968.905 1439.7C959.851 1456.67 952.89 1475.56 947.647 1495.91C944.086 1517.97 940.962 1540.07 937.528 1561.32C933.596 1581.89 928.05 1600.15 920.541 1615.56C911.219 1628.83 899.704 1638.89 886.278 1645.89C871.404 1650.99 855.341 1653.67 838.673 1654.38C821.828 1654.42 805.29 1653.34 789.457 1651.46C774.499 1649.97 760.712 1648.1 748.148 1645.9C736.751 1644.44 726.483 1642.63 717.185 1640.29C708.701 1638.6 700.771 1636.21 693.172 1632.96C685.813 1630.23 678.366 1626.59 670.662 1622.08C662.715 1618.1 654.213 1613.37 645.092 1608.02C635.438 1603.45 625.011 1598.51 613.873 1593.3C602.071 1589.15 589.543 1584.91 576.359 1580.63C562.603 1577.42 548.298 1574.13 533.583 1570.65C518.512 1567.91 503.223 1564.67 487.86 1560.7C472.461 1556.82 457.588 1551.8 443.389 1545.44C429.433 1538.47 416.285 1529.77 404.015 1519.24C392.193 1507.62 381.303 1494.02 371.347 1478.45C361.899 1461.68 353.369 1443.04 345.744 1422.72C338.565 1401.42 332.238 1378.67 326.734 1354.82C321.628 1330.42 317.288 1305.26 313.733 1279.65C310.535 1254.03 308.078 1228.32 306.396 1202.8C305.004 1177.68 304.348 1152.95 304.429 1128.82C304.694 1105.28 305.593 1082.33 307.088 1060.03C308.53 1038.18 310.427 1016.81 312.662 995.874C314.566 975.066 316.685 954.437 318.934 933.897C320.69 913.223 322.558 892.5 324.55 871.737C326.144 850.796 328.023 829.866 330.325 809.093C332.55 788.358 335.458 767.957 339.196 748.019C343.24 728.475 348.289 709.555 354.445 691.342C360.996 673.569 368.594 656.464 377.169 639.976C385.881 623.634 395.119 608.037 404.656 593.069C413.95 577.845 423.346 563.066 432.749 548.704C441.736 533.952 450.737 519.674 459.77 506.008C468.542 492.163 477.543 479.187 486.84 467.245C496.193 455.531 506.051 445.12 516.405 436.1C527.074 427.603 538.292 420.624 550.003 415.154C562.018 410.196 574.417 406.679 587.066 404.486C599.824 402.577 612.66 401.786 625.481 402.041C638.165 402.224 650.718 403.258 663.067 405.065C675.19 406.539 687.119 408.652 698.833 411.382C710.374 413.618 721.784 416.415 733.121 419.785C744.408 422.549 755.73 425.88 767.105 429.773C778.569 433.06 790.177 436.909 801.971 441.364C813.903 445.241 826.037 449.763 838.35 454.981C850.818 459.759 863.448 465.311 876.173 471.758C888.994 477.944 901.874 485.182 914.747 493.593" stroke="url(#paint10_linear_384_4430)" stroke-opacity="0.4" stroke-width="2.5" stroke-linecap="round" stroke-dasharray="21 11"/>
<path opacity="0.25" d="M927.851 551.043C939.896 560.198 951.568 570.466 962.83 581.855C973.969 593.5 984.663 606.375 994.856 620.462C1004.86 634.934 1014.34 650.654 1023.23 667.518C1031.88 684.766 1039.89 703.058 1047.19 722.22C1054.14 741.617 1060.28 761.635 1065.52 782.066C1070.26 802.405 1073.98 822.856 1076.56 843.099C1078.51 862.949 1079.24 882.351 1078.69 901.132C1077.56 919.34 1075.22 936.896 1071.8 953.803C1068.15 970.428 1063.79 986.753 1058.96 1003.01C1054.61 1019.73 1050.38 1037.03 1046.57 1055.23C1044.01 1074.72 1042.3 1095.62 1041.55 1118C1042.2 1141.88 1043.65 1167.07 1045.6 1193.21C1048.08 1219.85 1050.17 1246.37 1051.28 1272.09C1051.37 1296.5 1049.43 1318.91 1045.05 1338.75C1038.64 1356.13 1029.57 1370.73 1018.02 1382.75C1005.13 1393.19 990.812 1402.29 975.787 1410.9C961.525 1420.45 948.327 1430.94 936.669 1442.94C927.149 1457.46 919.418 1473.74 913.242 1491.4C908.631 1510.84 904.658 1530.52 900.742 1549.61C896.723 1568.45 891.675 1585.31 885.255 1599.68C877.512 1612.22 868.021 1621.73 856.871 1628.17C844.389 1632.68 830.681 1634.51 816.165 1634.08C801.122 1632.61 785.953 1629.62 771.064 1625.47C756.551 1621.37 742.777 1616.69 729.902 1611.6C717.838 1607.17 706.727 1602.52 696.518 1597.62C687.035 1593.53 678.206 1589.14 669.871 1584.38C661.865 1580.37 654.01 1575.91 646.139 1570.95C638.171 1566.75 629.9 1562.1 621.227 1557.01C612.146 1552.75 602.484 1548.17 592.214 1543.29C581.411 1539.37 569.952 1535.21 557.901 1530.83C545.34 1527.34 532.261 1523.54 518.767 1519.37C504.953 1515.78 490.893 1511.56 476.72 1506.48C462.52 1501.49 448.767 1495.41 435.576 1488.08C422.643 1480.28 410.435 1470.93 399.032 1460C388.074 1448.25 378.014 1434.75 368.874 1419.62C360.247 1403.53 352.572 1385.88 345.823 1366.8C339.615 1346.96 334.31 1325.92 329.912 1303.96C325.993 1281.56 322.945 1258.55 320.758 1235.2C318.972 1211.77 318.001 1188.31 317.822 1164.99C317.938 1141.92 318.772 1119.18 320.292 1096.91C321.906 1074.97 324.075 1053.47 326.724 1032.47C329.242 1011.64 332.063 991.14 335.124 970.905C337.799 950.611 340.601 930.418 343.462 910.27C345.858 889.894 348.314 869.491 350.903 849.145C353.149 828.616 355.672 808.241 358.601 788.149C361.522 768.174 365.105 748.712 369.455 729.912C374.117 711.559 379.728 693.986 386.319 677.329C393.312 661.128 401.25 645.75 410.056 631.156C419.011 616.715 428.395 603.111 438.02 590.198C447.403 576.995 456.838 564.282 466.238 552.006C475.208 539.266 484.117 526.983 492.978 515.27C501.533 503.294 510.194 492.097 519.01 481.84C527.839 471.723 537.008 462.792 546.551 455.211C556.349 448.06 566.623 442.381 577.317 438.184C588.338 434.503 599.74 432.256 611.424 431.351C623.339 430.796 635.408 431.381 647.546 433.054C659.723 434.748 671.854 437.267 683.864 440.572C695.803 443.592 707.586 447.205 719.2 451.371C730.726 455.055 742.111 459.199 753.384 463.812C764.621 467.831 775.825 472.287 787.015 477.204C798.26 481.508 809.567 486.314 820.955 491.618C832.458 496.38 844.077 501.734 855.799 507.737C867.648 513.341 879.59 519.682 891.592 526.899C903.672 533.884 915.771 541.896 927.841 551.031" stroke="url(#paint11_linear_384_4430)" stroke-opacity="0.4" stroke-width="2.5" stroke-linecap="round" stroke-dasharray="22 16"/>
<path opacity="0.16" d="M936.82 608.111C948.007 617.832 958.764 628.504 969.035 640.076C979.2 651.875 988.828 664.666 997.864 678.4C1006.68 692.446 1014.87 707.439 1022.35 723.247C1029.53 739.334 1035.94 756.13 1041.52 773.486C1046.7 790.949 1050.95 808.757 1054.22 826.702C1057 844.551 1058.73 862.292 1059.35 879.787C1059.49 897.001 1058.54 913.826 1056.54 930.171C1054.2 946.289 1050.99 962.06 1047.04 977.553C1043.17 993.223 1038.94 1009.01 1034.57 1025.14C1030.84 1042.11 1027.39 1059.95 1024.44 1078.83C1022.57 1099.1 1021.38 1120.67 1020.89 1143.5C1021.38 1167.54 1022.26 1192.47 1023.25 1217.84C1024.38 1243.29 1024.85 1268.2 1024.22 1291.92C1022.54 1314.14 1019.01 1334.22 1013.36 1351.73C1006.02 1366.92 996.502 1379.53 984.984 1389.68C972.45 1398.48 958.76 1406 944.494 1412.99C930.874 1420.82 918.106 1429.43 906.606 1439.24C896.848 1451.39 888.602 1465.08 881.736 1480.02C876.289 1496.81 871.562 1513.94 867.18 1530.74C862.957 1547.68 858.195 1563.02 852.551 1576.28C846.034 1588.12 838.214 1597.22 829.095 1603.46C818.829 1607.86 807.433 1609.54 795.175 1608.79C782.222 1606.79 768.88 1602.97 755.472 1597.67C742.04 1592.08 728.953 1585.62 716.412 1578.56C704.29 1571.93 692.848 1565.03 682.137 1557.96C671.909 1551.69 662.297 1545.3 653.213 1538.83C644.398 1533.22 635.874 1527.47 627.494 1521.55C619.087 1516.52 610.571 1511.29 601.872 1505.84C592.856 1501.25 583.479 1496.47 573.675 1491.45C563.435 1487.27 552.705 1482.86 541.52 1478.18C529.902 1474.2 517.859 1469.87 505.485 1465.03C492.837 1460.68 479.974 1455.63 467.049 1449.72C454.083 1443.88 441.544 1437.03 429.543 1429.06C417.77 1420.76 406.696 1411.14 396.394 1400.19C386.501 1388.6 377.484 1375.6 369.391 1361.23C361.803 1346.18 355.169 1329.82 349.507 1312.35C344.365 1294.29 340.185 1275.27 336.961 1255.55C334.215 1235.46 332.382 1214.88 331.447 1194.04C330.895 1173.11 331.169 1152.1 332.215 1131.21C333.5 1110.4 335.454 1089.8 338.001 1069.51C340.597 1049.3 343.649 1029.37 347.058 1009.73C350.284 990.028 353.733 970.47 357.317 951.066C360.546 931.421 363.82 911.786 367.149 892.172C370.049 872.27 373.031 852.373 376.137 832.616C378.982 812.693 382.129 793.045 385.667 773.817C389.253 754.811 393.456 736.425 398.368 718.86C403.602 701.781 409.688 685.662 416.653 670.543C423.997 655.96 432.172 642.282 441.104 629.491C450.189 616.88 459.609 605.166 469.21 594.197C478.598 582.943 487.993 572.171 497.285 561.868C506.181 551.059 514.974 540.69 523.63 530.823C531.969 520.582 540.3 511.068 548.68 502.359C556.999 493.672 565.525 486.055 574.302 479.672C583.258 473.609 592.581 468.908 602.245 465.616C612.221 462.796 622.566 461.368 633.186 461.285C644.086 461.579 655.209 463.069 666.468 465.638C677.886 468.315 689.349 471.897 700.789 476.265C712.3 480.438 723.735 485.247 735.053 490.584C746.396 495.533 757.625 500.908 768.739 506.683C779.891 511.955 790.97 517.577 801.996 523.576C813.085 529.026 824.167 534.89 835.245 541.195C846.432 546.989 857.655 553.305 868.88 560.204C880.212 566.719 891.56 573.916 902.885 581.898C914.263 589.688 925.597 598.395 936.801 608.085" stroke="url(#paint12_linear_384_4430)" stroke-opacity="0.4" stroke-width="2.5" stroke-linecap="round" stroke-dasharray="17 16"/>
<path opacity="0.82" d="M730.835 627.864C741.111 637.942 750.847 648.733 760.034 660.194C769.089 671.816 777.532 684.154 785.283 697.166C792.839 710.383 799.648 724.249 805.673 738.623C811.394 753.177 816.266 768.171 820.243 783.448C823.852 798.781 826.51 814.258 828.205 829.724C829.505 845.146 829.822 860.444 829.166 875.518C828.193 890.503 826.337 905.291 823.677 919.863C820.911 934.524 817.561 949.19 813.761 963.927C810.212 979.209 806.534 994.964 802.882 1011.34C799.9 1028.76 797.21 1047.15 794.939 1066.62C793.519 1087.32 792.547 1109.15 791.973 1131.91C791.986 1155.5 792.067 1179.53 791.95 1203.54C791.686 1227.27 790.627 1250.11 788.435 1271.47C785.241 1291.27 780.419 1308.88 773.801 1323.99C765.825 1337.02 756.099 1347.62 744.78 1356.01C732.718 1363.24 719.74 1369.28 706.315 1374.76C693.385 1381.01 681.182 1387.84 669.999 1395.62C660.22 1405.5 651.689 1416.69 644.369 1429.02C638.278 1443.15 632.957 1457.72 628.12 1472.17C623.63 1487.06 618.954 1500.77 613.834 1512.81C608.188 1523.89 601.648 1532.62 594.194 1538.79C585.828 1543.39 576.512 1545.41 566.408 1544.99C555.568 1543.26 544.225 1539.52 532.599 1534.12C520.678 1528.11 508.795 1520.97 497.136 1512.99C485.568 1505.15 474.39 1496.88 463.676 1488.33C453.204 1480.4 443.199 1472.4 433.617 1464.4C424.197 1457.2 415.075 1450.04 406.17 1442.92C397.221 1436.66 388.318 1430.41 379.369 1424.12C370.18 1418.66 360.801 1413.16 351.186 1407.53C341.222 1402.65 330.959 1397.62 320.395 1392.31C309.49 1387.64 298.3 1382.6 286.916 1377.1C275.294 1371.96 263.564 1366.18 251.86 1359.61C240.112 1353.12 228.82 1345.75 218.083 1337.51C207.541 1328.97 197.685 1319.39 188.599 1308.74C179.884 1297.64 172.044 1285.41 165.099 1272.14C158.623 1258.34 153.097 1243.55 148.549 1227.91C144.48 1211.82 141.373 1195 139.212 1177.63C137.497 1159.97 136.684 1141.89 136.732 1123.62C137.12 1105.19 138.298 1086.65 140.177 1068.14C142.236 1049.58 144.888 1031.05 148.065 1012.67C151.221 994.179 154.738 975.762 158.563 957.449C162.159 938.902 165.935 920.349 169.82 901.821C173.358 882.935 176.958 864.005 180.604 845.088C183.912 825.855 187.321 806.69 190.885 787.704C194.285 768.638 197.979 749.961 202.075 731.809C206.256 713.924 211.031 696.799 216.439 680.605C222.159 664.94 228.64 650.314 235.889 636.769C243.479 623.767 251.783 611.763 260.757 600.716C269.84 589.864 279.197 579.925 288.68 570.762C297.98 561.322 307.242 552.408 316.366 543.952C325.159 534.968 333.778 526.387 342.214 518.252C350.348 509.687 358.381 501.721 366.361 494.452C374.231 487.073 382.185 480.627 390.289 475.241C398.484 470.05 406.948 466.1 415.644 463.418C424.615 461.125 433.883 460.17 443.419 460.483C453.238 461.169 463.307 463.04 473.543 466.026C484.016 469.202 494.617 473.297 505.265 478.213C516.084 483.109 526.911 488.629 537.692 494.747C548.595 500.577 559.441 506.877 570.211 513.562C581.076 519.862 591.872 526.504 602.593 533.475C613.424 540.002 624.197 546.886 634.911 554.127C645.747 560.966 656.516 568.233 667.219 575.957C678.035 583.407 688.76 591.413 699.367 600.047C710.026 608.538 720.542 617.786 730.826 627.85" stroke="url(#paint13_linear_384_4430)" stroke-opacity="0.4" stroke-width="2.5" stroke-linecap="round" stroke-dasharray="10 21"/>
<path opacity="0.29" d="M936.833 708.389C946.105 718.599 954.79 729.257 962.844 740.317C970.778 751.526 978.027 763.162 984.547 775.18C990.865 787.385 996.418 799.941 1001.14 812.788C1005.6 825.761 1009.21 838.938 1011.94 852.232C1014.37 865.608 1015.92 879.045 1016.57 892.413C1016.97 905.865 1016.51 919.252 1015.26 932.562C1013.87 946.006 1011.78 959.479 1009.12 972.988C1006.51 986.898 1003.51 1001.07 1000.25 1015.62C997.327 1030.95 994.358 1046.93 991.47 1063.68C989.15 1081.48 987.05 1100.25 985.206 1119.93C983.95 1140.63 982.899 1162.13 981.97 1184.19C981.308 1206.71 980.458 1229.23 979.194 1251.34C977.621 1272.89 975.193 1293.28 971.69 1312.02C967.279 1329.24 961.498 1344.31 954.228 1357.02C945.894 1367.91 936.174 1376.63 925.234 1383.32C913.74 1389.1 901.544 1393.78 889.003 1397.86C876.867 1402.67 865.316 1407.85 854.592 1413.79C844.958 1421.56 836.359 1430.41 828.788 1440.24C822.256 1451.81 816.477 1463.84 811.254 1475.94C806.483 1488.71 801.776 1500.68 796.91 1511.4C791.824 1521.57 786.208 1529.83 779.978 1535.96C773.112 1540.85 765.529 1543.41 757.29 1543.72C748.405 1542.79 738.994 1539.83 729.203 1535.11C718.98 1529.63 708.601 1522.82 698.202 1514.94C687.655 1506.89 677.239 1498.22 667.05 1489.1C656.871 1480.33 646.949 1471.37 637.333 1462.37C627.711 1453.99 618.322 1445.67 609.129 1437.42C599.854 1429.92 590.667 1422.54 581.523 1415.23C572.172 1408.67 562.766 1402.15 553.271 1395.63C543.48 1389.76 533.557 1383.82 523.511 1377.72C513.183 1372.11 502.736 1366.25 492.225 1360.01C481.519 1354.08 470.852 1347.63 460.299 1340.55C449.709 1333.5 439.638 1325.82 430.142 1317.47C420.812 1308.94 412.176 1299.6 404.314 1289.49C396.767 1279.03 390.058 1267.75 384.24 1255.72C378.82 1243.27 374.334 1230.11 370.771 1216.34C367.631 1202.2 365.404 1187.51 364.087 1172.43C363.137 1157.03 363.04 1141.31 363.739 1125.41C364.706 1109.26 366.386 1092.96 368.707 1076.61C371.133 1060.02 374.081 1043.38 377.489 1026.72C380.832 1009.77 384.501 992.731 388.413 975.663C392.11 958.228 395.971 940.688 399.942 923.07C403.634 905.066 407.4 886.982 411.255 868.931C414.866 850.581 418.626 832.369 422.569 814.437C426.44 796.472 430.615 778.966 435.179 762.121C439.888 745.584 445.117 729.901 450.933 715.191C457.043 701.037 463.801 687.959 471.233 676.029C478.949 664.612 487.279 654.24 496.17 644.853C505.182 635.672 514.369 627.411 523.637 619.906C532.758 612.179 541.821 604.975 550.721 598.2C559.335 590.94 567.761 584.038 575.962 577.519C583.886 570.53 591.646 564.027 599.292 558.128C606.792 551.951 614.281 546.582 621.794 542.08C629.368 537.653 637.061 534.284 644.925 532.032C652.998 530.048 661.276 529.268 669.777 529.667C678.549 530.408 687.536 532.283 696.705 535.234C706.146 538.414 715.745 542.541 725.431 547.524C735.358 552.593 745.358 558.348 755.361 564.728C765.565 570.977 775.775 577.738 785.921 584.921C796.252 591.86 806.538 599.165 816.718 606.79C827.067 614.113 837.346 621.758 847.509 629.709C857.823 637.356 868.029 645.38 878.083 653.764C888.25 661.928 898.252 670.55 908.055 679.657C917.923 688.641 927.525 698.204 936.815 708.387" stroke="url(#paint14_linear_384_4430)" stroke-opacity="0.4" stroke-width="2.5" stroke-linecap="round" stroke-dasharray="21 2"/>
<path opacity="0.44" d="M928.066 747.615C936.323 757.704 943.943 768.023 950.909 778.541C957.787 789.173 963.955 800.024 969.399 811.064C974.673 822.22 979.176 833.571 982.895 845.03C986.417 856.615 989.128 868.318 991.051 880.057C992.759 891.92 993.686 903.834 993.871 915.777C993.883 927.892 993.221 940.104 991.941 952.363C990.603 964.984 988.764 977.813 986.511 990.921C984.368 1004.59 981.978 1018.73 979.411 1033.41C977.145 1048.93 974.843 1065.16 972.596 1082.13C970.742 1100.05 968.966 1118.74 967.293 1138.11C965.946 1158.2 964.572 1178.74 963.105 1199.45C961.668 1220.28 959.872 1240.76 957.551 1260.53C954.835 1279.54 951.279 1297.22 946.759 1313.24C941.462 1327.81 935.026 1340.35 927.403 1350.73C918.989 1359.6 909.485 1366.51 899.051 1371.67C888.237 1376.09 876.888 1379.52 865.277 1382.39C853.98 1385.85 843.146 1389.58 833 1393.86C823.67 1399.72 815.189 1406.44 807.562 1413.97C800.784 1423.11 794.69 1432.74 789.173 1442.52C784.118 1453.16 779.285 1463.28 774.522 1472.55C767.203 1485.48 750.375 1501.89 740.49 1504.6C733.213 1504.69 725.482 1502.91 717.389 1499.38C708.833 1495.03 700.019 1489.28 691.045 1482.33C681.785 1475.02 672.47 1466.85 663.204 1458.05C653.759 1449.34 644.419 1440.27 635.199 1430.99C625.866 1422.09 616.652 1413.17 607.581 1404.26C598.342 1395.89 589.195 1387.63 580.115 1379.47C570.827 1371.89 561.542 1364.4 552.29 1356.98C542.779 1350.08 533.251 1343.17 523.726 1336.21C513.969 1329.66 504.222 1322.93 494.552 1315.97C484.714 1309.26 475.025 1302.17 465.553 1294.65C456.061 1287.15 447.118 1279.25 438.779 1270.93C430.568 1262.44 423.057 1253.44 416.318 1243.93C409.813 1234.13 404.127 1223.8 399.277 1212.95C394.754 1201.78 391.102 1190.1 388.316 1178C385.867 1165.57 384.264 1152.74 383.493 1139.61C383.003 1126.17 383.281 1112.43 384.284 1098.5C385.479 1084.25 387.299 1069.81 389.699 1055.21C392.163 1040.3 395.072 1025.2 398.395 1009.97C401.635 994.338 405.184 978.536 408.957 962.598C412.558 946.234 416.341 929.713 420.248 913.083C423.96 896.08 427.794 879.025 431.759 862.033C435.593 844.822 439.613 827.81 443.847 811.144C448.088 794.522 452.647 778.448 457.585 763.101C462.684 748.093 468.26 733.971 474.36 720.884C480.717 708.32 487.647 696.857 495.131 686.519C502.864 676.689 511.12 667.894 519.839 660.083C528.655 652.458 537.597 645.735 546.571 639.801C555.433 633.622 564.217 627.987 572.848 622.785C581.22 617.086 589.407 611.759 597.366 606.752C605.069 601.222 612.583 596.119 619.941 591.476C627.132 586.48 634.237 582.141 641.301 578.479C651.906 573.337 673.651 567.867 684.953 567.82C692.768 568.378 700.753 569.988 708.894 572.591C717.299 575.449 725.854 579.227 734.511 583.862C743.431 588.623 752.458 594.127 761.517 600.291C770.829 606.466 780.161 613.185 789.481 620.388C799.017 627.466 808.518 634.953 817.953 642.785C827.57 650.46 837.113 658.438 846.528 666.738C856.101 674.834 865.536 683.237 874.781 691.966C884.153 700.53 893.313 709.446 902.198 718.72C911.151 727.932 919.789 737.552 928.058 747.6" stroke="url(#paint15_linear_384_4430)" stroke-opacity="0.4" stroke-width="2.5" stroke-linecap="round" stroke-dasharray="8 2"/>
<path opacity="0.47" d="M915.366 779.925C922.604 789.674 929.228 799.557 935.229 809.487C941.147 819.511 946.401 829.629 950.973 839.836C957.283 855.342 966.195 886.942 968.8 903.008C970.53 919.461 970.773 953.407 969.521 971.102C968.54 983.423 967.159 996.103 965.465 1009.19C963.892 1022.89 962.101 1037.14 960.17 1051.96C958.449 1067.52 956.643 1083.74 954.793 1100.58C953.166 1118.11 951.479 1136.16 949.732 1154.62C948.101 1173.47 946.279 1192.42 944.199 1211.22C941.998 1229.85 939.339 1247.88 936.127 1264.97C932.497 1281.23 928.122 1296.11 922.881 1309.36C917.041 1321.31 910.274 1331.42 902.578 1339.62C894.295 1346.58 885.197 1351.85 875.404 1355.61C865.356 1358.83 854.896 1361.14 844.235 1362.92C833.829 1365.26 823.796 1367.68 814.288 1370.49C805.412 1374.64 797.196 1379.47 789.671 1384.94C782.812 1391.86 776.566 1399.21 770.848 1406.82C763.074 1419.46 748.726 1442.55 741.484 1451.5C733.708 1458.3 716.097 1462.71 706.203 1460.26C699.1 1457.38 691.717 1453.11 684.132 1447.58C676.217 1441.61 668.145 1434.66 659.997 1426.92C651.587 1419.07 643.139 1410.69 634.713 1401.91C626.053 1393.27 617.431 1384.44 608.866 1375.5C600.094 1366.89 591.351 1358.28 582.686 1349.7C573.781 1341.52 564.934 1333.4 556.135 1325.35C547.108 1317.65 538.133 1310 529.248 1302.34C520.171 1294.98 511.183 1287.54 502.362 1279.99C493.414 1272.6 484.672 1264.98 476.22 1257.1C467.739 1249.22 459.843 1241.15 452.541 1232.87C445.342 1224.46 438.829 1215.74 433.019 1206.73C427.404 1197.5 422.559 1187.93 418.484 1178.05C413.129 1162.64 406.704 1129.81 405.562 1112.49C405.253 1100.51 405.633 1088.28 406.635 1075.84C407.783 1063.03 409.489 1050 411.681 1036.76C413.922 1023.11 416.585 1009.25 419.605 995.185C422.568 980.685 425.826 965.971 429.319 951.086C432.716 935.789 436.303 920.323 440.061 904.786C443.713 888.948 447.54 873.083 451.544 857.362C455.498 841.5 459.689 825.911 464.131 810.73C468.622 795.689 473.446 781.234 478.632 767.529C483.981 754.209 489.776 741.789 496.019 730.37C502.49 719.482 509.448 709.648 516.861 700.903C524.492 692.628 532.555 685.322 540.992 678.999C549.512 672.854 558.119 667.578 566.726 663.02C575.259 658.3 583.688 654.071 591.974 650.28C600.075 646.056 607.973 642.141 615.659 638.517C626.77 632.498 647.833 621.664 657.932 617.203C667.902 613.04 687.933 608.456 698.15 608.303C705.161 608.633 712.281 609.88 719.502 612.029C726.943 614.346 734.516 617.53 742.179 621.553C750.092 625.711 758.095 630.609 766.148 636.194C774.442 641.825 782.784 648.07 791.14 654.822C799.696 661.565 808.244 668.766 816.745 676.343C825.424 683.864 834.042 691.729 842.527 699.919C851.179 707.993 859.673 716.373 867.983 725.037C876.412 733.616 884.601 742.494 892.508 751.647C900.474 760.757 908.11 770.173 915.358 779.909" stroke="url(#paint16_linear_384_4430)" stroke-opacity="0.4" stroke-width="2.5" stroke-linecap="round" stroke-dasharray="16 6"/>
<path opacity="0.7" d="M900.73 807.885C907.008 817.187 912.725 826.557 917.884 835.967C925.227 850.222 936.813 879.177 941.05 893.932C944.525 909.006 948.513 940.153 949.154 956.357C949.381 967.57 949.164 979.066 948.559 990.908C947.97 1003.16 947.063 1015.86 945.882 1029C944.767 1042.67 943.452 1056.85 941.955 1071.55C940.558 1086.79 939.011 1102.52 937.325 1118.65C935.702 1135.19 933.921 1152.01 931.93 1168.95C929.921 1185.96 927.611 1202.82 924.945 1219.25C922.1 1235.31 918.762 1250.61 914.875 1264.9C910.62 1278.32 905.709 1290.42 900.089 1301C894.004 1310.48 887.196 1318.33 879.665 1324.55C871.73 1329.78 863.188 1333.59 854.136 1336.11C844.915 1338.25 835.395 1339.62 825.708 1340.47C816.203 1341.81 807.012 1343.13 798.21 1344.71C789.871 1347.38 782.046 1350.54 774.776 1354.21C764.879 1361.78 747.966 1379.7 740.554 1389C733.532 1398.33 719.478 1412.55 712.091 1416.6C704.159 1418.6 686.722 1415.07 677.229 1409.79C670.534 1405.44 663.655 1400.08 656.648 1393.86C649.369 1387.4 641.98 1380.28 634.527 1372.62C626.82 1364.93 619.072 1356.88 611.305 1348.56C603.325 1340.39 595.329 1332.06 587.366 1323.63C579.188 1315.42 571.04 1307.2 562.951 1298.95C554.669 1290.96 546.448 1282.93 538.364 1274.91C530.105 1267.09 521.973 1259.22 514.054 1251.27C506.035 1243.44 498.247 1235.48 490.771 1227.32C483.28 1219.2 476.334 1211 469.96 1202.73C463.664 1194.35 457.994 1185.84 452.971 1177.17C446.004 1163.8 435.747 1135.74 432.484 1121C430.165 1105.61 428.956 1073.2 429.918 1056.18C430.843 1044.42 432.265 1032.39 434.124 1020.14C436.025 1007.51 438.32 994.625 440.939 981.531C443.555 968.058 446.459 954.365 449.632 940.518C452.743 926.33 456.097 912.037 459.667 897.716C463.201 883.194 466.956 868.734 470.953 854.459C474.942 840.166 479.2 826.198 483.735 812.689C488.369 799.388 493.322 786.718 498.622 774.793C504.08 763.256 509.924 752.592 516.166 742.907C522.601 733.694 529.441 725.478 536.675 718.268C544.071 711.491 551.816 705.648 559.873 700.68C568.015 695.888 576.191 691.92 584.356 688.631C592.467 685.206 600.49 682.275 608.379 679.718C616.124 676.807 623.689 674.197 631.072 671.843C641.778 667.744 662.071 660.321 671.754 657.234C681.228 654.192 699.958 650.761 709.323 650.643C718.884 651.303 738.555 656.573 748.683 661.188C755.653 664.616 762.693 668.736 769.779 673.524C777.076 678.385 784.398 683.865 791.739 689.874C799.276 695.921 806.795 702.441 814.276 709.427C821.921 716.368 829.508 723.724 836.985 731.406C844.597 739.047 852.079 747.035 859.367 755.29C866.761 763.509 873.929 772.028 880.834 780.791C887.796 789.544 894.434 798.577 900.723 807.868" stroke="url(#paint17_linear_384_4430)" stroke-opacity="0.4" stroke-width="2.5" stroke-linecap="round" stroke-dasharray="14 18"/>
<path opacity="0.35" d="M885.805 834.945C893.64 848.179 906.865 875.156 912.205 888.922C918.778 907.623 923.355 926.943 926.095 946.88C928.566 967.699 929.387 989.659 928.818 1012.87C928.236 1037.53 926.52 1063.83 923.908 1091.55C921.366 1120.61 917.884 1150.55 913.383 1180.34C908.474 1209.63 902.012 1236.9 893.731 1260.53C884.21 1281.05 872.438 1296.48 858.484 1306.28C851.066 1309.98 843.198 1312.54 834.949 1314.03C826.608 1315.26 818.04 1315.81 809.339 1315.91C800.758 1316.39 792.42 1316.81 784.394 1317.37C776.678 1318.8 769.355 1320.55 762.447 1322.69C749.722 1330.04 738.473 1338.38 728.455 1346.78C719.057 1357 709.982 1364.98 700.935 1369.75C691.353 1373.6 681.218 1373.15 670.535 1368.59C658.875 1362.59 646.605 1353.03 633.968 1340.77C620.365 1328.05 606.492 1313.54 592.609 1297.98C577.908 1282.83 563.307 1267.06 549.129 1250.96C541.83 1243.12 534.664 1235.16 527.706 1227.13C520.653 1219.16 513.848 1211.07 507.328 1202.84C500.786 1194.62 494.75 1186.4 489.226 1178.13C483.756 1169.82 478.836 1161.41 474.485 1152.96C466.114 1135.6 460.127 1117.65 456.446 1099.12C453.327 1079.63 452.413 1059.3 453.468 1038.18C454.877 1015.81 457.959 992.483 462.426 968.458C466.975 943.232 472.686 917.459 479.424 891.743C486.217 865.609 494.099 840.282 503.066 816.73C512.432 794.137 523.122 774.235 535.148 757.798C541.4 750.252 547.988 743.607 554.899 737.87C561.937 732.528 569.267 728.008 576.861 724.312C584.512 720.773 592.19 717.969 599.843 715.787C607.453 713.526 615.002 711.711 622.416 710.292C636.939 706.436 650.868 703.613 664.065 701.645C676.81 698.077 689.057 695.733 700.86 694.886C712.64 693.278 724.332 693.841 735.983 696.742C748.045 699.693 760.283 705.226 772.583 713.188C785.489 721.374 798.485 731.78 811.306 744.068C824.686 756.412 837.779 770.367 850.26 785.671C856.618 793.288 862.792 801.205 868.726 809.429C874.698 817.64 880.406 826.133 885.799 834.927" stroke="url(#paint18_linear_384_4430)" stroke-opacity="0.4" stroke-width="2.5" stroke-linecap="round" stroke-dasharray="25 13"/>
<path opacity="0.89" d="M871.434 864.244C880.57 880.786 888.103 898.002 894.041 915.73C899.76 933.759 903.859 952.631 906.464 972.295C908.847 992.664 909.835 1014.19 909.588 1036.81C909.215 1060.39 907.725 1085.16 905.201 1110.66C902.52 1136.71 898.724 1162.8 893.746 1187.96C888.245 1212.11 881.243 1233.86 872.621 1252.11C863.066 1267.66 851.727 1278.9 838.741 1285.48C825.071 1289.94 810.227 1291.1 794.718 1289.92C779.58 1289.99 765.279 1290.11 752.143 1291.08C740.02 1295.28 729.029 1300.31 719.06 1305.59C709.664 1312.85 700.72 1318.78 692.028 1322.65C683.11 1326.38 673.957 1327.01 664.535 1324.38C654.431 1320.83 643.877 1314.17 633.038 1304.85C621.396 1294.99 609.483 1283.1 597.523 1269.68C584.892 1256.34 572.319 1241.95 560.104 1226.79C547.454 1211.92 535.384 1196.32 524.273 1180.06C513.094 1163.86 503.684 1147.49 496.129 1130.94C488.884 1114.01 483.615 1096.57 480.289 1078.69C477.365 1060.05 476.317 1040.67 476.956 1020.65C477.926 999.694 480.402 977.979 484.2 955.829C488.185 932.91 493.383 909.795 499.659 887.058C506.139 864.297 513.755 842.604 522.451 822.76C531.555 803.963 541.875 787.734 553.346 774.637C565.302 763.065 578.368 754.588 592.358 749.24C606.543 744.478 620.695 742.039 634.529 741.272C648.096 739.55 661.197 738.79 673.684 738.79C685.834 737.332 697.511 736.817 708.72 737.353C719.851 736.945 730.783 738.14 741.494 741.09C752.462 743.775 763.433 748.532 774.316 755.343C785.626 762.16 796.906 771.032 807.968 781.721C819.434 792.435 830.61 804.821 841.254 818.688C852.119 832.496 862.27 847.701 871.428 864.226" stroke="url(#paint19_linear_384_4430)" stroke-opacity="0.4" stroke-width="2.5" stroke-linecap="round" stroke-dasharray="22 19"/>
<path opacity="0.88" d="M857.512 897.353C865.165 912.796 871.504 929.102 876.547 946.084C881.42 963.308 884.96 981.43 887.234 1000.34C889.316 1019.72 890.172 1040.04 889.889 1061.11C889.419 1082.66 887.834 1104.8 885.174 1127.04C882.238 1149.21 878.153 1170.8 872.865 1190.96C867.102 1209.88 859.984 1226.44 851.509 1239.78C842.391 1251.01 831.885 1258.69 820.152 1262.65C808.014 1265.19 794.977 1265.1 781.406 1263.04C768.082 1261.96 755.32 1260.67 743.372 1259.81C732.072 1261.45 721.596 1263.65 711.906 1266.12C702.653 1270.46 693.87 1274.08 685.433 1276.44C676.931 1279.24 668.427 1279.89 659.872 1278.21C650.891 1276.11 641.673 1271.5 632.306 1264.54C622.377 1257.18 612.253 1247.77 602.123 1236.67C591.478 1225.49 580.905 1212.92 570.673 1199.24C560.092 1185.7 550.007 1171.11 540.726 1155.61C531.411 1140.13 523.535 1124.31 517.186 1108.23C511.053 1091.92 506.55 1075.1 503.632 1057.88C501.031 1040.18 499.997 1021.85 500.423 1003.1C501.144 983.746 503.223 963.956 506.545 944.024C510.106 923.74 514.85 903.612 520.677 884.143C526.776 864.974 533.967 847.021 542.198 830.927C550.784 815.86 560.441 803.133 571.111 793.151C582.113 784.428 594.074 778.401 606.8 775.065C619.674 772.24 632.531 771.491 645.14 772.252C657.591 772.312 669.698 773.315 681.318 775.028C692.718 775.54 703.715 776.772 714.273 778.792C724.742 779.849 734.957 782.03 744.864 785.498C754.911 788.505 764.821 793.08 774.516 799.295C784.486 805.352 794.306 813.136 803.859 822.573C813.66 831.956 823.16 842.97 832.15 855.493C841.291 867.96 849.819 881.915 857.512 897.353Z" stroke="url(#paint20_linear_384_4430)" stroke-opacity="0.4" stroke-width="2.5" stroke-linecap="round" stroke-dasharray="9 21"/>
<path opacity="0.78" d="M843.18 933.599C849.48 947.851 854.682 962.983 858.785 978.805C862.772 994.776 865.616 1011.54 867.38 1028.91C868.964 1046.5 869.461 1064.71 868.914 1083.19C868.151 1101.8 866.335 1120.45 863.482 1138.68C860.353 1156.5 856.128 1173.33 850.837 1188.57C845.157 1202.65 838.333 1214.54 830.419 1223.7C822.086 1231.32 812.715 1236.14 802.418 1238.11C791.897 1239.18 780.669 1238.15 768.989 1235.51C757.465 1233.62 746.279 1231.32 735.629 1229.13C725.368 1228.76 715.653 1228.67 706.514 1228.75C697.662 1230.43 689.197 1231.73 681.092 1232.28C672.997 1233.55 665.014 1233.43 657.134 1231.71C649.018 1230.02 640.848 1226.44 632.69 1220.96C624.157 1215.31 615.575 1207.86 607.072 1198.75C598.227 1189.55 589.497 1178.87 581.101 1166.89C572.457 1154.95 564.256 1141.79 556.733 1127.49C549.174 1113.21 542.804 1098.4 537.666 1083.25C532.688 1067.97 529.024 1052.19 526.648 1036.07C524.523 1019.69 523.705 1002.89 524.132 985.877C524.814 968.612 526.697 951.176 529.695 933.912C532.946 916.636 537.287 899.781 542.644 883.811C548.251 868.299 554.882 854.071 562.449 841.581C570.29 830.023 579.077 820.494 588.697 813.332C598.563 807.161 609.221 803.231 620.554 801.628C631.975 800.423 643.403 801.019 654.663 802.982C665.83 804.466 676.772 806.88 687.362 809.956C697.807 812.134 707.948 814.946 717.696 818.358C727.381 820.933 736.799 824.313 745.888 828.639C755.04 832.4 763.978 837.319 772.624 843.482C781.413 849.375 789.98 856.644 798.21 865.309C806.584 873.832 814.62 883.815 822.15 895.223C829.772 906.56 836.839 919.348 843.18 933.599Z" stroke="url(#paint21_linear_384_4430)" stroke-opacity="0.4" stroke-width="2.5" stroke-linecap="round" stroke-dasharray="20 3"/>
<path opacity="0.7" d="M827.382 970.081C832.435 982.956 836.521 996.557 839.68 1010.66C842.748 1024.84 844.838 1039.54 845.983 1054.56C846.997 1069.6 847.039 1084.89 846.162 1100.07C845.101 1115.1 843.082 1129.81 840.148 1143.76C836.991 1157.21 832.891 1169.53 827.878 1180.31C822.622 1190.17 816.436 1198.17 809.396 1204C802.131 1208.79 794.058 1211.45 785.298 1211.98C776.419 1211.99 766.983 1210.38 757.134 1207.43C747.38 1205.01 737.8 1202.08 728.551 1199.01C719.515 1197.2 710.8 1195.41 702.475 1193.66C694.313 1193.1 686.451 1192.31 678.877 1191.05C671.333 1190.55 663.95 1189.19 656.754 1186.8C649.43 1184.66 642.184 1181.19 635.066 1176.37C627.737 1171.57 620.479 1165.31 613.402 1157.64C606.111 1149.95 599.021 1140.89 592.273 1130.57C585.368 1120.25 578.889 1108.7 572.994 1096C567.074 1083.3 562.134 1070.02 558.206 1056.35C554.364 1042.64 551.597 1028.51 549.883 1014.14C548.34 999.691 547.878 985.009 548.447 970.324C549.225 955.629 551.024 941.018 553.808 926.821C556.785 912.809 560.73 899.406 565.561 886.961C570.587 875.013 576.508 864.29 583.238 855.123C590.159 846.726 597.861 840.023 606.274 835.294C614.845 831.287 624.079 829.132 633.869 828.895C643.731 828.981 653.63 830.594 663.41 833.385C673.158 835.921 682.756 839.315 692.109 843.404C701.397 846.833 710.453 850.888 719.189 855.44C727.903 859.356 736.358 863.889 744.512 869.098C752.68 873.801 760.603 879.343 768.199 885.783C775.872 891.917 783.257 899.097 790.269 907.362C797.367 915.443 804.084 924.716 810.301 935.172C816.572 945.563 822.313 957.192 827.382 970.081Z" stroke="url(#paint22_linear_384_4430)" stroke-opacity="0.4" stroke-width="2.5" stroke-linecap="round" stroke-dasharray="9 9"/>
<path opacity="0.89" d="M809.337 1002.53C817.071 1025.08 821.464 1049.24 822.688 1073.47C823.536 1097.52 821.072 1120.8 815.576 1141.02C809.531 1159.57 800.394 1173.43 788.622 1180.76C776.417 1185.74 761.85 1184.85 745.669 1178.67C729.707 1173.95 714.091 1167.53 699.488 1160.71C685.204 1157.2 671.561 1152.3 658.883 1145.29C645.948 1139.59 633.476 1130.14 622.06 1116.63C610.13 1103.25 599.268 1085.51 590.462 1063.77C581.579 1042.03 576.047 1018.38 573.845 994.331C572.089 970.393 573.843 946.42 578.813 924.303C584.331 903.207 593.005 885.118 604.39 872.06C616.21 861.173 630.574 855.889 646.882 857.035C663.327 859.161 679.926 865.814 695.828 875.3C711.627 883.301 726.828 893.545 740.838 905.602C754.917 916.197 768.052 929.443 779.612 945.478C791.343 960.962 801.537 979.98 809.337 1002.53Z" stroke="url(#paint23_linear_384_4430)" stroke-opacity="0.4" stroke-width="2.5" stroke-linecap="round" stroke-dasharray="2 2"/>
<path opacity="0.2" d="M788.918 1026.69C794.556 1045.42 797.415 1064.42 797.735 1082.52C797.835 1100.36 795.307 1116.66 790.423 1129.92C785.263 1142.12 777.771 1150.49 768.328 1154.12C758.703 1156.6 747.295 1154.83 734.578 1149.05C721.953 1144.18 709.363 1137.37 697.378 1129.67C685.507 1123.98 674.046 1117.01 663.427 1108.68C652.684 1101.43 642.538 1091.81 633.509 1079.62C624.244 1067.65 616.092 1052.68 609.821 1034.95C603.485 1017.21 599.861 998.402 598.846 979.805C598.058 961.415 599.998 943.635 604.413 927.911C609.147 913.04 616.322 900.904 625.571 892.835C635.064 886.146 646.515 883.777 659.508 886.32C672.58 889.513 685.839 896.438 698.637 905.796C711.414 914.448 723.767 925.137 735.15 937.291C746.575 948.602 757.146 961.773 766.256 976.656C775.472 991.186 783.253 1007.95 788.918 1026.69Z" stroke="url(#paint24_linear_384_4430)" stroke-opacity="0.4" stroke-width="2.5" stroke-linecap="round" stroke-dasharray="11 8"/>
<path opacity="0.29" d="M766.708 1039.65C770.477 1054.07 772.146 1067.84 771.924 1080.19C770.517 1097.61 758.663 1120.54 748.818 1124.26C741.736 1125.22 733.368 1123.24 723.993 1118.3C714.639 1113.87 705.204 1107.59 696.123 1100.24C687.054 1093.87 678.243 1086.34 670.112 1077.85C661.907 1070.02 654.275 1060.73 647.681 1050.1C640.959 1039.65 635.278 1027.51 631.142 1013.93C626.968 1000.36 624.854 986.645 624.661 973.591C625.482 954.791 636.559 925.676 646.305 917.799C653.388 914.257 661.885 913.836 671.526 916.944C681.193 920.471 691.027 926.794 700.563 935.08C710.084 943.126 719.333 952.909 727.823 963.82C736.328 974.366 744.136 986.212 750.761 998.931C757.427 1011.5 762.915 1025.23 766.708 1039.65Z" stroke="url(#paint25_linear_384_4430)" stroke-opacity="0.4" stroke-width="2.5" stroke-linecap="round" stroke-dasharray="4 26"/>
<path opacity="0.67" d="M743.715 1040.87C747.523 1068.15 731.333 1093.24 714.238 1086.25C701.976 1079.64 689.286 1067.4 678.535 1052.9C667.659 1039.48 658.547 1022.46 653.823 1003.92C649.062 985.399 649.81 968.787 654.964 957.669C660.267 947.364 669.929 943.621 682.519 949.123C695.14 955.346 708.231 968.846 719.229 985.475C730.269 1001.76 739.297 1021.37 743.715 1040.87Z" stroke="url(#paint26_linear_384_4430)" stroke-opacity="0.4" stroke-width="2.5" stroke-linecap="round" stroke-dasharray="24 3"/>
</g>
<defs>
<linearGradient id="paint0_linear_384_4430" x1="711.591" y1="36.579" x2="711.591" y2="2059.91" gradientUnits="userSpaceOnUse">
<stop stop-color="white"/>
<stop offset="1" stop-color="#EAE7FF"/>
</linearGradient>
<linearGradient id="paint1_linear_384_4430" x1="746.793" y1="74.1051" x2="566.64" y2="2012.95" gradientUnits="userSpaceOnUse">
<stop stop-color="white"/>
<stop offset="1" stop-color="#EAE7FF"/>
</linearGradient>
<linearGradient id="paint2_linear_384_4430" x1="779.2" y1="114.607" x2="437.84" y2="1945.13" gradientUnits="userSpaceOnUse">
<stop stop-color="white"/>
<stop offset="1" stop-color="#EAE7FF"/>
</linearGradient>
<linearGradient id="paint3_linear_384_4430" x1="808.716" y1="157.738" x2="329.387" y2="1861.36" gradientUnits="userSpaceOnUse">
<stop stop-color="white"/>
<stop offset="1" stop-color="#EAE7FF"/>
</linearGradient>
<linearGradient id="paint4_linear_384_4430" x1="835.27" y1="203.088" x2="243.607" y2="1767.3" gradientUnits="userSpaceOnUse">
<stop stop-color="white"/>
<stop offset="1" stop-color="#EAE7FF"/>
</linearGradient>
<linearGradient id="paint5_linear_384_4430" x1="858.819" y1="250.237" x2="180.95" y2="1668.62" gradientUnits="userSpaceOnUse">
<stop stop-color="white"/>
<stop offset="1" stop-color="#EAE7FF"/>
</linearGradient>
<linearGradient id="paint6_linear_384_4430" x1="879.34" y1="298.776" x2="140.281" y2="1570.38" gradientUnits="userSpaceOnUse">
<stop stop-color="white"/>
<stop offset="1" stop-color="#EAE7FF"/>
</linearGradient>
<linearGradient id="paint7_linear_384_4430" x1="896.756" y1="348.562" x2="120.119" y2="1475.65" gradientUnits="userSpaceOnUse">
<stop stop-color="white"/>
<stop offset="1" stop-color="#EAE7FF"/>
</linearGradient>
<linearGradient id="paint8_linear_384_4430" x1="910.358" y1="398.08" x2="114.477" y2="1389.67" gradientUnits="userSpaceOnUse">
<stop stop-color="white"/>
<stop offset="1" stop-color="#EAE7FF"/>
</linearGradient>
<linearGradient id="paint9_linear_384_4430" x1="921.995" y1="448.588" x2="124.189" y2="1312.76" gradientUnits="userSpaceOnUse">
<stop stop-color="white"/>
<stop offset="1" stop-color="#EAE7FF"/>
</linearGradient>
<linearGradient id="paint10_linear_384_4430" x1="930.411" y1="498.853" x2="144.169" y2="1245.96" gradientUnits="userSpaceOnUse">
<stop stop-color="white"/>
<stop offset="1" stop-color="#EAE7FF"/>
</linearGradient>
<linearGradient id="paint11_linear_384_4430" x1="935.886" y1="548.602" x2="171.787" y2="1189.55" gradientUnits="userSpaceOnUse">
<stop stop-color="white"/>
<stop offset="1" stop-color="#EAE7FF"/>
</linearGradient>
<linearGradient id="paint12_linear_384_4430" x1="938.491" y1="597.469" x2="204.628" y2="1143.13" gradientUnits="userSpaceOnUse">
<stop stop-color="white"/>
<stop offset="1" stop-color="#EAE7FF"/>
</linearGradient>
<linearGradient id="paint13_linear_384_4430" x1="729.151" y1="611.477" x2="31.5324" y2="1072.31" gradientUnits="userSpaceOnUse">
<stop stop-color="white"/>
<stop offset="1" stop-color="#EAE7FF"/>
</linearGradient>
<linearGradient id="paint14_linear_384_4430" x1="935.376" y1="691.058" x2="278.345" y2="1076.88" gradientUnits="userSpaceOnUse">
<stop stop-color="white"/>
<stop offset="1" stop-color="#EAE7FF"/>
</linearGradient>
<linearGradient id="paint15_linear_384_4430" x1="929.803" y1="734.957" x2="316.379" y2="1054.82" gradientUnits="userSpaceOnUse">
<stop stop-color="white"/>
<stop offset="1" stop-color="#EAE7FF"/>
</linearGradient>
<linearGradient id="paint16_linear_384_4430" x1="921.779" y1="776.565" x2="353.967" y2="1038.75" gradientUnits="userSpaceOnUse">
<stop stop-color="white"/>
<stop offset="1" stop-color="#EAE7FF"/>
</linearGradient>
<linearGradient id="paint17_linear_384_4430" x1="910.927" y1="816.316" x2="391.471" y2="1027.71" gradientUnits="userSpaceOnUse">
<stop stop-color="white"/>
<stop offset="1" stop-color="#EAE7FF"/>
</linearGradient>
<linearGradient id="paint18_linear_384_4430" x1="899.002" y1="851.852" x2="425.869" y2="1020.36" gradientUnits="userSpaceOnUse">
<stop stop-color="white"/>
<stop offset="1" stop-color="#EAE7FF"/>
</linearGradient>
<linearGradient id="paint19_linear_384_4430" x1="884.67" y1="885.334" x2="459.395" y2="1016.58" gradientUnits="userSpaceOnUse">
<stop stop-color="white"/>
<stop offset="1" stop-color="#EAE7FF"/>
</linearGradient>
<linearGradient id="paint20_linear_384_4430" x1="868.487" y1="915.324" x2="491.122" y2="1014.85" gradientUnits="userSpaceOnUse">
<stop stop-color="white"/>
<stop offset="1" stop-color="#EAE7FF"/>
</linearGradient>
<linearGradient id="paint21_linear_384_4430" x1="850.727" y1="941.803" x2="521.142" y2="1014.64" gradientUnits="userSpaceOnUse">
<stop stop-color="white"/>
<stop offset="1" stop-color="#EAE7FF"/>
</linearGradient>
<linearGradient id="paint22_linear_384_4430" x1="831.572" y1="964.563" x2="549.577" y2="1015.31" gradientUnits="userSpaceOnUse">
<stop stop-color="white"/>
<stop offset="1" stop-color="#EAE7FF"/>
</linearGradient>
<linearGradient id="paint23_linear_384_4430" x1="811.207" y1="983.784" x2="576.679" y2="1016.69" gradientUnits="userSpaceOnUse">
<stop stop-color="white"/>
<stop offset="1" stop-color="#EAE7FF"/>
</linearGradient>
<linearGradient id="paint24_linear_384_4430" x1="789.897" y1="998.549" x2="602.467" y2="1017.6" gradientUnits="userSpaceOnUse">
<stop stop-color="white"/>
<stop offset="1" stop-color="#EAE7FF"/>
</linearGradient>
<linearGradient id="paint25_linear_384_4430" x1="767.822" y1="1009.24" x2="627.341" y2="1018.19" gradientUnits="userSpaceOnUse">
<stop stop-color="white"/>
<stop offset="1" stop-color="#EAE7FF"/>
</linearGradient>
<linearGradient id="paint26_linear_384_4430" x1="743.377" y1="1013.9" x2="651.56" y2="1016.31" gradientUnits="userSpaceOnUse">
<stop stop-color="white"/>
<stop offset="1" stop-color="#EAE7FF"/>
</linearGradient>
</defs>
</svg>
