<svg width="175" height="175" viewBox="0 0 175 175" fill="none" xmlns="http://www.w3.org/2000/svg">
<g clip-path="url(#clip0_4300_1603)">
<path d="M133.984 0H41.0156C18.3633 0 0 18.3633 0 41.0156V133.984C0 156.637 18.3633 175 41.0156 175H133.984C156.637 175 175 156.637 175 133.984V41.0156C175 18.3633 156.637 0 133.984 0Z" fill="#512BD4"/>
<path d="M16.4418 115.488C14.9128 115.488 13.6133 114.988 12.5433 113.989C11.4728 112.963 10.9375 111.744 10.9375 110.333C10.9375 108.897 11.4728 107.666 12.5433 106.64C13.6133 105.615 14.9128 105.102 16.4418 105.101C17.9963 105.101 19.3088 105.614 20.3793 106.64C21.4749 107.666 22.0227 108.897 22.0227 110.333C22.0227 111.744 21.4749 112.963 20.3793 113.989C19.3088 114.988 17.9963 115.488 16.4418 115.488ZM77.5653 114.642H67.6272L41.4429 74.0927C40.7902 73.0854 40.2397 72.0155 39.7995 70.8989H39.5698C39.7735 72.0793 39.8754 74.6056 39.8754 78.4779V114.642H31.0837V59.4727H41.6719L66.9771 99.0609C68.0477 100.702 68.7358 101.831 69.0416 102.447H69.194C68.9393 100.985 68.8119 98.5095 68.8119 95.0209V59.4727H77.5653V114.642ZM120.379 114.642H89.6082V59.4727H119.157V67.2444H98.7062V82.8639H117.551V90.5967H98.7062V106.909H120.379V114.642ZM164.111 67.2444H148.362V114.642H139.264V67.2444H123.554V59.4727H164.111V67.2444Z" fill="white"/>
</g>
<defs>
<clipPath id="clip0_4300_1603">
<rect width="175" height="175" fill="white"/>
</clipPath>
</defs>
</svg>
