<svg width="175" height="175" viewBox="0 0 175 175" fill="none" xmlns="http://www.w3.org/2000/svg">
<g clip-path="url(#clip0_4300_1591)">
<path d="M133.984 0H41.0156C18.3633 0 0 18.3633 0 41.0156V133.984C0 156.637 18.3633 175 41.0156 175H133.984C156.637 175 175 156.637 175 133.984V41.0156C175 18.3633 156.637 0 133.984 0Z" fill="#00B4E0"/>
<path d="M27.6855 77.406C27.4121 77.406 27.3438 77.2693 27.4805 77.0642L28.916 75.2185C29.0527 75.0135 29.3945 74.8767 29.668 74.8767H54.0723C54.3457 74.8767 54.4141 75.0818 54.2773 75.2869L53.1152 77.0642C52.9785 77.2693 52.6367 77.4744 52.4316 77.4744L27.6855 77.406ZM17.3633 83.6951C17.0898 83.6951 17.0215 83.5584 17.1582 83.3533L18.5938 81.5076C18.7305 81.3025 19.0723 81.1658 19.3457 81.1658H50.5176C50.791 81.1658 50.9277 81.3709 50.8594 81.576L50.3125 83.2166C50.2441 83.49 49.9707 83.6267 49.6973 83.6267L17.3633 83.6951ZM33.9062 89.9842C33.6328 89.9842 33.5645 89.7791 33.7012 89.574L34.6582 87.865C34.7949 87.6599 35.0684 87.4549 35.3418 87.4549H49.0137C49.2871 87.4549 49.4238 87.6599 49.4238 87.9334L49.2871 89.574C49.2871 89.8474 49.0137 90.0525 48.8086 90.0525L33.9062 89.9842ZM104.863 76.1756C100.557 77.2693 97.6172 78.0896 93.3789 79.1834C92.3535 79.4568 92.2852 79.5252 91.3965 78.4998C90.3711 77.3377 89.6191 76.5857 88.1836 75.9021C83.877 73.783 79.707 74.3982 75.8105 76.9275C71.1621 79.9353 68.7695 84.3787 68.8379 89.9158C68.9062 95.3845 72.666 99.8963 78.0664 100.648C82.7148 101.263 86.6113 99.6228 89.6875 96.1365C90.3027 95.3845 90.8496 94.5642 91.5332 93.6072H78.3398C76.9043 93.6072 76.5625 92.7185 77.041 91.5564C77.9297 89.4373 79.5703 85.8826 80.5273 84.1052C80.7324 83.6951 81.2109 83.0115 82.2363 83.0115H107.119C106.982 84.8572 106.982 86.7029 106.709 88.5486C105.957 93.4705 104.111 97.9822 101.104 101.947C96.1816 108.441 89.7559 112.474 81.6211 113.568C74.9219 114.457 68.7012 113.158 63.2324 109.056C58.1738 105.228 55.3027 100.17 54.5508 93.8806C53.6621 86.4295 55.8496 79.7302 60.3613 73.8513C65.2148 67.4939 71.6406 63.4607 79.502 62.0252C85.9277 60.8631 92.0801 61.615 97.6172 65.3748C101.24 67.7674 103.838 71.0486 105.547 75.0135C105.957 75.6287 105.684 75.9705 104.863 76.1756Z" fill="white"/>
<path d="M127.491 113.978C121.27 113.842 115.596 112.064 110.811 107.963C106.778 104.476 104.249 100.033 103.428 94.7694C102.198 87.0448 104.317 80.2088 108.965 74.1248C113.956 67.5623 119.971 64.1444 128.106 62.7088C135.079 61.4784 141.641 62.162 147.588 66.1952C152.989 69.8866 156.338 74.8768 157.227 81.4393C158.389 90.6678 155.723 98.1873 149.366 104.613C144.854 109.193 139.317 112.064 132.96 113.363C131.114 113.705 129.268 113.773 127.491 113.978ZM143.76 86.3612C143.692 85.4725 143.692 84.7889 143.555 84.1053C142.325 77.3377 136.104 73.5096 129.61 75.0135C123.252 76.4491 119.151 80.4823 117.647 86.908C116.417 92.2401 119.014 97.6405 123.936 99.828C127.696 101.469 131.456 101.264 135.079 99.4178C140.479 96.6151 143.418 92.2401 143.76 86.3612Z" fill="white"/>
</g>
<defs>
<clipPath id="clip0_4300_1591">
<rect width="175" height="175" fill="white"/>
</clipPath>
</defs>
</svg>
