<svg width="264" height="264" viewBox="0 0 264 264" fill="none" xmlns="http://www.w3.org/2000/svg">
<path d="M108.451 139.873C108.451 139.873 101.678 143.814 113.28 145.147C127.334 146.751 134.517 146.52 150.003 143.594C150.003 143.594 154.084 146.145 159.769 148.356C125.044 163.233 81.179 147.494 108.451 139.873ZM104.205 120.454C104.205 120.454 96.6065 126.083 108.216 127.283C123.231 128.832 135.085 128.96 155.611 125.008C155.611 125.008 158.442 127.888 162.904 129.457C120.928 141.737 74.1727 130.424 104.205 120.454Z" fill="#0074BD"/>
<path d="M139.976 87.5137C148.538 97.3684 137.732 106.229 137.732 106.229C137.732 106.229 159.456 95.0151 149.48 80.9674C140.16 67.8726 133.017 61.3695 171.695 38.9377C171.695 38.9377 110.979 54.0971 139.976 87.5137Z" fill="#EA2D2E"/>
<path d="M185.895 154.236C185.895 154.236 190.911 158.371 180.372 161.568C160.332 167.638 96.9558 169.47 79.3524 161.809C73.0288 159.056 84.8944 155.236 88.6254 154.434C92.5174 153.59 94.7407 153.745 94.7407 153.745C87.7035 148.789 49.2523 163.478 75.2109 167.692C146.004 179.165 204.255 162.523 185.895 154.236ZM111.707 100.335C111.707 100.335 79.472 107.993 100.293 110.777C109.087 111.953 126.606 111.682 142.937 110.313C156.28 109.193 169.669 106.798 169.669 106.798C169.669 106.798 164.969 108.816 161.564 111.138C128.824 119.749 65.5894 115.737 83.795 106.935C99.1875 99.4869 111.707 100.335 111.707 100.335ZM169.535 132.654C202.814 115.366 187.425 98.7506 176.686 100.988C174.06 101.537 172.881 102.011 172.881 102.011C172.881 102.011 173.86 100.477 175.723 99.8189C196.971 92.3527 213.308 121.849 168.871 133.531C168.871 133.531 169.381 133.069 169.535 132.654Z" fill="#0074BD"/>
<path d="M149.478 2.70801C149.478 2.70801 167.907 21.1447 131.996 49.4896C103.2 72.2328 125.429 85.1977 131.984 100.017C115.175 84.8491 102.845 71.4965 111.116 59.072C123.262 40.8354 156.911 31.9893 149.478 2.70801Z" fill="#EA2D2E"/>
<path d="M114.99 179.518C146.926 181.56 195.982 178.381 197.143 163.269C197.143 163.269 194.912 168.997 170.745 173.543C143.483 178.674 109.854 178.078 89.9141 174.786C89.9141 174.786 93.9978 178.169 114.99 179.518Z" fill="#0074BD"/>
<path d="M195.664 206.624H194.69V206.079H197.31V206.624H196.34V209.34H195.662L195.664 206.624ZM200.892 206.76H200.88L199.915 209.34H199.469L198.51 206.76H198.5V209.34H197.856V206.079H198.799L199.688 208.387L200.579 206.079H201.515V209.34H200.892V206.76ZM109.75 237.264C106.739 239.875 103.555 241.344 100.694 241.344C96.6227 241.344 94.4137 238.898 94.4137 234.981C94.4137 230.742 96.7773 227.638 106.248 227.638H109.748L109.75 237.264ZM118.064 246.644V217.61C118.064 210.188 113.83 205.291 103.633 205.291C97.6807 205.291 92.4626 206.764 88.22 208.637L89.441 213.778C92.7823 212.551 97.1032 211.413 101.344 211.413C107.222 211.413 109.748 213.778 109.748 218.675V222.344H106.811C92.5368 222.344 86.0957 227.882 86.0957 236.21C86.0957 243.386 90.3403 247.463 98.3325 247.463C103.468 247.463 107.306 245.343 110.889 242.239L111.541 246.646L118.064 246.644ZM145.809 246.644H135.441L122.961 206.036H132.017L139.764 230.99L141.486 238.487C145.397 227.642 148.169 216.633 149.555 206.038H158.364C156.006 219.405 151.757 234.084 145.809 246.644ZM185.591 237.264C182.569 239.875 179.383 241.344 176.532 241.344C172.457 241.344 170.25 238.898 170.25 234.981C170.25 230.742 172.62 227.638 182.08 227.638H185.589L185.591 237.264ZM193.909 246.644V217.61C193.909 210.188 189.662 205.291 179.473 205.291C173.515 205.291 168.299 206.764 164.056 208.637L165.279 213.778C168.62 212.551 172.948 211.413 177.188 211.413C183.058 211.413 185.591 213.778 185.591 218.675V222.344H182.654C168.375 222.344 161.936 227.882 161.936 236.21C161.936 243.386 166.176 247.463 174.166 247.463C179.304 247.463 183.136 245.343 186.729 242.239L187.385 246.646L193.909 246.644ZM76.9794 253.545C74.6137 257.008 70.7816 259.749 66.5906 261.294L62.4883 256.458C65.679 254.82 68.4118 252.178 69.6843 249.715C70.7816 247.523 71.2374 244.703 71.2374 237.957V191.588H80.0732V237.32C80.0732 246.343 79.3554 249.992 76.9794 253.545Z" fill="#EA2D2E"/>
</svg>
