<svg width="175" height="120" viewBox="0 0 175 120" fill="none" xmlns="http://www.w3.org/2000/svg">
<g clip-path="url(#clip0_4300_1617)">
<path d="M52.062 78.7073L57.3798 95.962C58.5746 99.8797 59.0729 102.614 58.8733 104.173C61.7818 96.3837 63.814 87.8951 64.9701 78.7073H71.3645C68.6147 93.6652 64.9889 104.534 60.4872 111.315C56.98 116.54 53.1378 119.153 48.954 119.153C47.8384 119.153 46.4632 118.816 44.8313 118.147V114.541C45.6286 114.658 46.564 114.72 47.6399 114.72C49.5914 114.72 51.1653 114.18 52.3617 113.1C53.7947 111.784 54.5121 110.306 54.5121 108.667C54.5121 107.548 53.9526 105.252 52.8388 101.778L45.4293 78.7073H52.062ZM11.3623 68.1021L21.1025 97.8205H21.1627L30.9628 68.1021H38.9697C40.7229 82.8403 41.7585 96.3253 42.0763 108.549H35.3258C35.0879 97.1226 34.4308 86.3776 33.3545 76.3133H33.2957L23.0161 108.549H17.8753L7.65787 76.3133H7.59772C6.84014 85.9788 6.36213 96.7239 6.16368 108.549H0.0078125C0.405626 94.1671 1.40119 80.6862 2.99449 68.1021H11.3623Z" fill="#00758F"/>
<path d="M120.482 67.5018C130.96 67.5018 136.199 74.1956 136.199 87.5767C136.199 94.8481 134.623 100.341 131.475 104.051C130.908 104.729 130.281 105.315 129.62 105.858L137.035 109.524L137.028 109.523L134.395 114.07L124.739 108.436C123.138 108.91 121.378 109.147 119.459 109.147C114.314 109.147 110.471 107.647 107.931 104.652C105.142 101.339 103.748 96.1236 103.748 89.0142C103.748 81.7838 105.321 76.3122 108.47 72.5968C111.338 69.1983 115.343 67.5018 120.482 67.5018ZM88.3974 67.5602C92.1421 67.5602 95.5471 68.5623 98.6141 70.5592L97.0564 74.0305C94.432 72.915 91.8445 72.3549 89.2929 72.3549C87.2224 72.3549 85.6271 72.8532 84.515 73.8559C83.3967 74.8497 82.705 76.1286 82.705 77.6878C82.705 80.0835 84.4118 82.1611 87.5632 83.9164C88.5956 84.4808 89.6245 85.0516 90.6497 85.629L90.8848 85.7613L91.0027 85.8276L91.2382 85.9598L91.3557 86.0261L91.5909 86.1587C93.9764 87.5036 96.2211 88.7872 96.2211 88.7872C99.3722 91.0241 100.943 93.4089 100.943 97.3368C100.943 100.767 99.6859 103.583 97.1801 105.786C94.6726 107.98 91.3038 109.08 87.085 109.08C83.1394 109.08 79.3154 107.814 75.6113 105.303L77.3441 101.829C80.5317 103.426 83.4162 104.224 86.0064 104.224C88.4357 104.224 90.3373 103.682 91.7129 102.611C93.0858 101.532 93.9084 100.027 93.9084 98.1191C93.9084 95.7175 92.2378 93.6646 89.1732 91.9424C88.214 91.4125 87.2576 90.8774 86.3041 90.3371L86.0693 90.2042C85.638 89.9605 85.2036 89.7138 84.7781 89.4721L84.5474 89.3409C82.4781 88.1639 80.6889 87.1355 80.6889 87.1355C77.6254 84.8945 76.0891 82.4902 76.0891 78.5285C76.0891 75.252 77.2347 72.6037 79.5225 70.589C81.8159 68.5698 84.7743 67.5602 88.3974 67.5602ZM148.512 68.1016V103.573H161.239V108.548H142.058V68.1019L148.512 68.1016ZM168.311 103.588V104.429H166.911V108.544H165.842V104.429H164.388V103.588H168.311ZM170.894 103.588L172.238 106.966L173.472 103.588H174.988V108.544H173.98V104.772L172.575 108.544H171.848L170.441 104.772H170.387V108.544H169.434V103.588H170.894ZM119.823 72.4758C113.649 72.4758 110.56 77.5716 110.56 87.7561C110.56 93.5901 111.379 97.8204 113.013 100.457C114.526 102.897 116.896 104.115 120.123 104.115C126.298 104.115 129.386 98.9797 129.386 88.7138C129.386 82.9615 128.568 78.7674 126.936 76.1293C125.421 73.6946 123.052 72.4758 119.824 72.4758" fill="#F29111"/>
<path d="M103.64 2.50618C105.688 -2.52664 112.85 1.28472 115.629 3.04275C116.31 3.4826 117.091 4.41186 117.872 4.75534C119.091 4.80318 120.308 4.89853 121.528 4.94946C123.817 5.4874 125.962 5.9269 127.766 6.95425C136.148 11.891 141.605 16.9218 146.628 25.2315C147.701 26.9916 148.237 28.8962 149.113 30.8009C150.33 33.6399 151.697 36.6201 153.109 39.3047C153.742 40.5774 154.231 41.9926 155.109 43.0675C155.452 43.5589 156.425 43.7038 157.007 43.9974C158.616 44.8303 160.566 45.4626 162.079 46.44C164.905 48.2022 167.637 50.302 170.121 52.4517C171.047 53.2815 171.678 54.4561 172.56 55.3338V55.7767C171.777 56.0169 170.997 56.263 170.216 56.4602C168.51 56.8984 166.999 56.7992 165.345 57.2377C164.322 57.5344 163.052 57.9257 161.98 58.0252L162.079 58.1249C162.71 59.9278 166.123 61.3939 167.685 62.4722C169.581 63.8406 171.338 65.5002 172.752 67.4062C173.24 67.8926 173.729 68.3352 174.215 68.8201C174.554 69.3116 174.65 69.9473 174.994 70.3854V70.5337C174.613 70.3994 174.339 70.1431 174.08 69.8752L173.925 69.7135C173.77 69.5529 173.614 69.395 173.436 69.2648C172.36 68.53 171.292 67.651 170.216 66.9678C168.366 65.7941 166.221 65.113 164.322 63.9349C163.248 63.2511 162.225 62.4722 161.201 61.6896C160.273 61.0036 159.251 59.6865 158.668 58.709C158.325 58.169 158.278 57.5344 157.885 57.1437C157.955 56.4913 158.553 56.2975 159.156 56.1383L159.295 56.1017C159.503 56.0477 159.707 55.9937 159.885 55.9223C162.418 54.8464 165.439 54.4561 169.34 54.5538C169.193 53.5743 166.756 52.3539 165.978 51.7674C164.416 50.6417 162.762 49.467 161.105 48.4424C160.227 47.9058 158.714 47.5142 157.741 47.0757C156.425 46.5378 153.5 46.0002 152.771 44.9756C151.532 43.3604 150.642 41.4338 149.778 39.4878L149.543 38.9567L149.307 38.426C148.286 36.0825 147.017 33.6392 145.994 31.2397C145.458 30.0692 145.213 29.0418 144.626 27.9191C141.07 21.0298 135.806 15.2619 129.423 11.2055C127.326 9.88556 124.987 8.6641 122.405 7.83395C120.942 7.39205 119.186 7.63641 117.627 7.29738H116.601C115.726 7.05063 114.995 6.12239 114.312 5.63299C112.803 4.60838 111.291 3.9204 109.487 3.18937C108.855 2.89614 107.049 2.21329 106.419 2.75089C106.029 2.84897 105.831 2.99627 105.735 3.38794C105.346 3.97235 105.688 4.85274 105.93 5.3917C106.662 6.95356 107.684 7.8818 108.612 9.20169C109.438 10.3722 110.464 11.6921 111.049 12.9649C112.312 15.7007 112.9 18.7318 114.071 21.4673C114.505 22.496 115.192 23.6665 115.824 24.5944C116.359 25.3309 117.333 25.8634 117.627 26.7957C118.215 27.7732 116.748 30.9984 116.409 32.0227C115.139 36.0305 115.385 41.6017 116.848 45.0757L116.925 45.2589L117.003 45.4445C117.537 46.7168 118.109 48.087 119.528 48.4428C119.626 48.3457 119.528 48.3966 119.722 48.3457C120.065 45.6567 120.162 43.0671 121.089 40.9632C121.624 39.6478 122.694 38.7178 123.427 37.644C123.916 37.9366 123.916 38.8187 124.207 39.4024C124.841 40.9164 125.522 42.5764 126.304 44.0948C127.909 47.222 129.715 50.2538 131.761 52.9893C132.446 53.9664 133.419 55.0419 134.296 55.9219C134.686 56.2627 135.124 56.4595 135.417 56.898H135.513V57.0457C134.051 56.5067 133.124 54.994 131.958 54.1109C129.762 52.451 127.133 49.9581 125.62 47.5661C124.987 46.1929 124.303 44.8768 123.621 43.5104V43.4116C123.329 43.8019 123.427 44.1895 123.281 44.7801C122.648 47.222 123.135 50.0077 120.942 50.886C118.456 51.9147 116.602 49.2261 115.824 48.0043C113.337 43.9489 112.656 37.1075 114.409 31.5849C114.799 30.3624 114.852 28.8962 115.532 27.9201C115.385 27.0377 114.705 26.7964 114.312 26.2557C113.629 25.3316 113.045 24.2551 112.511 23.2287C111.485 21.2239 110.755 18.8285 109.976 16.6785C109.634 15.8005 109.536 14.9191 109.194 14.0879C108.612 12.8193 107.539 11.5465 106.71 10.4242C105.589 8.81105 102.323 5.68459 103.64 2.50618ZM119.625 12.0807C119.755 12.2113 119.912 12.3254 120.075 12.4379L120.271 12.5725C120.532 12.7537 120.786 12.9444 120.941 13.2041C121.187 13.5479 121.233 13.8873 121.527 14.2318C121.527 15.4064 121.187 16.1874 120.5 16.674C120.5 16.674 120.453 16.7253 120.405 16.7731C120.015 15.9902 119.674 15.2113 119.281 14.429C118.798 13.7461 118.115 13.2044 117.721 12.4242H117.626V12.3261C118.215 12.1809 118.798 12.0807 119.625 12.0807Z" fill="#00758F"/>
</g>
<defs>
<clipPath id="clip0_4300_1617">
<rect width="175" height="119.276" fill="white"/>
</clipPath>
</defs>
</svg>
