<svg width="145" height="145" viewBox="0 0 145 145" fill="none" xmlns="http://www.w3.org/2000/svg">
<path fill-rule="evenodd" clip-rule="evenodd" d="M83.7667 9.0625C82.8961 9.07616 82.0333 9.22914 81.2111 9.51562C88.5291 14.3278 79.897 21.2969 83.9299 27.1875C83.652 25.2062 83.9672 23.1869 84.8357 21.3845C85.7042 19.5821 87.0872 18.0774 88.81 17.0602C90.1014 15.9863 90.9306 15.6011 90.6542 13.8248C90.2056 10.9158 86.3269 9.0625 83.7667 9.0625ZM94.1886 10.9384C93.1781 16.027 91.923 16.2128 88.1938 19.4889C86.7386 20.6351 85.7116 22.2378 85.2784 24.0389C84.8452 25.8399 85.031 27.7343 85.8058 29.4169C70.3995 23.4356 50.6523 19.8197 36.175 30.1691C30.9686 33.8892 27.7922 39.2316 21.3714 41.4111C17.2208 42.8339 13.1427 42.4125 10.5417 46.5269C9.58786 47.7138 9.08927 49.2024 9.1358 50.7244C9.18232 52.2463 9.7709 53.7017 10.7955 54.8281C11.5703 55.6211 13.0611 56.1286 13.6773 56.9352C14.0353 57.3883 14.0263 57.8414 14.3661 58.4441C14.9667 59.8485 15.8347 61.1228 16.9217 62.1959C17.5878 62.7442 19.8761 63.2789 20.2658 63.8634C20.7552 64.593 19.4864 67.4884 20.5513 67.9416C21.2672 68.2723 23.3652 64.5703 23.5691 64.2441C23.1522 67.1577 22.6039 72.3278 25.88 68.0231C27.4342 65.9795 27.5294 65.3044 30.1439 64.8513C31.8166 64.5577 33.508 64.3821 35.2053 64.3256C44.9014 63.9842 54.3589 67.3761 61.6279 73.8021C68.8969 80.228 73.4233 89.1981 74.2738 98.8628C73.7844 96.5972 70.8255 92.9722 68.0705 93.8331C66.8969 94.1956 66.4619 96.2211 65.6916 97.3947C64.7161 98.8815 63.5162 100.208 62.1345 101.328C62.3677 99.131 62.2576 96.9114 61.8083 94.7484C60.9836 98.1378 59.3297 103.761 55.1655 102.85C53.7779 102.64 52.4776 102.042 51.4134 101.127C50.3493 100.212 49.5642 99.016 49.148 97.6756C48.6088 94.2319 52.2473 90.1945 46.3975 89.9091C34.6616 89.3336 37.3758 106.593 44.3041 111.093C42.7122 111.271 41.1593 111.704 39.7048 112.375C44.1059 114.931 49.0648 116.373 54.1502 116.575C59.2355 116.777 64.2932 115.733 68.8832 113.535C73.4733 111.336 77.4565 108.049 80.4864 103.96C83.5163 99.8711 85.5011 95.1034 86.268 90.0722C87.2702 94.6805 87.247 99.4528 86.2 104.051C85.6375 106.494 84.7951 108.865 83.6897 111.115C82.1905 114.154 80.2003 116.926 77.7991 119.317C76.3763 120.726 73.7663 122.144 72.8691 123.581C78.3609 122.853 83.7274 121.377 88.8191 119.195C83.5478 126.414 76.5282 132.175 68.4194 135.938C77.1138 135.322 85.5182 132.552 92.875 127.878C100.232 123.204 106.309 116.772 110.56 109.162C109.199 116.771 106.191 123.99 101.747 130.314C107.732 126.307 112.825 121.106 116.704 115.037C120.584 108.968 123.166 102.162 124.29 95.0475C125.407 100.255 125.726 105.603 125.237 110.907C130.153 104.075 133.474 96.2265 134.955 87.9407C136.437 79.6548 136.041 71.1422 133.796 63.0297C132.077 56.7241 129.502 50.6838 126.143 45.0769C124.844 42.8935 123.423 40.7847 121.888 38.7603C121.285 37.9764 118.064 35.1081 118.064 34.2291C118.037 34.3167 118.014 34.3167 117.996 34.2291C117.996 48.9466 102.136 58.3942 88.8553 54.452C93.9054 54.0604 98.6785 51.9877 102.412 48.5651C106.146 45.1424 108.626 40.5673 109.454 35.5703C110.188 30.3279 109.063 24.994 106.275 20.4945C103.486 15.9951 99.2099 12.6141 94.1886 10.9384Z" fill="#EA2845"/>
</svg>
