<svg width="269" height="166" viewBox="0 0 269 166" fill="none" xmlns="http://www.w3.org/2000/svg">
<path d="M240.235 64.287C240.127 64.2869 240.02 64.3191 239.93 64.3795L235 67.2586C234.907 67.3161 234.831 67.3966 234.779 67.4924C234.726 67.5882 234.7 67.6959 234.702 67.805V73.5633C234.702 73.8071 234.817 73.992 235 74.1139L239.93 76.9888C240.02 77.0494 240.126 77.0817 240.235 77.0817C240.344 77.0817 240.45 77.0494 240.54 76.9888L245.462 74.1139C245.555 74.0551 245.632 73.9736 245.685 73.8769C245.739 73.7802 245.767 73.6716 245.766 73.5612V67.8092C245.767 67.6995 245.74 67.5914 245.687 67.4955C245.633 67.3997 245.556 67.3195 245.462 67.2628L240.538 64.3816C240.448 64.3216 240.343 64.2873 240.235 64.287ZM132.86 98.719C131.963 98.719 131.069 98.9375 130.309 99.3663L106.038 113.503C105.26 113.96 104.615 114.613 104.168 115.396C103.72 116.179 103.485 117.065 103.486 117.967V146.176C103.486 148.013 104.457 149.728 106.038 150.649L112.426 154.318C115.528 155.848 116.623 155.844 118.021 155.844C122.581 155.844 125.198 153.03 125.198 148.194V120.359C125.195 120.165 125.117 119.98 124.981 119.842C124.844 119.705 124.66 119.625 124.466 119.621H121.369C121.174 119.624 120.989 119.703 120.851 119.841C120.714 119.979 120.636 120.164 120.633 120.359V148.2C120.633 150.342 118.386 152.487 114.799 150.653L108.169 146.796C107.925 146.675 107.801 146.364 107.801 146.12V117.904C107.801 117.66 107.925 117.358 108.169 117.234L132.431 103.16C132.614 103.038 132.921 103.038 133.165 103.16L157.433 117.234C157.675 117.358 157.795 117.599 157.795 117.906V146.118C157.795 146.422 157.675 146.672 157.433 146.794L133.165 160.932C132.982 161.053 132.675 161.053 132.431 160.932L126.229 157.193C126.047 157.071 125.803 157.01 125.62 157.132C123.918 158.111 123.619 158.239 121.976 158.79C121.61 158.912 121.003 159.154 122.218 159.826L130.309 164.664C131.099 165.091 131.948 165.334 132.86 165.334C133.772 165.334 134.682 165.093 135.411 164.788L159.682 150.651C160.461 150.193 161.106 149.539 161.554 148.755C162.002 147.97 162.236 147.082 162.233 146.179V117.967C162.233 116.13 161.262 114.422 159.682 113.503L135.411 99.3663C134.629 98.9375 133.751 98.7148 132.86 98.719ZM170.751 111.602C169.505 111.607 168.313 112.106 167.435 112.99C166.558 113.874 166.067 115.07 166.071 116.315C166.068 117.561 166.559 118.756 167.436 119.64C168.314 120.523 169.506 121.022 170.751 121.027C173.309 121.027 175.433 118.886 175.433 116.315C175.427 115.073 174.932 113.883 174.056 113.001C173.181 112.12 171.993 111.616 170.751 111.602ZM170.688 112.398C171.206 112.392 171.72 112.488 172.201 112.682C172.681 112.876 173.118 113.164 173.486 113.529C173.855 113.893 174.147 114.327 174.346 114.806C174.545 115.284 174.646 115.797 174.645 116.315C174.645 118.459 172.88 120.296 170.69 120.296C168.563 120.296 166.798 118.518 166.798 116.315C166.798 114.113 168.622 112.398 170.688 112.398ZM168.988 113.682V119.066H170.026V116.931H170.938C171.304 116.931 171.424 117.053 171.484 117.358C171.484 117.421 171.665 118.766 171.665 119.01H172.758C172.636 118.766 172.575 118.03 172.514 117.602C172.455 116.929 172.397 116.439 171.665 116.378C172.031 116.254 172.638 116.072 172.638 115.092C172.638 113.684 171.419 113.684 170.814 113.684L168.988 113.682ZM169.902 114.54H170.751C171.058 114.54 171.541 114.54 171.541 115.273C171.541 115.517 171.424 116.011 170.751 116.011H169.9L169.902 114.54ZM139.492 118.764C132.557 118.764 128.421 121.702 128.421 126.659C128.421 131.985 132.557 133.447 139.188 134.122C147.153 134.918 147.762 136.083 147.762 137.674C147.762 140.427 145.568 141.591 140.459 141.591C134.012 141.591 132.614 139.998 132.126 136.755C132.126 136.387 131.828 136.146 131.462 136.146H128.299C128.106 136.148 127.922 136.226 127.786 136.363C127.649 136.501 127.573 136.686 127.572 136.879C127.572 141.04 129.76 145.937 140.407 145.937C148.067 145.937 152.507 142.873 152.507 137.489C152.507 132.224 148.977 130.818 141.499 129.839C133.955 128.86 133.167 128.309 133.167 126.535C133.167 125.066 133.835 123.11 139.429 123.11C144.416 123.11 146.299 124.213 147.031 127.578C147.067 127.729 147.153 127.865 147.274 127.964C147.395 128.062 147.545 128.119 147.701 128.124H150.923C151.108 128.124 151.291 128.004 151.415 127.882C151.525 127.719 151.587 127.527 151.593 127.33C151.108 121.456 147.279 118.764 139.492 118.764Z" fill="#5FA04E"/>
<path d="M180.886 0.000158738C180.627 -0.00364218 180.372 0.0608759 180.146 0.187199C179.911 0.325016 179.716 0.520534 179.578 0.755195C179.44 0.989856 179.364 1.25587 179.358 1.528V41.3085C179.358 41.6741 179.169 42.044 178.805 42.2878C178.637 42.3779 178.45 42.4251 178.259 42.4251C178.068 42.4251 177.88 42.3779 177.712 42.2878L171.269 38.5575C170.796 38.2874 170.261 38.1453 169.716 38.1453C169.171 38.1453 168.636 38.2874 168.163 38.5575L142.381 53.5522C141.904 53.8212 141.506 54.2114 141.228 54.6834C140.951 55.1554 140.802 55.6924 140.799 56.2401V86.1663C140.799 87.2675 141.408 88.3099 142.381 88.8605L168.167 103.855C168.64 104.125 169.175 104.267 169.719 104.267C170.263 104.267 170.798 104.125 171.271 103.855L197.055 88.8605C198.028 88.3099 198.638 87.2675 198.638 86.1663V11.5672C198.638 10.405 198.028 9.36052 197.055 8.81201L181.672 0.187199C181.428 0.065247 181.158 0.00123124 180.886 0.000158738ZM28.7642 37.3365C28.2787 37.3365 27.7933 37.5131 27.3688 37.7568L1.5826 52.6968C1.09797 52.9726 0.695769 53.3728 0.417567 53.8561C0.139366 54.3393 -0.00474724 54.8881 0.000119291 55.4457L0.0631662 95.5897C0.0631662 96.1424 0.36369 96.6931 0.851252 96.9389C1.07728 97.0872 1.3417 97.1662 1.61202 97.1662C1.88233 97.1662 2.14676 97.0872 2.37278 96.9389L17.7016 88.1271C18.6746 87.5765 19.2778 86.5341 19.2778 85.4329V66.6449C19.2778 65.5437 19.8872 64.5013 20.8623 63.9507L27.3688 60.1574C27.8542 59.8506 28.4048 59.7287 28.9512 59.7287C29.4977 59.7287 30.0462 59.8506 30.4728 60.1574L36.9792 63.9507C37.9522 64.5013 38.5617 65.5437 38.5617 66.6449V85.4329C38.5617 86.5341 39.1669 87.5765 40.1379 88.1271L55.3448 96.9389C55.5811 97.0897 55.8556 97.1698 56.136 97.1698C56.4164 97.1698 56.6909 97.0897 56.9272 96.9389C57.1693 96.8073 57.3709 96.6121 57.5101 96.3743C57.6494 96.1365 57.7211 95.8653 57.7174 95.5897V55.4457C57.7174 54.3445 57.108 53.3021 56.1329 52.7494L30.4097 37.7568C29.9764 37.5269 29.5024 37.3834 29.0143 37.3344L28.7642 37.3365ZM240.322 37.7778C239.79 37.7778 239.263 37.9166 238.775 38.194L212.985 53.1802C212.012 53.7308 211.409 54.7732 211.409 55.8765V85.8027C211.409 86.904 212.012 87.9464 212.985 88.497L238.59 103.181C239.052 103.451 239.576 103.594 240.111 103.594C240.646 103.594 241.17 103.451 241.631 103.181L257.141 94.4948C257.383 94.3629 257.584 94.1675 257.723 93.9298C257.862 93.692 257.933 93.4209 257.929 93.1456C257.932 92.871 257.86 92.6007 257.722 92.3638C257.583 92.1269 257.382 91.9322 257.141 91.8006L231.235 76.8039C230.999 76.6655 230.803 76.469 230.665 76.2331C230.527 75.9973 230.452 75.73 230.447 75.4568V66.0922C230.444 65.8176 230.516 65.5473 230.654 65.3104C230.793 65.0735 230.994 64.8788 231.235 64.7472L239.326 60.0943C239.562 59.9435 239.837 59.8634 240.117 59.8634C240.398 59.8634 240.672 59.9435 240.909 60.0943L248.991 64.7451C249.228 64.8827 249.425 65.0789 249.564 65.3148C249.704 65.5507 249.78 65.8184 249.786 66.0922V73.4372C249.786 73.9899 250.088 74.5405 250.574 74.7843C250.81 74.9355 251.085 75.0158 251.366 75.0158C251.647 75.0158 251.922 74.9355 252.158 74.7843L267.481 65.7896C267.951 65.5154 268.339 65.1212 268.606 64.6474C268.874 64.1736 269.01 63.6372 269.002 63.0933V55.8114C269.002 54.7101 268.393 53.6741 267.481 53.1214L241.875 38.1919C241.403 37.9216 240.869 37.7782 240.324 37.7757L240.322 37.7778ZM169.716 60.1259C169.853 60.1259 169.991 60.1574 170.115 60.2204L178.929 65.3609C179.173 65.4827 179.297 65.7854 179.297 66.0312V76.3121C179.297 76.6189 179.173 76.8669 178.929 76.9888L170.113 82.1292C169.99 82.1897 169.854 82.2212 169.716 82.2212C169.578 82.2212 169.442 82.1897 169.319 82.1292L160.503 76.9888C160.259 76.8669 160.135 76.558 160.135 76.3121V66.0312C160.135 65.7244 160.261 65.4827 160.503 65.3588L169.319 60.2204C169.442 60.1564 169.577 60.1239 169.716 60.1259Z" fill="white"/>
<path d="M100.846 38.3095C100.375 38.0381 99.8397 37.8953 99.2954 37.8953C98.7511 37.8953 98.2163 38.0381 97.7444 38.3095L72.139 53.1823C71.6698 53.4561 71.2816 53.8497 71.0143 54.3227C70.747 54.7957 70.61 55.3311 70.6175 55.8744V85.6767C70.6175 86.78 71.2269 87.8203 72.139 88.3709L97.7444 103.242C98.2163 103.513 98.7511 103.656 99.2954 103.656C99.8397 103.656 100.375 103.513 100.846 103.242L126.45 88.3709C127.423 87.8203 127.971 86.78 127.971 85.6767V55.8744C127.971 54.7732 127.362 53.7308 126.45 53.1823L100.846 38.3095Z" fill="url(#paint0_linear_4307_1187)"/>
<path d="M126.503 53.1824L100.778 38.3096C100.525 38.1817 100.26 38.0796 99.9874 38.0049L71.1582 87.6354C71.402 87.9422 71.7046 88.186 72.0093 88.3709L97.7367 103.242C98.4659 103.67 99.317 103.792 100.107 103.546L127.173 53.733C126.995 53.5 126.766 53.3115 126.503 53.1824Z" fill="url(#paint1_linear_4307_1187)"/>
<path d="M126.499 88.3687C127.23 87.94 127.776 87.2066 128.02 86.4101L99.8592 37.9418C99.132 37.8199 98.3397 37.8808 97.6715 38.3095L72.127 53.1192L99.6784 103.668C100.042 103.607 100.469 103.485 100.834 103.3L126.499 88.3687Z" fill="url(#paint2_linear_4307_1187)"/>
<defs>
<linearGradient id="paint0_linear_4307_1187" x1="109.722" y1="49.3842" x2="86.3382" y2="96.7909" gradientUnits="userSpaceOnUse">
<stop stop-color="#3F873F"/>
<stop offset="0.33" stop-color="#3F8B3D"/>
<stop offset="0.637" stop-color="#3E9638"/>
<stop offset="0.934" stop-color="#3DA92E"/>
<stop offset="1" stop-color="#3DAE2B"/>
</linearGradient>
<linearGradient id="paint1_linear_4307_1187" x1="95.3966" y1="74.2558" x2="160.64" y2="26.3468" gradientUnits="userSpaceOnUse">
<stop offset="0.138" stop-color="#3F873F"/>
<stop offset="0.402" stop-color="#52A044"/>
<stop offset="0.713" stop-color="#64B749"/>
<stop offset="0.908" stop-color="#6ABF4B"/>
</linearGradient>
<linearGradient id="paint2_linear_4307_1187" x1="69.6688" y1="70.7653" x2="128.917" y2="70.7653" gradientUnits="userSpaceOnUse">
<stop offset="0.092" stop-color="#6ABF4B"/>
<stop offset="0.287" stop-color="#64B749"/>
<stop offset="0.598" stop-color="#52A044"/>
<stop offset="0.862" stop-color="#3F873F"/>
</linearGradient>
</defs>
</svg>
