<svg width="189" height="100" viewBox="0 0 189 100" fill="none" xmlns="http://www.w3.org/2000/svg">
<g clip-path="url(#clip0_4300_1612)">
<path d="M94.0509 98.888C145.987 98.888 188.09 76.7512 188.09 49.444C188.09 22.1368 145.987 0 94.0509 0C42.1145 0 0.0117188 22.1368 0.0117188 49.444C0.0117188 76.7512 42.1145 98.888 94.0509 98.888Z" fill="url(#paint0_radial_4300_1612)"/>
<path d="M94.0532 95.2146C143.961 95.2146 184.419 74.7224 184.419 49.444C184.419 24.1655 143.961 3.67334 94.0532 3.67334C44.1456 3.67334 3.6875 24.1655 3.6875 49.444C3.6875 74.7224 44.1456 95.2146 94.0532 95.2146Z" fill="#6181B6"/>
<path d="M112.344 64.2846L116.826 41.2156C117.854 35.9994 116.972 32.1056 114.328 29.6811C111.756 27.3302 107.348 26.1547 100.883 26.1547H93.0953L95.2994 14.6937C95.3728 14.2528 95.2994 13.812 95.0055 13.4447C94.7116 13.0774 94.3443 12.9304 93.9035 12.9304H83.1771C82.4425 12.9304 81.8547 13.4447 81.7078 14.1059L76.9323 38.5708C76.4915 35.779 75.463 33.428 73.6998 31.5178C70.5406 27.9179 65.6183 26.0812 58.9327 26.0812H38.2881C37.5535 26.0812 36.9657 26.5955 36.8188 27.2567L27.1945 76.9211C27.121 77.3619 27.1945 77.8027 27.4883 78.1701C27.7822 78.5374 28.1496 78.6844 28.5904 78.6844H39.3902C40.1248 78.6844 40.7126 78.1701 40.8595 77.5089L43.2105 65.5336H51.2185C55.4062 65.5336 59.0061 65.0928 61.7245 64.2111C64.5897 63.2561 67.1611 61.7132 69.4386 59.5827C71.2753 57.8929 72.8181 55.9827 73.9936 53.9256L72.0835 63.8438C72.01 64.2846 72.0835 64.7254 72.3773 65.0928C72.6712 65.4601 73.0385 65.607 73.4794 65.607H84.2057C84.9404 65.607 85.5281 65.0928 85.675 64.4315L90.9648 37.2484H98.3116C101.471 37.2484 102.352 37.8361 102.646 38.13C102.867 38.3504 103.307 39.232 102.793 41.9503L98.532 63.9173C98.4585 64.3581 98.532 64.7989 98.8258 65.1662C99.1197 65.5336 99.487 65.6805 99.9279 65.6805H110.948C111.609 65.4601 112.197 64.9458 112.344 64.2846ZM62.6795 45.1829C62.0183 48.6359 60.7694 51.1338 58.9327 52.5297C57.096 53.9256 54.0838 54.6603 50.1165 54.6603H45.3411L48.7941 36.881H54.9654C59.5204 36.881 61.3571 37.8361 62.0918 38.6442C63.0469 39.8197 63.2673 42.0973 62.6795 45.1829ZM158.188 31.5178C155.029 27.9179 150.107 26.0812 143.421 26.0812H122.629C121.895 26.0812 121.307 26.5955 121.16 27.2567L111.536 76.8477C111.462 77.2885 111.536 77.7293 111.83 78.0966C112.124 78.464 112.491 78.6109 112.932 78.6109H123.732C124.466 78.6109 125.054 78.0966 125.201 77.4354L127.552 65.4601H135.56C139.748 65.4601 143.347 65.0193 146.066 64.1377C148.931 63.1826 151.502 61.6398 153.78 59.5092C155.69 57.746 157.306 55.7623 158.482 53.6317C159.657 51.5012 160.539 49.1502 161.053 46.5788C162.302 40.1871 161.347 35.1912 158.188 31.5178ZM146.947 45.1829C146.286 48.6359 145.037 51.1338 143.201 52.5297C141.364 53.9256 138.352 54.6603 134.384 54.6603H129.609L133.062 36.881H139.233C143.788 36.881 145.625 37.8361 146.36 38.6442C147.388 39.8197 147.609 42.0973 146.947 45.1829Z" fill="white"/>
<path d="M54.9637 35.4117C59.0779 35.4117 61.7962 36.1463 63.1921 37.6892C64.588 39.232 64.8819 41.8034 64.1472 45.4768C63.4125 49.2971 61.9431 52.0889 59.8126 53.7052C57.682 55.3215 54.4494 56.1297 50.1148 56.1297H43.5761L47.6169 35.4117H54.9637ZM28.6621 77.1415H39.4619L42.0333 63.9907H51.2903C55.4045 63.9907 58.7106 63.5499 61.3554 62.6683C64.0003 61.7867 66.3512 60.3908 68.5553 58.3337C70.392 56.6439 71.8613 54.8072 72.9634 52.8236C74.0654 50.84 74.8735 48.6359 75.3143 46.2115C76.4898 40.334 75.6082 35.779 72.743 32.4729C69.8777 29.1669 65.3227 27.5506 59.0779 27.5506H38.2864L28.6621 77.1415ZM83.2489 14.3998H93.9752L91.4038 27.5506H100.955C106.979 27.5506 111.093 28.5791 113.371 30.7097C115.648 32.8403 116.31 36.2198 115.428 40.9218L110.946 63.9907H100.073L104.334 42.0238C104.848 39.5259 104.628 37.8361 103.82 36.9545C103.012 36.0729 101.175 35.5586 98.4568 35.5586H89.861L84.3509 63.9907H73.6246L83.2489 14.3998ZM139.232 35.4117C143.346 35.4117 146.064 36.1463 147.46 37.6892C148.856 39.232 149.15 41.8034 148.415 45.4768C147.68 49.2971 146.211 52.0889 144.08 53.7052C141.95 55.3215 138.717 56.1297 134.383 56.1297H127.844L131.885 35.4117H139.232ZM112.93 77.1415H123.73L126.301 63.9907H135.558C139.672 63.9907 142.978 63.5499 145.623 62.6683C148.268 61.7867 150.619 60.3908 152.823 58.3337C154.66 56.6439 156.129 54.8072 157.231 52.8236C158.333 50.84 159.141 48.6359 159.582 46.2115C160.758 40.334 159.876 35.779 157.011 32.4729C154.146 29.1669 149.591 27.5506 143.346 27.5506H122.554L112.93 77.1415Z" fill="#000004"/>
</g>
<defs>
<radialGradient id="paint0_radial_4300_1612" cx="0" cy="0" r="1" gradientUnits="userSpaceOnUse" gradientTransform="translate(56.4731 17.3881) scale(123.496 123.496)">
<stop stop-color="white"/>
<stop offset="0.5" stop-color="#4C6B97"/>
<stop offset="1" stop-color="#231F20"/>
</radialGradient>
<clipPath id="clip0_4300_1612">
<rect width="188.105" height="99.1819" fill="white"/>
</clipPath>
</defs>
</svg>
