<svg width="175" height="175" viewBox="0 0 175 175" fill="none" xmlns="http://www.w3.org/2000/svg">
<path d="M86.8711 11.4843C48.043 11.4843 50.4984 28.2734 50.4984 28.2734V45.7187H87.4234V51.1874H35.793C35.793 51.1874 10.9375 48.1249 10.9375 87.5273C10.9375 126.93 32.8836 125.327 32.8836 125.327H45.5547V106.947C45.5547 106.947 44.8437 85.0007 66.8828 85.0007H103.863C103.863 85.0007 124.491 85.3289 124.491 65.0289V31.7187C124.491 31.7187 127.619 11.4187 87.0734 11.4187L86.8711 11.4843ZM66.4617 23.171C67.7744 23.1379 69.0675 23.4948 70.1774 24.1966C71.2872 24.8984 72.1641 25.9136 72.697 27.1137C73.2299 28.3139 73.3949 29.6451 73.1712 30.939C72.9475 32.233 72.3451 33.4315 71.4402 34.3831C70.5353 35.3346 69.3685 35.9965 68.0874 36.2849C66.8064 36.5734 65.4685 36.4754 64.2431 36.0035C63.0177 35.5315 61.9598 34.7068 61.2031 33.6336C60.4465 32.5604 60.0251 31.2869 59.9922 29.9742V29.8648C59.9922 28.104 60.6917 26.4153 61.9367 25.1703C63.1818 23.9252 64.8705 23.2257 66.6313 23.2257L66.4617 23.171Z" fill="url(#paint0_linear_4300_1607)"/>
<path d="M87.9621 163.57C126.79 163.57 124.335 146.727 124.335 146.727V129.336H87.4153V123.867H139.204C139.204 123.867 164.06 126.645 164.06 87.4726C164.06 48.3 142.114 49.6726 142.114 49.6726H129.279V67.8125C129.279 67.8125 129.989 89.7586 107.95 89.7586H70.9543C70.9543 89.7586 50.3098 89.4469 50.3098 109.747V143.281C50.3098 143.281 47.1817 163.581 87.727 163.581H87.9457L87.9621 163.57ZM108.372 151.829C107.059 151.862 105.766 151.505 104.656 150.803C103.546 150.101 102.669 149.086 102.136 147.886C101.603 146.686 101.438 145.355 101.662 144.061C101.886 142.767 102.488 141.568 103.393 140.617C104.298 139.665 105.465 139.003 106.746 138.715C108.027 138.427 109.365 138.525 110.59 138.996C111.816 139.468 112.873 140.293 113.63 141.366C114.387 142.44 114.808 143.713 114.841 145.026V145.19C114.841 146.951 114.142 148.639 112.897 149.884C111.651 151.129 109.963 151.829 108.202 151.829H108.372Z" fill="url(#paint1_linear_4300_1607)"/>
<defs>
<linearGradient id="paint0_linear_4300_1607" x1="26.0704" y1="26.3752" x2="98.7319" y2="98.872" gradientUnits="userSpaceOnUse">
<stop stop-color="#387EB8"/>
<stop offset="1" stop-color="#366994"/>
</linearGradient>
<linearGradient id="paint1_linear_4300_1607" x1="69.0539" y1="73.6015" x2="152.071" y2="146.077" gradientUnits="userSpaceOnUse">
<stop stop-color="#FFE052"/>
<stop offset="1" stop-color="#FFC331"/>
</linearGradient>
</defs>
</svg>
