<svg width="166" height="100" viewBox="0 0 166 100" fill="none" xmlns="http://www.w3.org/2000/svg">
<path d="M46.9461 35.943C46.9461 37.9768 47.1666 39.6256 47.5511 40.8348C48.0392 42.1951 48.6269 43.5176 49.3094 44.7916C49.5843 45.2312 49.6938 45.6708 49.6938 46.0559C49.6938 46.605 49.3645 47.1548 48.65 47.7046L45.1878 50.0127C44.6931 50.3428 44.1985 50.5074 43.7582 50.5074C43.2091 50.5074 42.6593 50.2325 42.1095 49.7378C41.3684 48.9426 40.7059 48.0776 40.1314 47.1548C39.5816 46.2212 39.0318 45.1761 38.4275 43.9125C34.1402 48.9683 28.7542 51.4964 22.2694 51.4968C17.6532 51.4968 13.9706 50.1774 11.2774 47.5399C8.58478 44.9012 7.21094 41.3839 7.21094 36.9875C7.21094 32.3161 8.85968 28.5239 12.2123 25.666C15.5642 22.8081 20.0164 21.3792 25.6771 21.3792C27.5457 21.3792 29.4693 21.5438 31.5025 21.8187C33.5364 22.0936 35.6247 22.5332 37.8233 23.0279V19.0159C37.8233 14.8387 36.9435 11.9263 35.2396 10.2224C33.4813 8.51857 30.5132 7.69387 26.2814 7.69387C24.3578 7.69387 22.3797 7.91431 20.3458 8.409C18.3119 8.90369 16.3338 9.50795 14.4102 10.2775C13.531 10.662 12.8717 10.8818 12.4865 10.992C12.1014 11.1022 11.8272 11.1567 11.6074 11.1567C10.8378 11.1567 10.4533 10.6069 10.4533 9.45284V6.7596C10.4533 5.88045 10.5635 5.22108 10.8378 4.83661C11.1127 4.45149 11.6074 4.06702 12.377 3.68255C14.3004 2.69274 16.6085 1.86826 19.3013 1.20911C21.9952 0.494633 24.8531 0.165273 27.8757 0.165273C34.4162 0.165273 39.1978 1.64869 42.2755 4.61682C45.2981 7.5843 46.8372 12.091 46.8372 18.1368V35.943H46.9461ZM24.6327 44.2969C26.4467 44.2969 28.3153 43.9676 30.2934 43.3075C32.2721 42.6482 34.0311 41.439 35.5145 39.7903C36.3943 38.7464 37.0537 37.5924 37.383 36.273C37.713 34.9542 37.9328 33.36 37.9328 31.4914V29.1833C36.2661 28.7779 34.578 28.466 32.8764 28.249C31.1629 28.0316 29.4376 27.9214 27.7104 27.919C24.0277 27.919 21.3352 28.6335 19.5217 30.1176C17.7083 31.6016 16.8285 33.69 16.8285 36.4377C16.8285 39.0207 17.4879 40.9443 18.8617 42.2637C20.1811 43.6376 22.1048 44.2969 24.6327 44.2969ZM68.765 50.2325C67.7756 50.2325 67.1162 50.0679 66.6766 49.6827C66.237 49.3534 65.8519 48.5838 65.5226 47.5399L52.6075 5.0564C52.2769 3.9568 52.1122 3.24233 52.1122 2.85786C52.1122 1.9787 52.5517 1.48336 53.4316 1.48336H58.8174C59.8612 1.48336 60.5763 1.64869 60.9608 2.03316C61.4004 2.36317 61.7304 3.13275 62.0598 4.17659L71.2929 40.5599L79.8666 4.17659C80.1415 3.07764 80.4715 2.36317 80.9104 2.03316C81.3507 1.7038 82.1202 1.48401 83.1096 1.48401H87.5061C88.5499 1.48401 89.265 1.64869 89.704 2.03316C90.1442 2.36317 90.5286 3.13275 90.7484 4.17659L99.4324 40.9994L108.94 4.17659C109.269 3.07764 109.654 2.36317 110.039 2.03316C110.478 1.7038 111.193 1.48401 112.182 1.48401H117.293C118.173 1.48401 118.668 1.92359 118.668 2.85786C118.668 3.13275 118.612 3.40765 118.557 3.73701C118.502 4.06637 118.393 4.5066 118.173 5.11151L104.927 47.5944C104.598 48.694 104.213 49.4085 103.773 49.7378C103.333 50.0679 102.619 50.2876 101.685 50.2876H96.959C95.9145 50.2876 95.2 50.123 94.7598 49.7378C94.3202 49.3534 93.9357 48.6389 93.7159 47.5399L85.1967 12.091L76.7331 47.4842C76.4589 48.5838 76.1289 49.2983 75.6893 49.6827C75.2497 50.0679 74.4801 50.2325 73.4914 50.2325H68.765ZM139.387 51.7166C136.529 51.7166 133.672 51.3866 130.924 50.7272C128.176 50.0679 126.033 49.3527 124.604 48.5293C123.724 48.034 123.119 47.4848 122.9 46.9902C122.686 46.5049 122.574 45.9812 122.57 45.451V42.6482C122.57 41.4941 123.01 40.9443 123.834 40.9443C124.171 40.9456 124.505 41.0014 124.824 41.1096C125.153 41.2199 125.648 41.439 126.197 41.6588C128.138 42.5131 130.165 43.158 132.243 43.5824C134.395 44.0189 136.586 44.2398 138.783 44.2418C142.245 44.2418 144.939 43.6376 146.807 42.4284C148.676 41.2192 149.665 39.4609 149.665 37.2073C149.665 35.6687 149.17 34.4044 148.181 33.36C147.192 32.3155 145.323 31.3819 142.63 30.5021L134.661 28.0293C130.649 26.765 127.681 24.8965 125.867 22.423C124.054 20.0047 123.12 17.3121 123.12 14.4542C123.12 12.1461 123.614 10.1124 124.604 8.35324C125.593 6.59492 126.912 5.0564 128.561 3.84723C130.209 2.58296 132.078 1.64869 134.276 0.989321C136.474 0.329953 138.782 0.0550537 141.201 0.0550537C142.41 0.0550537 143.674 0.110163 144.883 0.274843C146.148 0.439523 147.302 0.659313 148.456 0.879102C149.555 1.154 150.599 1.4289 151.589 1.75891C152.578 2.08827 153.347 2.41784 153.897 2.74764C154.666 3.18786 155.215 3.62744 155.545 4.12213C155.875 4.56171 156.04 5.16618 156.04 5.93556V8.51857C156.04 9.67263 155.601 10.2775 154.776 10.2775C154.336 10.2775 153.622 10.0571 152.688 9.61752C149.555 8.18856 146.037 7.47408 142.136 7.47408C139.003 7.47408 136.529 7.96877 134.826 9.01326C133.122 10.0571 132.243 11.6514 132.243 13.9044C132.243 15.4436 132.792 16.7623 133.891 17.8068C134.99 18.8513 137.024 19.8951 139.937 20.8294L147.741 23.3028C151.698 24.5671 154.556 26.3254 156.26 28.5784C157.964 30.8314 158.789 33.4151 158.789 36.273C158.789 38.6362 158.293 40.7796 157.359 42.6482C156.37 44.5167 155.051 46.1655 153.347 47.4848C151.643 48.8587 149.61 49.8481 147.247 50.5625C144.773 51.3321 142.19 51.7166 139.387 51.7166Z" fill="white"/>
<path d="M149.777 78.4265C131.696 91.7818 105.425 98.8715 82.8372 98.8715C51.1803 98.8715 22.657 87.165 1.11308 67.7094C-0.590771 66.1708 0.947755 64.0825 2.98097 65.291C26.2838 78.8117 55.0276 87.0003 84.7608 87.0003C104.821 87.0003 126.859 82.8236 147.14 74.2499C150.162 72.8754 152.745 76.2286 149.777 78.4265ZM157.307 69.8528C154.999 66.8853 142.028 68.4239 136.147 69.1383C134.388 69.3588 134.114 67.8196 135.708 66.6655C146.04 59.4105 163.023 61.4995 165.001 63.9172C166.98 66.3906 164.451 83.3728 154.778 91.5069C153.295 92.7712 151.866 92.1118 152.525 90.4631C154.723 85.0215 159.615 72.7658 157.307 69.8528Z" fill="#FF9900"/>
</svg>
