<svg width="166" height="166" viewBox="0 0 166 166" fill="none" xmlns="http://www.w3.org/2000/svg">
<path d="M58.8395 14.7014H101.74L57.2054 146.645C56.7495 148.004 55.8792 149.185 54.7169 150.022C53.5546 150.86 52.1588 151.312 50.7262 151.314H17.3394C16.2553 151.312 15.1874 151.051 14.224 150.554C13.2605 150.057 12.4293 149.338 11.7992 148.456C11.169 147.574 10.758 146.554 10.6001 145.482C10.4422 144.409 10.5421 143.314 10.8914 142.288L52.3914 19.3442C52.8472 17.986 53.7176 16.805 54.8799 15.9675C56.0422 15.13 57.4379 14.6781 58.8706 14.6755L58.8395 14.7014Z" fill="url(#paint0_linear_5086_930)"/>
<path d="M121.185 103.2H53.1611C52.5288 103.2 51.9112 103.39 51.3886 103.746C50.866 104.102 50.4625 104.607 50.2308 105.195C49.9991 105.783 49.9498 106.428 50.0894 107.044C50.229 107.661 50.551 108.221 51.0134 108.652L94.7285 149.452C95.9976 150.632 97.6643 151.291 99.3972 151.299H137.92L121.185 103.2Z" fill="#0078D4"/>
<path d="M58.8449 14.7013C57.3987 14.6977 55.989 15.1555 54.8209 16.0083C53.6529 16.861 52.7873 18.0641 52.3501 19.4427L10.928 142.174C10.5581 143.205 10.442 144.31 10.5894 145.395C10.7368 146.481 11.1435 147.514 11.7749 148.41C12.4064 149.305 13.2441 150.034 14.2172 150.537C15.1904 151.04 16.2703 151.301 17.3656 151.299H51.6031C52.8788 151.071 54.0713 150.509 55.0584 149.67C56.0455 148.83 56.7919 147.744 57.2212 146.521L65.4797 122.176L94.9862 149.701C96.2238 150.723 97.775 151.289 99.38 151.304H137.768L120.934 103.205H71.8655L101.901 14.7013H58.8449Z" fill="url(#paint1_linear_5086_930)"/>
<path d="M113.634 19.3442C113.178 17.9869 112.308 16.8065 111.147 15.969C109.986 15.1315 108.591 14.6792 107.16 14.6755H59.3516C60.7833 14.6792 62.1779 15.1315 63.3392 15.969C64.5004 16.8065 65.37 17.9869 65.8256 19.3442L107.326 142.288C107.672 143.316 107.769 144.411 107.609 145.484C107.448 146.557 107.034 147.576 106.402 148.457C105.769 149.338 104.936 150.056 103.97 150.551C103.005 151.046 101.936 151.304 100.852 151.304H148.665C149.746 151.298 150.811 151.036 151.772 150.538C152.732 150.041 153.561 149.322 154.189 148.442C154.818 147.562 155.228 146.545 155.387 145.475C155.546 144.405 155.448 143.313 155.102 142.288L113.634 19.3442Z" fill="url(#paint2_linear_5086_930)"/>
<defs>
<linearGradient id="paint0_linear_5086_930" x1="63.9762" y1="24.9725" x2="23.2009" y2="149.291" gradientUnits="userSpaceOnUse">
<stop stop-color="#114A8B"/>
<stop offset="1" stop-color="#0669BC"/>
</linearGradient>
<linearGradient id="paint1_linear_5086_930" x1="86.0045" y1="88.0147" x2="77.7632" y2="90.2081" gradientUnits="userSpaceOnUse">
<stop stop-opacity="0.3"/>
<stop offset="0.071" stop-opacity="0.2"/>
<stop offset="0.321" stop-opacity="0.1"/>
<stop offset="0.623" stop-opacity="0.05"/>
<stop offset="1" stop-opacity="0"/>
</linearGradient>
<linearGradient id="paint2_linear_5086_930" x1="96.2366" y1="19.962" x2="142.815" y2="141.712" gradientUnits="userSpaceOnUse">
<stop stop-color="#3CCBF4"/>
<stop offset="1" stop-color="#2892DF"/>
</linearGradient>
</defs>
</svg>
