<svg width="166" height="166" viewBox="0 0 166 166" fill="none" xmlns="http://www.w3.org/2000/svg">
<path d="M127.094 0H38.9062C17.4189 0 0 17.4189 0 38.9062V127.094C0 148.581 17.4189 166 38.9062 166H127.094C148.581 166 166 148.581 166 127.094V38.9062C166 17.4189 148.581 0 127.094 0Z" fill="#F4F2ED"/>
<path d="M104.406 59.9093L115.679 48.6355L116.43 43.889C95.8877 25.2094 63.2324 27.3279 44.713 48.3087C39.5696 54.1356 35.7535 61.4007 33.7188 68.9031L37.7559 68.3338L60.3021 64.6163L62.0425 62.8363C72.0712 51.822 89.0285 50.3396 100.608 59.7109L104.406 59.9093Z" fill="#EA4335"/>
<path d="M131.738 68.5717C129.148 59.0292 123.827 50.4508 116.43 43.8895L100.608 59.7114C103.906 62.4057 106.549 65.8136 108.337 69.6781C110.125 73.5426 111.013 77.7628 110.932 82.0202V84.8286C118.709 84.8286 125.014 91.1327 125.014 98.9095C125.014 106.686 118.709 112.833 110.932 112.833H82.7298L79.9609 115.84V132.729L82.7298 135.38H110.932C131.16 135.537 147.686 119.425 147.844 99.1967C147.891 93.16 146.446 87.2052 143.636 81.8622C140.826 76.5191 136.739 71.9535 131.738 68.5717Z" fill="#4285F4"/>
<path d="M54.5642 135.38H82.7271V112.833H54.5642C52.5704 112.833 50.6003 112.401 48.7892 111.568L44.7942 112.794L33.442 124.067L32.4531 127.904C38.8195 132.711 46.5865 135.414 54.5642 135.38Z" fill="#34A853"/>
<path d="M54.566 62.243C34.3374 62.3636 18.0369 78.8598 18.1569 99.0878C18.1904 104.662 19.4957 110.155 21.9733 115.149C24.451 120.142 28.0357 124.505 32.4543 127.903L48.7904 111.567C41.703 108.365 38.5535 100.024 41.7555 92.9367C44.9575 85.85 53.299 82.6999 60.3851 85.9012C63.5082 87.3123 66.0095 89.8137 67.4207 92.9367L83.7567 76.6007C80.3281 72.118 75.9089 68.4893 70.8448 65.9984C65.7807 63.5075 60.2089 62.2219 54.5654 62.2423" fill="#FBBC05"/>
</svg>
