<svg width="166" height="166" viewBox="0 0 166 166" fill="none" xmlns="http://www.w3.org/2000/svg">
<g clip-path="url(#clip0_5086_936)">
<path d="M2.72668 25.0177C2.00449 25.0214 1.31312 25.3108 0.803743 25.8228C0.294366 26.3348 0.00842211 27.0276 0.00843137 27.7498C0.00843137 28.5798 0.381931 29.306 0.976765 29.804L59.8099 81.015C60.0949 81.2746 60.321 81.5922 60.4729 81.9465C60.6248 82.3009 60.6989 82.6836 60.6904 83.069C60.6819 83.4544 60.5909 83.8335 60.4235 84.1807C60.2561 84.528 60.0162 84.8353 59.72 85.082L0.790015 136.348C0.411096 136.73 0.153765 137.215 0.0505607 137.742C-0.0526437 138.27 0.00291312 138.816 0.210206 139.312C0.4175 139.808 0.767219 140.232 1.21515 140.529C1.66307 140.826 2.18909 140.984 2.72668 140.983H36.3417C37.0202 140.976 37.6725 140.72 38.1746 140.263L101.6 85.0682C101.894 84.8111 102.13 84.4942 102.291 84.1387C102.452 83.7832 102.536 83.3974 102.536 83.007C102.536 82.6167 102.452 82.2308 102.291 81.8753C102.13 81.5198 101.894 81.2029 101.6 80.9459L38.1815 25.737C37.6812 25.2822 37.0316 25.0263 36.3555 25.0177H2.72668ZM129.703 25.0177C128.997 25.0277 128.321 25.3073 127.815 25.7993L95.1956 54.1991C94.9133 54.4317 94.6812 54.7193 94.5135 55.0444C94.3458 55.3695 94.2459 55.7253 94.2201 56.0902C94.1942 56.4551 94.2428 56.8215 94.3629 57.167C94.4831 57.5125 94.6722 57.83 94.9189 58.1001L111.706 72.7219C111.962 73.0018 112.272 73.226 112.619 73.3807C112.965 73.5353 113.339 73.6172 113.718 73.6211C114.442 73.6089 115.133 73.3134 115.641 72.798L164.936 29.8939C165.267 29.6427 165.535 29.3184 165.72 28.9465C165.905 28.5746 166.001 28.1651 166.002 27.7498C166.002 27.0276 165.716 26.3348 165.206 25.8228C164.697 25.3108 164.005 25.0214 163.283 25.0177H129.703ZM113.725 92.3999C112.923 92.3999 112.204 92.7457 111.706 93.299L94.9258 107.914C94.6788 108.184 94.4891 108.501 94.3684 108.846C94.2477 109.191 94.1984 109.557 94.2237 109.922C94.2489 110.287 94.3481 110.643 94.5152 110.969C94.6823 111.294 94.9137 111.582 95.1956 111.815L127.815 140.201C128.299 140.685 128.963 140.983 129.703 140.983H163.283C163.851 140.983 164.405 140.805 164.867 140.474C165.329 140.143 165.675 139.675 165.858 139.137C166.04 138.599 166.049 138.017 165.884 137.474C165.719 136.93 165.387 136.452 164.936 136.106L115.641 93.2022C115.129 92.6944 114.446 92.4065 113.725 92.3999Z" fill="white"/>
</g>
<defs>
<clipPath id="clip0_5086_936">
<rect width="166" height="166" fill="white"/>
</clipPath>
</defs>
</svg>
