<svg width="42" height="42" viewBox="0 0 42 42" fill="none" xmlns="http://www.w3.org/2000/svg">
<g clip-path="url(#clip0_5259_1298)">
<path d="M38.0625 0.984527H3.9375C3.16323 0.976647 2.41745 1.27624 1.86381 1.81758C1.31017 2.35892 0.993894 3.09777 0.984375 3.87203V38.1348C0.995616 38.908 1.31265 39.6451 1.8661 40.185C2.41955 40.725 3.16435 41.0237 3.9375 41.0158H38.0625C38.8368 41.0219 39.5821 40.7213 40.1354 40.1796C40.6888 39.638 41.0052 38.8993 41.0156 38.125V3.86218C41.0018 3.0902 40.6839 2.35486 40.1309 1.81601C39.5779 1.27716 38.8346 0.978351 38.0625 0.984527Z" fill="url(#paint0_linear_5259_1298)"/>
<path d="M6.91 15.9897H12.8523V35.1096H6.91V15.9897ZM9.88281 6.47412C10.5644 6.47412 11.2306 6.67627 11.7973 7.05499C12.3639 7.43371 12.8055 7.97199 13.0662 8.60173C13.3269 9.23147 13.3949 9.92437 13.2617 10.5928C13.1285 11.2612 12.8 11.8751 12.3179 12.3568C11.8357 12.8385 11.2215 13.1664 10.5529 13.2989C9.88441 13.4315 9.19157 13.3628 8.56207 13.1015C7.93258 12.8403 7.39473 12.3982 7.01655 11.8312C6.63836 11.2641 6.43685 10.5977 6.4375 9.91615C6.43837 9.00297 6.80174 8.12748 7.44777 7.48207C8.0938 6.83666 8.96963 6.47412 9.88281 6.47412ZM16.5798 15.9897H22.2761V18.6147H22.3548C23.1489 17.1119 25.0848 15.5271 27.9756 15.5271C33.9934 15.514 35.1091 19.4744 35.1091 24.6096V35.1096H29.1667V25.8072C29.1667 23.5924 29.1273 20.741 26.0791 20.741C23.0308 20.741 22.5123 23.156 22.5123 25.6629V35.1096H16.5798V15.9897Z" fill="white"/>
</g>
<defs>
<linearGradient id="paint0_linear_5259_1298" x1="0.984375" y1="21.0002" x2="41.0156" y2="21.0002" gradientUnits="userSpaceOnUse">
<stop stop-color="#06007B"/>
<stop offset="1" stop-color="#E100B0"/>
</linearGradient>
<clipPath id="clip0_5259_1298">
<rect width="42" height="42" fill="white"/>
</clipPath>
</defs>
</svg>
