<svg width="40" height="40" viewBox="0 0 40 40" fill="none" xmlns="http://www.w3.org/2000/svg">
<rect x="0.5" y="0.5" width="39" height="39" rx="6.5" stroke="#00227B"/>
<path d="M17 28.3333C16.2667 28.3333 15.6391 28.0724 15.1173 27.5507C14.5956 27.0289 14.3342 26.4009 14.3333 25.6667V9.66667C14.3333 8.93333 14.5947 8.30578 15.1173 7.784C15.64 7.26222 16.2676 7.00089 17 7H29C29.7333 7 30.3613 7.26133 30.884 7.784C31.4067 8.30667 31.6676 8.93422 31.6667 9.66667V25.6667C31.6667 26.4 31.4058 27.028 30.884 27.5507C30.3622 28.0733 29.7342 28.3342 29 28.3333H17ZM17 25.6667H29V9.66667H17V25.6667ZM11.6667 33.6667C10.9333 33.6667 10.3058 33.4058 9.784 32.884C9.26222 32.3622 9.00089 31.7342 9 31V12.3333H11.6667V31H26.3333V33.6667H11.6667Z" fill="white"/>
</svg>
