<svg width="32" height="32" viewBox="0 0 32 32" fill="none" xmlns="http://www.w3.org/2000/svg">
<path d="M9.33204 28C8.5987 28 7.97115 27.7391 7.44937 27.2173C6.92759 26.6956 6.66626 26.0676 6.66537 25.3333V8C6.28759 8 5.97115 7.872 5.71604 7.616C5.46092 7.36 5.33292 7.04356 5.33204 6.66667C5.33115 6.28978 5.45915 5.97333 5.71604 5.71733C5.97292 5.46133 6.28937 5.33333 6.66537 5.33333H11.9987C11.9987 4.95556 12.1267 4.63911 12.3827 4.384C12.6387 4.12889 12.9551 4.00089 13.332 4H18.6654C19.0431 4 19.36 4.128 19.616 4.384C19.872 4.64 19.9996 4.95644 19.9987 5.33333H25.332C25.7098 5.33333 26.0267 5.46133 26.2827 5.71733C26.5387 5.97333 26.6663 6.28978 26.6654 6.66667C26.6645 7.04356 26.5365 7.36044 26.2814 7.61733C26.0263 7.87422 25.7098 8.00178 25.332 8V25.3333C25.332 26.0667 25.0711 26.6947 24.5494 27.2173C24.0276 27.74 23.3996 28.0009 22.6654 28H9.33204ZM22.6654 8H9.33204V25.3333H22.6654V8ZM15.9987 18.5333L18.532 21.0667C18.7765 21.3111 19.0876 21.4333 19.4654 21.4333C19.8431 21.4333 20.1543 21.3111 20.3987 21.0667C20.6431 20.8222 20.7654 20.5111 20.7654 20.1333C20.7654 19.7556 20.6431 19.4444 20.3987 19.2L17.8654 16.6667L20.3987 14.1333C20.6431 13.8889 20.7654 13.5778 20.7654 13.2C20.7654 12.8222 20.6431 12.5111 20.3987 12.2667C20.1543 12.0222 19.8431 11.9 19.4654 11.9C19.0876 11.9 18.7765 12.0222 18.532 12.2667L15.9987 14.8L13.4654 12.2667C13.2209 12.0222 12.9098 11.9 12.532 11.9C12.1543 11.9 11.8431 12.0222 11.5987 12.2667C11.3543 12.5111 11.232 12.8222 11.232 13.2C11.232 13.5778 11.3543 13.8889 11.5987 14.1333L14.132 16.6667L11.5987 19.2C11.3543 19.4444 11.232 19.7556 11.232 20.1333C11.232 20.5111 11.3543 20.8222 11.5987 21.0667C11.8431 21.3111 12.1543 21.4333 12.532 21.4333C12.9098 21.4333 13.2209 21.3111 13.4654 21.0667L15.9987 18.5333Z" fill="#FF0000"/>
</svg>
