<svg width="40" height="40" viewBox="0 0 40 40" fill="none" xmlns="http://www.w3.org/2000/svg">
<rect x="0.5" y="0.5" width="39" height="39" rx="6.5" stroke="#00227B"/>
<path d="M11.7778 9.89036C11.7775 10.6566 11.4727 11.3912 10.9307 11.9327C10.3886 12.4742 9.65366 12.7782 8.88747 12.7778C8.12129 12.7775 7.38663 12.4727 6.84512 11.9307C6.30362 11.3886 5.99962 10.6537 6 9.88747C6.00038 9.12129 6.30512 8.38663 6.84717 7.84512C7.38921 7.30362 8.12417 6.99962 8.89036 7C9.65655 7.00038 10.3912 7.30512 10.9327 7.84717C11.4742 8.38921 11.7782 9.12417 11.7778 9.89036ZM11.8645 14.9171H6.08667V33.0017H11.8645V14.9171ZM20.9935 14.9171H15.2445V33.0017H20.9357V23.5116C20.9357 18.2249 27.8258 17.7338 27.8258 23.5116V33.0017H33.5314V21.5471C33.5314 12.6348 23.3335 12.9671 20.9357 17.3438L20.9935 14.9171Z" fill="white"/>
</svg>
