<svg width="25" height="25" viewBox="0 0 25 25" fill="none" xmlns="http://www.w3.org/2000/svg">
<path d="M11.4577 14.5833H13.541V11.4583H16.666V9.375H13.541V6.25H11.4577V9.375H8.33268V11.4583H11.4577V14.5833ZM12.4993 22.9167C9.70421 20.5382 7.61671 18.3292 6.23685 16.2896C4.85699 14.25 4.16671 12.3618 4.16602 10.625C4.16602 8.02083 5.00386 5.94618 6.67956 4.40104C8.35525 2.8559 10.2952 2.08333 12.4993 2.08333C14.7035 2.08333 16.6438 2.8559 18.3202 4.40104C19.9966 5.94618 20.8341 8.02083 20.8327 10.625C20.8327 12.3611 20.1428 14.2493 18.7629 16.2896C17.383 18.3299 15.2952 20.5389 12.4993 22.9167Z" fill="url(#paint0_linear_4414_1651)"/>
<defs>
<linearGradient id="paint0_linear_4414_1651" x1="4.16602" y1="12.5" x2="20.8327" y2="12.5" gradientUnits="userSpaceOnUse">
<stop stop-color="#00227B"/>
<stop offset="1" stop-color="#7800E1"/>
</linearGradient>
</defs>
</svg>
