<svg width="32" height="32" viewBox="0 0 32 32" fill="none" xmlns="http://www.w3.org/2000/svg">
<path d="M23.9987 21.0001C23.9987 23.3112 23.1876 25.2779 21.5654 26.9001C19.9431 28.5223 17.9765 29.3334 15.6654 29.3334C13.3543 29.3334 11.3876 28.5223 9.76536 26.9001C8.14314 25.2779 7.33203 23.3112 7.33203 21.0001V8.66675C7.33203 7.00008 7.91559 5.58364 9.0827 4.41742C10.2498 3.25119 11.6663 2.66764 13.332 2.66675C14.9978 2.66586 16.4147 3.24942 17.5827 4.41742C18.7507 5.58542 19.3338 7.00186 19.332 8.66675V20.3334C19.332 21.3556 18.9765 22.2223 18.2654 22.9334C17.5543 23.6445 16.6876 24.0001 15.6654 24.0001C14.6431 24.0001 13.7765 23.6445 13.0654 22.9334C12.3543 22.2223 11.9987 21.3556 11.9987 20.3334V8.00008H14.6654V20.3334C14.6654 20.6223 14.76 20.8614 14.9494 21.0508C15.1387 21.2401 15.3774 21.3343 15.6654 21.3334C15.9534 21.3325 16.1925 21.2379 16.3827 21.0494C16.5729 20.861 16.6671 20.6223 16.6654 20.3334V8.66675C16.6431 7.73342 16.3156 6.94453 15.6827 6.30008C15.0498 5.65564 14.2663 5.33342 13.332 5.33342C12.3978 5.33342 11.6089 5.65564 10.9654 6.30008C10.3218 6.94453 9.99959 7.73342 9.9987 8.66675V21.0001C9.97648 22.5779 10.5209 23.917 11.632 25.0174C12.7431 26.1179 14.0876 26.6676 15.6654 26.6667C17.2209 26.6667 18.5431 26.117 19.632 25.0174C20.7209 23.9179 21.2876 22.5787 21.332 21.0001V8.00008H23.9987V21.0001Z" fill="white"/>
</svg>
