<svg width="19" height="19" viewBox="0 0 19 19" fill="none" xmlns="http://www.w3.org/2000/svg">
<path d="M7.52083 12.6667C6.08264 12.6667 4.86558 12.1684 3.86967 11.172C2.87375 10.1756 2.37553 8.9585 2.375 7.52083C2.37447 6.08317 2.87269 4.86611 3.86967 3.86967C4.86664 2.87322 6.08369 2.375 7.52083 2.375C8.95797 2.375 10.1753 2.87322 11.1728 3.86967C12.1703 4.86611 12.6683 6.08317 12.6667 7.52083C12.6667 8.10139 12.5743 8.64896 12.3896 9.16354C12.2049 9.67812 11.9542 10.1333 11.6375 10.5292L16.0708 14.9625C16.216 15.1076 16.2885 15.2924 16.2885 15.5167C16.2885 15.741 16.216 15.9257 16.0708 16.0708C15.9257 16.216 15.741 16.2885 15.5167 16.2885C15.2924 16.2885 15.1076 16.216 14.9625 16.0708L10.5292 11.6375C10.1333 11.9542 9.67813 12.2049 9.16354 12.3896C8.64896 12.5743 8.10139 12.6667 7.52083 12.6667ZM7.52083 11.0833C8.51042 11.0833 9.35169 10.7371 10.0447 10.0447C10.7376 9.35222 11.0839 8.51094 11.0833 7.52083C11.0828 6.53072 10.7366 5.68971 10.0447 4.99779C9.35275 4.30588 8.51147 3.95939 7.52083 3.95833C6.53019 3.95728 5.68918 4.30376 4.99779 4.99779C4.3064 5.69182 3.95992 6.53283 3.95833 7.52083C3.95675 8.50883 4.30324 9.35011 4.99779 10.0447C5.69235 10.7392 6.53336 11.0854 7.52083 11.0833Z" fill="white"/>
</svg>
