<svg width="477" height="83" viewBox="0 0 477 83" fill="none" xmlns="http://www.w3.org/2000/svg">
<g clip-path="url(#clip0_5218_1286)">
<mask id="mask0_5218_1286" style="mask-type:luminance" maskUnits="userSpaceOnUse" x="0" y="0" width="477" height="83">
<path d="M476.48 0H0V82.8323H476.48V0Z" fill="white"/>
</mask>
<g mask="url(#mask0_5218_1286)">
<path d="M31.5063 61.8477L0.0585938 82.4956L35.2241 70.0798L31.6085 62.0733L31.5063 61.8477Z" fill="#007E71"/>
<path d="M47.663 51.243L15.8086 27.0713L31.506 61.8481L31.6082 62.0737L35.2238 70.0801L40.8281 82.4942L64.1599 64.2755L47.6175 51.2712L47.663 51.243Z" fill="#FF9F7D"/>
<path d="M47.6626 51.2427L47.6172 51.271L64.1596 64.2753L84.2324 80.0549L133.476 0.197266L47.6626 51.2427Z" fill="#159E90"/>
<path d="M178.209 27.2257C180.317 27.2257 182.329 27.5114 184.245 29.0835L187.934 24.7956C185.25 22.2217 181.563 21.127 178.258 21.127C172.079 21.127 164.32 24.8433 164.32 35.0393C164.32 47.048 173.133 49.7638 178.306 49.7638C181.61 49.7638 185.25 48.5726 187.934 45.9989L184.245 41.7108C182.329 43.2829 180.317 43.5689 178.209 43.5689C175.431 43.5689 170.786 42.4731 170.786 35.1833C170.786 28.7976 174.714 27.2257 178.209 27.2257Z" fill="white"/>
<path d="M226.54 35.0393C226.54 24.8433 219.164 21.126 212.985 21.126C206.807 21.126 199.43 24.8422 199.43 35.0393C199.43 47.048 207.86 49.7639 213.032 49.7639C218.109 49.7639 226.54 47.048 226.54 35.0393ZM205.896 35.1832C205.896 28.7977 209.44 27.2255 212.936 27.2255C216.529 27.2255 220.074 28.7977 220.074 35.1832C220.074 42.4742 215.811 43.6651 212.936 43.6651C210.159 43.6651 205.896 42.4742 205.896 35.1832Z" fill="white"/>
<path d="M258.245 49.4763H264.28V21.3633H257.814V38.1355L246.174 21.3633H240.188V49.4763H246.654V32.9898L258.245 49.4763Z" fill="white"/>
<path d="M296.701 49.4763H302.737V21.3633H296.272V38.1355L284.632 21.3633H278.645V49.4763H285.11V32.9898L296.701 49.4763Z" fill="white"/>
<path d="M317.102 49.4771H336.69V43.3783H323.567V38.9941H334.297V32.8945H323.567V27.4637H336.69V21.3633H317.102V49.4771Z" fill="white"/>
<path d="M363.272 27.2257C365.38 27.2257 367.392 27.5114 369.307 29.0836L372.996 24.7956C370.314 22.2217 366.625 21.127 363.321 21.127C357.142 21.127 349.383 24.8433 349.383 35.0404C349.383 47.0491 358.196 49.7649 363.369 49.7649C366.675 49.7649 370.314 48.5738 372.996 45.9999L369.307 41.7116C367.392 43.284 365.38 43.5699 363.272 43.5699C360.494 43.5699 355.849 42.4742 355.849 35.1843C355.848 28.7976 359.777 27.2257 363.272 27.2257Z" fill="white"/>
<path d="M406.711 21.3633H384.727V27.4629H392.485V49.4763H398.951V27.4629H406.711V21.3633Z" fill="white"/>
<path d="M439.469 43.3783H426.344V38.9941H437.074V32.8945H426.344V27.4637H439.469V21.3633H419.879V49.4771H439.469V43.3783Z" fill="white"/>
<path d="M462.983 21.3633H453.355V49.4763H463.559C468.682 49.4763 476.537 46.6651 476.537 35.0376C476.537 24.8415 469.161 21.3633 462.983 21.3633ZM462.935 43.2812H459.82V27.4629H463.078C466.624 27.4629 470.024 28.8914 470.024 35.1813C470.024 42.4723 465.809 43.2812 462.935 43.2812Z" fill="white"/>
<path d="M318.289 61.7363H315.773V82.8166H318.289V61.7363Z" fill="white"/>
<path d="M330.5 61.7363V82.8155H333.014V65.272L344.975 82.8155H348.243V61.7363H345.73V79.5289L333.698 61.7363H330.5Z" fill="white"/>
<path d="M375.507 77.385C375.507 71.0611 362.075 71.2756 362.075 67.0957C362.075 63.8794 365.702 63.8794 368.108 63.8794C369.438 63.8794 373.459 64.5228 373.459 64.5228V62.3431C372.523 61.9141 370.982 61.5566 367.784 61.5566C363.582 61.5566 359.559 62.4502 359.559 67.0957C359.559 73.6699 372.993 73.1337 372.993 77.4564C372.993 80.064 370.227 80.7073 367.425 80.7073C364.624 80.7073 361.75 79.9213 360.458 79.5282V81.7792C361.787 82.4207 364.336 83.03 367.57 83.03C372.167 83.0312 375.507 81.316 375.507 77.385Z" fill="white"/>
<path d="M389.336 61.7363H386.82V82.8166H389.336V61.7363Z" fill="white"/>
<path d="M418.573 72.3119H412.79V74.6346H416.06V79.53C414.48 80.3509 412.828 80.7095 411.21 80.7095C408.122 80.7095 403.167 79.7088 403.167 71.9914C403.167 65.274 407.404 63.8804 411.21 63.8804C412.754 63.8804 414.515 64.2379 416.095 65.0598L417.354 63.3435C415.523 62.1642 413.294 61.5566 411.247 61.5566C406.003 61.5566 400.652 64.0593 400.652 71.883C400.652 80.9942 407.406 83.03 411.284 83.03C413.223 83.03 416.634 82.4583 418.576 80.5298V72.3119H418.573Z" fill="white"/>
<path d="M447.745 82.8164V61.7363H445.229V71.5611H433.306V61.7363H430.793V82.8164H433.306V73.8123H445.229V82.8164H447.745Z" fill="white"/>
<path d="M468.257 82.8164V63.9866H474.937V61.7363H459.062V63.9866H465.741V82.8164H468.257Z" fill="white"/>
</g>
</g>
<defs>
<clipPath id="clip0_5218_1286">
<rect width="477" height="82.8323" fill="white"/>
</clipPath>
</defs>
</svg>
