<svg width="487" height="184" viewBox="0 0 487 184" fill="none" xmlns="http://www.w3.org/2000/svg">
<g clip-path="url(#clip0_5218_1313)">
<path opacity="0.8" d="M257.228 1.66183C262.559 1.66183 267.981 1.20232 273.31 1.84563C277.904 2.39702 282.224 2.02943 286.727 1.93753C306.762 1.47803 326.888 1.75373 346.923 1.75373C350.965 1.75373 354.549 3.22412 357.491 6.07302C358.685 7.17583 359.421 7.26772 360.891 6.53253C375.595 -1.27897 390.391 -1.37087 405.278 5.88923C406.658 6.53253 407.484 6.71632 408.678 5.52162C415.387 -0.911373 425.221 -0.911374 432.021 5.42972C434.594 7.81913 436.985 10.3004 439.65 12.7817C443.325 4.69453 449.484 1.38613 457.937 1.75373C460.143 1.84563 462.257 1.75373 464.463 1.75373C475.399 1.84563 482.292 8.83003 482.292 19.6742C482.292 37.5028 482.292 55.4233 482.292 73.2519C482.292 74.3547 482.108 75.4576 482.016 76.5602C481.923 77.663 482.383 78.3064 483.025 79.0415C487.898 85.1989 488.356 92.6428 484.037 99.2596C476.41 111.207 468.782 123.154 461.062 135.009C460.326 136.203 459.959 137.398 459.959 138.777C459.959 147.599 460.051 156.421 459.959 165.244C459.776 175.537 451.598 182.705 441.028 181.694C438.18 181.418 435.238 181.51 432.39 181.786C423.199 182.521 416.859 178.845 413.275 170.39C412.998 170.85 412.723 171.125 412.631 171.401C410.058 178.018 402.98 181.878 395.905 181.786C390.76 181.786 385.612 181.786 380.559 181.786C377.525 181.786 374.859 180.959 372.195 179.58C369.347 178.018 367.416 175.537 365.578 172.872C360.616 179.305 356.849 181.694 350.965 181.694C338.928 181.786 326.797 181.786 314.757 181.694C308.323 181.602 302.903 178.661 300.697 172.688C298.859 167.817 296.103 167.174 291.783 167.449C289.944 167.541 288.291 168.736 287.647 170.482C284.613 178.202 279.193 181.694 270.737 181.694C263.57 181.694 256.4 181.694 249.233 181.694C230.67 181.694 212.197 181.694 193.633 181.694C191.244 181.694 188.854 180.499 186.649 180.867C179.573 182.337 172.496 181.51 165.42 181.51C158.895 181.602 153.565 178.386 151.175 172.32C149.429 168.001 147.132 166.99 142.904 167.266C140.423 167.449 139.137 167.909 138.218 170.39C135.093 178.569 128.568 182.245 119.47 181.418C116.529 181.142 113.588 181.051 110.647 181.418C103.847 182.153 98.241 180.132 94.3813 174.985C93.4623 173.699 92.9109 173.974 91.808 174.618C79.6773 182.337 66.3519 184.451 52.3831 182.521C15.5311 177.558 -6.1573 139.695 8.08719 105.325C10.5685 99.2596 14.2445 93.9295 18.7476 88.875C18.1043 88.5991 17.7367 88.3235 17.3691 88.2316C8.63859 84.5555 5.23831 77.4794 6.80059 66.9108C6.89249 66.1755 6.7087 65.4404 6.43301 64.7051C6.24919 64.2457 6.6168 63.0511 6.24919 62.7753C3.30839 60.6615 1.9299 57.1695 0 54.1368V35.5729C1.7461 33.8267 1.7461 30.9779 3.76789 29.5075C6.43301 27.4857 6.80059 24.8207 6.5249 21.8798C6.43301 20.777 6.5249 19.6742 6.5249 18.5714C6.5249 14.8954 7.62771 11.2194 9.92519 8.27863C13.6931 3.49983 18.5638 1.66183 24.4454 1.66183C41.9065 1.75373 59.4592 1.66183 76.9202 1.66183C83.0776 1.66183 89.2348 1.75373 95.4841 1.66183C103.847 1.56993 111.934 2.94843 119.47 6.80822C120.665 7.45152 121.4 7.35962 122.319 6.44063C124.249 4.32692 126.73 2.58082 129.579 2.39702C139.78 1.66183 150.44 -1.00328 158.16 9.28952C161.285 4.97022 165.236 2.30513 170.291 1.93753C174.61 1.56992 179.021 1.56992 183.34 1.93753C186.281 1.84563 189.681 1.93752 191.336 3.59173C192.806 5.06212 192.714 6.71632 195.563 6.71632C199.055 6.16492 201.169 1.29423 216.057 0.834725C223.684 0.0995248 230.853 1.66183 237.837 4.51071C238.757 4.87832 239.582 5.61352 240.593 4.87832C243.627 2.67273 247.027 1.66183 250.794 1.75373" fill="#050505"/>
<path d="M35.9335 133.171C38.0471 145.945 52.1078 155.411 65.3416 153.021C75.6343 151.183 82.4348 145.21 85.7432 135.193C86.2946 133.447 85.8351 132.987 84.0891 132.987C77.2884 133.079 70.4878 132.895 63.6873 133.079C61.0221 133.171 60.379 132.252 60.5626 129.862C60.7465 127.198 60.6546 124.624 60.5626 121.959C60.4707 120.305 61.0221 119.754 62.6764 119.754C74.8071 119.846 87.0299 119.754 99.1606 119.754C100.171 119.754 101.091 119.57 101.274 121.132C102.193 133.722 99.5283 145.21 90.4301 154.492C78.5751 166.439 64.1468 169.196 48.432 164.693C33.1764 160.281 23.7107 149.713 20.8619 133.998C16.175 108.542 37.7715 85.6586 63.9629 88.1399C74.899 89.1508 84.181 93.562 91.6249 101.833C92.8195 103.12 93.0034 103.855 91.3491 104.958C88.5922 106.796 85.8351 108.909 83.2619 111.023C81.8834 112.126 81.24 112.034 80.0455 110.655C73.7044 102.936 65.4333 99.9032 55.7839 102.017C45.8587 104.131 39.2419 110.38 36.0255 120.029C35.8416 120.581 35.8416 121.132 35.7497 121.592C34.8307 125.451 34.7387 129.311 35.9335 133.171Z" fill="#A2CB39"/>
<path d="M149.243 89.7941C158.617 112.034 168.083 134.274 177.457 156.514C178.376 158.719 179.386 161.017 180.397 163.222C180.949 164.417 181.132 165.244 179.295 165.244C175.435 165.152 171.483 165.152 167.623 165.244C166.153 165.244 165.785 164.509 165.326 163.406C163.947 159.822 162.385 156.33 161.006 152.838C160.547 151.551 159.812 151.091 158.433 151.091C148.968 151.183 139.502 151.091 130.128 151.091C128.842 151.091 128.198 151.643 127.739 152.746C126.36 156.238 124.89 159.638 123.603 163.13C123.052 164.693 122.225 165.428 120.478 165.336C117.078 165.152 113.586 165.244 110.094 165.336C108.072 165.428 107.796 164.968 108.623 163.13C113.954 151 119.284 138.869 124.614 126.738C127.831 119.386 130.955 112.126 134.264 104.774C135.091 102.936 134.999 102.201 132.701 102.293C128.658 102.384 124.522 102.201 120.478 102.384C118.365 102.476 117.813 101.741 117.905 99.7195C118.089 96.411 117.905 93.1946 117.905 89.886C128.29 89.5185 138.767 89.5185 149.243 89.7941ZM144.464 111.575C140.788 120.489 137.48 128.576 134.172 136.755C133.62 138.134 133.988 138.501 135.366 138.501C141.432 138.501 147.497 138.501 153.655 138.501C154.849 138.501 155.309 138.134 154.757 136.847C154.022 135.193 153.379 133.447 152.735 131.793C149.978 125.268 147.405 118.743 144.464 111.575Z" fill="#A2CB39"/>
<path d="M330.471 165.152C325.601 165.152 321.282 165.06 316.962 165.152C315.584 165.152 315.123 164.509 314.664 163.406C313.286 159.914 311.815 156.514 310.437 153.022C309.886 151.551 309.15 150.908 307.495 150.908C298.213 151 288.932 151 279.742 150.908C278.179 150.908 277.445 151.367 276.984 152.838C275.698 156.33 274.136 159.73 272.85 163.222C272.298 164.785 271.378 165.244 269.817 165.152C266.417 165.06 263.108 165.06 259.708 165.152C257.502 165.244 257.043 164.785 257.963 162.671C263.567 150.173 268.989 137.582 274.503 124.992C277.445 118.191 280.384 111.299 283.51 104.498C284.337 102.568 284.062 102.017 281.948 102.017C277.812 102.109 273.584 102.017 269.45 102.109C267.795 102.109 267.244 101.557 267.244 99.9032C267.336 97.1463 267.336 94.4811 267.244 91.7242C267.153 90.07 267.611 89.5186 269.358 89.5186C278.456 89.6105 287.554 89.6105 296.652 89.5186C298.03 89.5186 298.766 89.8863 299.316 91.2648C307.036 109.461 314.756 127.749 322.476 145.945C325.049 152.194 327.621 158.444 330.471 165.152ZM293.802 111.575C290.31 120.121 287.093 128.025 283.879 135.928C283.785 136.204 283.693 136.48 283.601 136.663C282.776 138.226 283.51 138.501 284.979 138.409C290.863 138.317 296.744 138.317 302.625 138.409C304.464 138.409 304.647 137.858 303.911 136.296C302.9 133.998 301.983 131.609 301.063 129.219C298.674 123.614 296.377 117.916 293.802 111.575Z" fill="#A2CB39"/>
<path d="M360.803 105.509C362.456 108.633 364.203 111.666 366.04 115.25C368.52 111.114 370.818 107.438 373.115 103.763C375.507 99.8108 377.987 95.8589 380.285 91.8155C381.113 90.3451 382.121 89.6098 383.96 89.7018C387.452 89.8854 391.036 89.7018 394.622 89.7937C395.356 89.7937 396.367 89.7018 396.642 90.0693C397.286 90.8963 396.367 91.5397 395.908 92.1831C389.199 103.211 382.491 114.239 375.598 125.083C374.404 126.921 374.495 128.208 375.598 129.954C382.399 140.798 389.016 151.734 395.725 162.67C396.183 163.314 397.011 164.049 396.734 164.784C396.275 165.795 395.172 165.244 394.253 165.244C390.577 165.244 386.994 165.152 383.318 165.335C381.296 165.427 380.193 164.784 379.274 163.038C375.507 156.145 371.554 149.253 367.603 142.36C367.234 141.625 366.776 140.982 366.315 140.339C365.212 140.523 365.028 141.441 364.662 142.085C360.434 148.977 356.206 155.87 352.163 162.854C351.061 164.784 349.774 165.427 347.66 165.335C343.616 165.152 339.573 165.244 335.162 165.244C336.357 162.211 338.193 159.913 339.665 157.524C345.271 148.242 350.877 139.052 356.666 129.954C357.861 128.116 357.769 126.921 356.666 125.083C349.774 114.055 343.065 103.027 336.265 91.9072C335.896 91.356 335.621 90.8046 335.07 89.7018C338.01 89.7018 340.676 89.7018 343.341 89.7018C344.996 89.7018 346.649 89.8854 348.211 89.7018C350.6 89.4259 352.255 90.2532 353.266 92.3667C355.011 97.1457 358.044 101.189 360.803 105.509Z" fill="#A2CB39"/>
<path d="M207.141 90.1632C207.049 90.8064 207.049 91.4497 207.049 92.0931C207.049 110.933 207.141 129.864 206.957 148.703C206.957 151.277 207.784 151.828 210.173 151.828C218.261 151.736 226.349 151.736 234.435 151.828C236.366 151.828 237.1 151.736 236.825 149.071C236.18 144.384 236.641 139.697 236.549 134.919C236.549 133.724 237.469 133.724 238.294 133.724C241.878 133.724 245.372 133.816 248.956 133.724C250.242 133.724 250.701 134.183 250.701 135.47C250.701 144.752 250.701 154.034 250.701 163.224C250.701 164.602 250.242 165.154 248.772 165.154C230.852 165.154 213.023 165.154 195.102 165.154C193.632 165.154 192.988 164.786 192.988 163.224C193.08 138.686 193.08 114.241 193.08 89.7037C197.767 89.7037 202.454 89.2443 207.141 90.1632Z" fill="#A2CB39"/>
<path d="M436.439 118.743C441.861 109.921 447.098 101.466 452.154 92.919C453.532 90.5297 455.093 89.4268 457.943 89.6105C461.343 89.8863 464.835 89.7024 468.327 89.7024C469.983 89.7024 470.258 90.0702 469.338 91.5406C464.468 98.9845 459.688 106.52 454.91 113.964C451.326 119.57 447.742 125.268 444.067 130.966C443.423 131.976 443.423 132.987 443.423 134.09C443.423 143.648 443.331 153.205 443.423 162.671C443.423 164.601 442.964 165.428 440.85 165.336C437.725 165.152 434.691 165.152 431.569 165.336C429.73 165.428 429.269 164.785 429.363 163.039C429.455 153.573 429.363 144.107 429.455 134.734C429.455 132.895 428.994 131.425 427.983 129.955C419.896 117.456 411.901 104.866 403.814 92.3676C403.353 91.7242 402.436 91.0811 402.895 90.2539C403.353 89.4268 404.364 89.8863 405.1 89.8863C408.776 89.8863 412.359 89.9783 416.037 89.7944C417.874 89.7024 418.793 90.3458 419.712 91.8162C424.86 100.455 430.188 109.001 435.427 117.64C435.703 117.824 435.978 118.008 436.439 118.743Z" fill="#A2CB39"/>
<path d="M74.16 45.6821C74.16 37.4112 74.2517 29.1403 74.16 20.8692C74.16 18.9393 74.4356 18.2041 76.6413 18.2041C84.9122 18.4798 93.1831 17.8365 101.362 18.5717C116.25 19.9502 126.543 31.4377 126.359 46.0499C126.175 60.0185 115.147 71.6899 100.719 72.5169C92.3561 72.9764 83.9933 72.6089 75.6304 72.7008C73.8842 72.7008 74.0681 71.6899 74.0681 70.5871C74.16 62.3161 74.0681 53.9533 74.16 45.6821ZM84.2689 45.4985C84.2689 50.7367 84.2689 56.0668 84.2689 61.3052C84.2689 62.6837 84.6366 63.2351 86.107 63.2351C90.1504 63.1432 94.286 63.3271 98.3296 63.1432C104.119 62.8676 109.174 60.7538 112.758 55.9751C116.893 50.4611 117.445 44.3956 114.596 38.2383C111.563 31.6216 105.957 28.5889 98.973 28.0375C94.8374 27.7616 90.6101 28.0375 86.4746 27.8536C84.5447 27.7616 84.2689 28.5889 84.2689 30.2429C84.3608 35.3894 84.2689 40.4439 84.2689 45.4985Z" fill="white"/>
<path d="M383.961 73.8962C367.235 73.8962 354.553 61.5816 354.645 45.3152C354.737 29.6004 367.602 17.102 383.961 17.1939C400.226 17.1939 413.185 29.6923 413.277 45.4071C413.185 61.3978 400.41 73.8962 383.961 73.8962ZM402.34 45.7747C402.432 35.5739 394.162 26.9352 384.145 26.8435C373.944 26.7515 365.304 35.1144 365.213 45.4071C365.121 55.6999 373.577 64.3385 383.686 64.3385C393.795 64.3385 402.249 55.9757 402.34 45.7747Z" fill="white"/>
<path d="M44.2071 72.7929C37.9578 72.7929 31.7087 72.7009 25.3676 72.7929C23.6214 72.7929 23.07 72.3334 23.07 70.4953C23.1619 64.4298 22.9781 58.3646 23.1619 52.2072C23.2539 49.8178 22.4269 49.3584 20.405 49.634C19.9455 49.7259 19.486 49.542 19.0265 49.634C17.0966 49.9098 16.3614 49.1745 16.6371 47.2446C16.729 46.6932 16.6371 46.1418 16.6371 45.5903C16.6371 43.8443 16.0857 41.8225 16.9128 40.5358C17.8318 38.9737 20.0374 40.0763 21.6916 39.9846C23.2539 39.8926 23.1619 39.0654 23.1619 38.0547C23.1619 32.2649 23.2539 26.3833 23.1619 20.5936C23.1619 18.7556 23.5295 18.1123 25.5513 18.1123C37.8661 18.2042 50.2726 18.2042 62.5871 18.1123C64.6089 18.1123 65.344 18.6637 65.0684 20.6855C64.7926 22.983 66.0793 26.1077 64.517 27.3942C63.2302 28.4971 60.1977 27.7618 57.9921 27.7618C50.5482 27.7618 43.1043 27.8537 35.6604 27.7618C34.0061 27.7618 33.1791 28.0376 33.363 29.9675C33.5466 32.5407 33.5466 35.022 33.363 37.595C33.271 39.3412 33.7305 39.8926 35.5684 39.8926C41.45 39.8007 47.4235 39.8927 53.3051 39.8007C55.2352 39.8007 55.6946 40.3521 55.5108 42.0981C55.2352 44.4877 56.5217 47.7041 54.9593 49.1745C53.6728 50.3693 50.6401 49.542 48.3425 49.542C44.1152 49.542 39.7959 49.634 35.5684 49.542C34.0061 49.542 33.271 49.8178 33.363 51.5638C33.5466 54.6885 33.5466 57.7212 33.363 60.8459C33.271 62.7758 34.0061 63.0514 35.6604 63.0514C44.5747 62.9594 53.4889 63.0514 62.4032 62.9594C64.425 62.9594 65.4359 63.2352 65.1603 65.5326C64.8845 67.7383 65.8035 70.6791 64.7009 72.0576C63.5061 73.528 60.4734 72.4251 58.1759 72.5171C53.397 72.7929 48.8022 72.7929 44.2071 72.7929Z" fill="white"/>
<path d="M420.445 17.1016C432.301 28.7728 443.697 39.8928 455.645 51.6559C455.645 47.5206 455.645 44.212 455.645 40.9037C455.645 34.1949 455.736 27.4863 455.645 20.7776C455.645 18.9396 456.012 18.1125 458.034 18.2963C460.515 18.572 463.915 17.2854 465.293 18.8477C466.579 20.2262 465.754 23.5346 465.754 25.924C465.754 40.9956 465.754 56.0671 465.754 71.1388C465.754 71.8741 465.754 72.6091 465.754 73.9876C453.989 62.4084 442.594 51.1964 430.74 39.617C430.74 41.5471 430.74 42.9255 430.74 44.304C430.74 52.9426 430.648 61.5811 430.832 70.2198C430.832 72.4253 430.187 73.0686 428.074 72.885C426.237 72.7011 424.398 72.7011 422.651 72.885C420.998 72.9767 420.539 72.4253 420.539 70.7712C420.631 61.3974 420.539 52.0235 420.539 42.7416C420.445 34.3788 420.445 26.1079 420.445 17.1016Z" fill="white"/>
<path d="M261.638 18.2969C264.761 18.2969 267.795 18.3888 270.92 18.2969C272.298 18.205 273.034 18.7564 273.584 20.043C280.752 37.0446 287.921 53.9542 295.089 70.8638C295.825 72.5178 295.458 72.8856 293.802 72.7936C290.955 72.7017 287.829 73.5287 285.44 72.4261C283.051 71.3233 282.866 67.6472 281.854 65.1659C281.029 63.1441 280.11 62.5009 277.904 62.5009C271.839 62.6846 265.772 62.5926 259.616 62.5009C258.238 62.5009 257.319 62.7765 257.041 64.2469C256.95 64.5225 256.858 64.7064 256.766 64.9822C255.663 67.4635 255.297 70.7718 253.458 72.2422C251.435 73.8046 248.035 72.5178 245.279 72.7936C242.89 72.9773 243.073 72.0583 243.809 70.4043C249.782 56.9869 255.572 43.4776 261.545 30.0602C262.464 28.0383 262.556 27.2113 259.891 27.395C257.319 27.5789 254.652 27.395 251.988 27.4869C250.61 27.4869 250.149 27.2113 250.149 25.7407C249.966 18.3888 249.874 18.3888 257.319 18.3888C258.697 18.2969 260.167 18.2969 261.638 18.2969ZM269.264 34.1955C266.692 40.5368 264.394 46.2345 262.005 51.9324C261.361 53.4027 261.914 53.5864 263.2 53.5864C267.242 53.4947 271.378 53.4947 275.423 53.5864C276.801 53.5864 276.984 53.2189 276.434 52.0243C274.228 46.3264 271.931 40.6287 269.264 34.1955Z" fill="white"/>
<path d="M182.148 36.3995C182.148 41.1784 182.24 46.0491 182.148 50.8278C181.964 64.521 171.764 73.9867 157.243 73.8948C144.01 73.8028 133.809 63.8776 133.717 50.7358C133.625 40.7189 133.717 30.7937 133.625 20.7765C133.625 18.6629 134.176 18.0196 136.198 18.2952C138.68 18.5709 142.08 17.1924 143.458 18.9385C144.653 20.409 143.826 23.6254 143.826 26.1067C143.826 33.9182 143.734 41.7298 143.918 49.5413C144.01 55.3309 146.307 60.2015 151.729 62.9587C160.276 67.3698 170.109 62.1316 171.672 52.3901C171.947 50.8278 172.039 49.1737 172.039 47.5195C172.039 38.6052 172.131 29.6909 172.039 20.8684C172.039 19.1223 172.223 18.1115 174.337 18.3871C176.818 18.6629 180.127 17.3763 181.689 18.8466C183.251 20.317 182.148 23.6254 182.148 26.1987C182.24 29.507 182.148 32.9073 182.148 36.3995Z" fill="white"/>
<path d="M218.628 73.8955C206.129 73.8036 195.469 66.6355 191.241 55.5155C187.106 44.3958 190.23 32.2649 199.237 24.2696C210.908 13.9768 230.299 15.0796 240.592 26.6589C241.694 27.8537 242.153 28.7727 240.408 29.6916C240.133 29.7836 239.947 30.0592 239.764 30.1511C237.927 31.5296 236.272 33.5514 234.25 34.0109C232.138 34.4703 231.218 31.4378 229.563 30.2431C221.201 24.0857 209.07 26.4752 203.096 35.5732C197.307 44.4875 200.431 56.8022 209.897 61.9485C217.709 66.176 226.715 64.7973 232.688 58.1807C233.791 56.9859 234.344 56.9859 235.444 57.9049C236.733 59.0077 238.111 60.1106 239.672 60.9376C241.878 62.1324 241.97 63.2352 240.133 65.0732C234.158 70.9547 226.99 73.8955 218.628 73.8955Z" fill="white"/>
<path d="M313.563 50.5535C313.563 57.2621 313.472 63.9709 313.563 70.6795C313.563 72.3337 313.194 72.8852 311.449 72.7932C309.427 72.6093 307.405 72.6093 305.476 72.7932C303.729 72.8852 303.363 72.3337 303.363 70.6795C303.454 57.446 303.363 44.2124 303.454 30.8868C303.454 28.5893 303.087 27.6704 300.513 27.854C296.929 28.1299 293.253 27.854 289.67 27.946C288.106 27.946 287.281 27.7623 287.464 25.9242C287.647 23.5348 286.545 20.4102 287.923 18.848C289.392 17.1937 292.517 18.3884 294.907 18.2966C305.66 18.2047 316.319 18.2965 327.073 18.2047C329.187 18.2047 329.829 18.7561 329.554 20.7778C329.278 23.0753 330.565 26.2 329.003 27.4865C327.715 28.5894 324.684 27.854 322.386 27.854C320.089 27.854 317.883 27.946 315.586 27.854C313.838 27.7623 313.472 28.4055 313.472 30.0597C313.655 36.9522 313.563 43.7527 313.563 50.5535Z" fill="white"/>
<path d="M336.359 45.6818C336.359 37.5028 336.45 29.3236 336.267 21.1446C336.175 18.5713 337.001 18.0199 339.298 18.2957C340.862 18.4794 342.423 18.4794 343.893 18.2957C345.823 18.1119 346.559 18.6633 346.559 20.777C346.468 37.4108 346.468 54.0448 346.559 70.6786C346.559 72.241 346.19 72.9763 344.445 72.8843C341.873 72.7004 338.473 73.8952 336.817 72.4248C335.256 71.0462 336.359 67.6459 336.359 65.0727C336.267 58.548 336.359 52.1147 336.359 45.6818Z" fill="white"/>
</g>
<defs>
<clipPath id="clip0_5218_1313">
<rect width="487" height="183.444" fill="white" transform="translate(0 0.555664)"/>
</clipPath>
</defs>
</svg>
