<svg width="446" height="96" viewBox="0 0 446 96" fill="none" xmlns="http://www.w3.org/2000/svg">
<mask id="mask0_5218_1335" style="mask-type:luminance" maskUnits="userSpaceOnUse" x="0" y="0" width="446" height="96">
<path d="M445.793 0.164062H0V95.347H445.793V0.164062Z" fill="white"/>
</mask>
<g mask="url(#mask0_5218_1335)">
<path d="M433.134 33.6213C429.34 29.6331 425.552 25.6417 421.765 21.6471C418.137 17.8065 414.454 13.9993 410.362 10.7011C406.454 7.48196 402.091 4.92246 397.43 3.11503C392.744 1.38398 387.835 0.40526 382.869 0.211947C377.774 -0.0166153 372.675 0.574006 367.75 1.96332C362.977 3.31367 358.448 5.47258 354.337 8.35485C350.406 11.135 346.882 14.5019 343.878 18.3492C340.826 22.2242 338.417 26.6119 336.756 31.3274C335.93 33.7107 335.297 36.1622 334.86 38.6564H286.638V61.2245H306.595C303.226 66.9353 297.524 70.1953 289.359 70.1953C277.179 70.1953 268.629 60.5439 268.629 47.7655C268.629 34.9871 277.048 25.3261 289.236 25.3261C296.103 25.3261 301.542 27.5009 304.787 34.2971L332.515 27.363C326.672 10.3728 310.102 0.164356 289.236 0.164356C267.395 0.164356 249.601 14.0468 243.735 33.5737C243.735 33.4975 243.735 33.4214 243.735 33.3452C243.735 14.7227 231.165 2.21555 212.378 2.21555H164.948V87.8424L132.679 2.21555H102.492L69.9684 88.4942V70.0479H26.8216V58.2261H65.8314V37.2858H26.8216V25.4593H69.3198V2.21555H0V93.2961H96.7902L100.936 80.9224H134.235L138.381 93.2961H191.779V65.2937H193.594L216.137 93.2961H248.271L223.654 63.1187C232.35 59.982 238.696 53.7191 241.735 45.3145C241.694 46.1235 241.676 46.9374 241.676 47.7559C241.676 74.4072 262.542 95.3475 289.227 95.3475C313.227 95.3475 331.072 80.3326 334.951 57.3884C335.385 59.7078 335.992 61.988 336.765 64.2084C338.427 68.9237 340.834 73.3115 343.886 77.1865C346.891 81.0335 350.416 84.4005 354.347 87.1806C358.456 90.063 362.987 92.222 367.76 93.5725C372.685 94.9616 377.784 95.5522 382.879 95.3236C387.843 95.1307 392.752 94.1519 397.439 92.4208C402.093 90.6048 406.449 88.0394 410.349 84.8157C414.432 81.5124 418.124 77.7051 421.753 73.8692C425.536 69.872 429.325 65.8805 433.119 61.8956C436.93 57.8834 445.776 47.794 445.78 47.7607C445.785 47.7274 436.944 37.6332 433.134 33.6213ZM108.838 57.6788L117.652 31.7129L126.333 57.6788H108.838ZM206.548 43.5393H191.779V25.0548H206.548C213.29 25.0548 217.436 28.7241 217.436 34.0258C217.436 39.87 213.29 43.5393 206.548 43.5393ZM399.961 59.992C396.528 63.5466 392.808 67.1826 388.213 68.8535C385.68 69.758 383.019 70.2082 380.343 70.1859C380.12 70.1859 379.889 70.1859 379.681 70.1859C369.465 69.648 361.328 59.8061 361.328 47.7559C361.328 35.7058 369.465 25.8639 379.677 25.345C379.898 25.345 380.129 25.345 380.343 25.345C383.019 25.3225 385.68 25.773 388.213 26.6777C392.808 28.3481 396.528 31.9841 399.961 35.5392C402.035 37.6665 411.279 47.7559 411.279 47.7559C411.279 47.7559 402.035 57.8453 399.961 59.992Z" fill="#FF5E2B"/>
</g>
</svg>
