<svg width="487" height="97" viewBox="0 0 487 97" fill="none" xmlns="http://www.w3.org/2000/svg">
<g clip-path="url(#clip0_5218_1336)">
<path fill-rule="evenodd" clip-rule="evenodd" d="M277.386 67.5474H284.724V32.1007C284.724 30.811 284.427 29.5214 284.427 29.5214C284.427 29.5214 289.979 27.2573 294.738 27.2573C300.884 27.2573 303.812 31.1583 303.812 36.9615V67.5474H311.099V35.6689C311.099 32.5471 310.604 20.4971 294.837 20.4824C284.774 20.4767 276.691 25.4075 276.691 25.4075C276.691 25.4075 277.188 28.4331 277.188 30.1166C277.188 31.803 277.386 67.5474 277.386 67.5474Z" fill="white"/>
<path fill-rule="evenodd" clip-rule="evenodd" d="M320.816 67.5474H328.153V32.1007C328.153 30.811 327.855 29.5214 327.855 29.5214C327.855 29.5214 333.408 27.2573 338.166 27.2573C344.314 27.2573 347.24 31.1583 347.24 36.9615V67.5474H354.529V35.6689C354.529 32.5471 354.033 20.4971 338.266 20.4824C328.203 20.4767 320.121 25.4075 320.121 25.4075C320.121 25.4075 320.617 28.4331 320.617 30.1166C320.617 31.803 320.816 67.5474 320.816 67.5474Z" fill="white"/>
<path fill-rule="evenodd" clip-rule="evenodd" d="M178.133 21.4746V58.5582C178.133 60.7406 178.924 67.4804 178.924 67.4804H186.329C186.329 67.4804 185.535 61.1374 185.535 58.955C185.535 56.7755 185.67 21.4746 185.67 21.4746H178.133Z" fill="white"/>
<path fill-rule="evenodd" clip-rule="evenodd" d="M363.77 21.4746V58.5582C363.77 60.7406 364.56 67.4804 364.56 67.4804H371.966C371.966 67.4804 371.172 61.1374 371.172 58.955C371.172 56.7755 371.305 21.4746 371.305 21.4746H363.77Z" fill="white"/>
<path fill-rule="evenodd" clip-rule="evenodd" d="M197.498 67.4792C197.498 67.4792 196.641 61.5971 196.641 59.1521V1.24805H203.975V59.9458C203.975 62.6562 204.903 67.4792 204.903 67.4792H197.498Z" fill="white"/>
<path fill-rule="evenodd" clip-rule="evenodd" d="M216.611 67.4411C216.611 67.4411 215.754 61.559 215.754 59.114V1.20996H223.091V59.9076C223.091 62.6182 224.017 67.4411 224.017 67.4411H216.611Z" fill="white"/>
<path fill-rule="evenodd" clip-rule="evenodd" d="M107.709 67.4788H115.079V32.7089C115.079 31.2529 114.814 29.6745 114.814 29.6745C114.814 29.6745 120.5 27.0341 124.926 27.0895C130.423 27.1625 133.42 29.7737 133.719 32.9744C133.866 34.5382 134.181 67.4788 134.181 67.4788H141.452V34.8242C141.452 33.5667 140.658 29.6745 140.658 29.6745C140.658 29.6745 145.948 27.0895 150.84 27.0895C155.731 27.0895 158.112 29.6745 158.112 29.6745C160.174 31.5681 160.227 35.4836 160.227 35.4836V67.4788H167.564V34.6929V33.237C167.564 28.6066 165.071 20.3467 151.964 20.3467C143.436 20.3467 137.224 24.2476 137.224 24.2476C137.224 24.2476 133.851 20.3467 125.191 20.3467C116.532 20.3467 106.883 25.3039 106.883 25.3039C106.883 25.3039 107.709 27.816 107.709 29.339V67.4788Z" fill="white"/>
<path fill-rule="evenodd" clip-rule="evenodd" d="M427.036 67.4788H434.407V32.7089C434.407 31.2529 434.144 29.6745 434.144 29.6745C434.144 29.6745 439.828 27.0341 444.256 27.0895C449.751 27.1625 452.747 29.7737 453.048 32.9744C453.193 34.5382 453.511 67.4788 453.511 67.4788H460.782V34.8242C460.782 33.5667 459.989 29.6745 459.989 29.6745C459.989 29.6745 465.275 27.0895 470.168 27.0895C475.059 27.0895 477.439 29.6745 477.439 29.6745C479.502 31.5681 479.554 35.4836 479.554 35.4836V67.4788H486.893V34.6929V33.237C486.893 28.6066 484.398 20.3467 471.291 20.3467C462.763 20.3467 456.552 24.2476 456.552 24.2476C456.552 24.2476 453.179 20.3467 444.52 20.3467C435.86 20.3467 426.211 25.3039 426.211 25.3039C426.211 25.3039 427.036 27.816 427.036 29.339V67.4788Z" fill="white"/>
<path fill-rule="evenodd" clip-rule="evenodd" d="M239.277 40.5453C239.277 38.7189 240.202 27.2583 250.515 27.2583C261.092 27.2583 261.265 39.1361 261.486 40.6183C251.87 40.5862 247.682 40.5862 239.277 40.5453ZM269.551 41.9662C269.551 39.2586 268.693 20.4834 250.381 20.4834C232.073 20.4834 231.215 41.374 231.146 44.0144C230.815 56.7063 239.74 75.9425 266.312 65.5001L264.2 59.6823C264.2 59.6823 259.767 61.9143 254.151 61.8647C239.74 61.7334 239.213 47.1888 239.213 47.1888H269.022C269.022 47.1888 269.551 44.6768 269.551 41.9662Z" fill="white"/>
<path fill-rule="evenodd" clip-rule="evenodd" d="M381.332 21.4746H388.669V52.081C388.669 54.3918 389.496 61.7968 398.354 61.7968C404.601 61.7968 409.688 59.4831 409.688 59.4831V21.4746H417.094V57.2365C417.094 59.8799 417.753 63.5153 417.753 63.5153C417.753 63.5153 407.576 68.6038 397.989 68.6038C388.404 68.6038 381.332 62.9201 381.332 53.995V21.7402" fill="white"/>
<path fill-rule="evenodd" clip-rule="evenodd" d="M33.991 33.5031L21.1328 20.7412L26.726 39.1254L33.991 33.5031Z" fill="#AECCC5"/>
<path fill-rule="evenodd" clip-rule="evenodd" d="M31.2773 26.1109L50.2305 43.7366L60.4657 29.618L38.8604 16.541L31.2773 26.1109Z" fill="#90C74B"/>
<path fill-rule="evenodd" clip-rule="evenodd" d="M65.6737 22.8877L61.125 37.1989L79.6347 49.6457L84.373 31.3869L65.6737 22.8877Z" fill="#AECCC5"/>
<path fill-rule="evenodd" clip-rule="evenodd" d="M19.2386 41.905L12.668 41.7183L21.1322 20.7432L19.2386 41.905Z" fill="#6B9A89"/>
<path fill-rule="evenodd" clip-rule="evenodd" d="M12.6684 41.7154L8.02344 38.6518L21.1325 20.7402L12.6684 41.7154Z" fill="#47816D"/>
<path fill-rule="evenodd" clip-rule="evenodd" d="M8.02592 38.6528L6.25781 33.5031L21.135 20.7412L8.02592 38.6528Z" fill="#246E58"/>
<path fill-rule="evenodd" clip-rule="evenodd" d="M6.25781 33.5031L6.82676 27.3118L21.135 20.7412L6.25781 33.5031Z" fill="#1B5947"/>
<path fill-rule="evenodd" clip-rule="evenodd" d="M6.82422 27.3109L10.1095 20.7402H21.1325L6.82422 27.3109Z" fill="#2E4F41"/>
<path fill-rule="evenodd" clip-rule="evenodd" d="M79.6359 49.645L67.0491 67.1452L50.9844 50.7508L61.1262 37.1982L79.6359 49.645Z" fill="#94B6AA"/>
<path fill-rule="evenodd" clip-rule="evenodd" d="M67.047 67.1454L49.436 79.5601L37.2109 60.7324L50.9852 50.751L67.047 67.1454Z" fill="#6B9A89"/>
<path fill-rule="evenodd" clip-rule="evenodd" d="M50.9831 50.7513L33.9877 33.502L26.7227 39.1273L37.2117 60.7325L50.9831 50.7513Z" fill="#94B6AA"/>
<path fill-rule="evenodd" clip-rule="evenodd" d="M21.1358 20.7412L19.2422 41.903L26.7289 39.1254L21.1358 20.7412Z" fill="#94B6AA"/>
<path fill-rule="evenodd" clip-rule="evenodd" d="M21.1328 20.7408L32.6956 24.3179L36.5353 19.4658L21.1328 20.7408Z" fill="#B6D2CB"/>
<path fill-rule="evenodd" clip-rule="evenodd" d="M21.1328 20.7418L42.2335 12.3389L42.3881 18.676L38.8548 16.5403L36.5353 19.4667L21.1328 20.7418Z" fill="#C7DCD6"/>
<path fill-rule="evenodd" clip-rule="evenodd" d="M42.2344 12.3389L64.1899 10.918L65.675 22.8892L43.1593 19.1457L42.3861 18.6761L42.2344 12.3389Z" fill="#D4E5E0"/>
<path fill-rule="evenodd" clip-rule="evenodd" d="M21.1328 20.7412L27.5634 6.8502L33.8568 6.28125L21.1328 20.7412Z" fill="#BCD5CD"/>
<path fill-rule="evenodd" clip-rule="evenodd" d="M27.5633 6.84836L21.1328 9.85648L26.4663 6.27942L36.0596 2.04004L27.5633 6.84836Z" fill="#D4E5E0"/>
<path fill-rule="evenodd" clip-rule="evenodd" d="M33.8594 6.2805L38.9769 7.96399L57.4545 3.31906L47.7883 0.407227L33.8594 6.2805Z" fill="#DEEAE6"/>
<path fill-rule="evenodd" clip-rule="evenodd" d="M26.7289 39.126L19.2422 41.9036L22.7171 65.1546L37.2179 60.7314L26.7289 39.126Z" fill="#6B9A89"/>
<path fill-rule="evenodd" clip-rule="evenodd" d="M19.2397 41.9035L12.6691 41.7168L10.8047 63.859L22.7146 65.1545L19.2397 41.9035Z" fill="#46826E"/>
<path fill-rule="evenodd" clip-rule="evenodd" d="M10.8027 63.861L2.96875 57.2263L8.02215 38.6523L12.6671 41.7159L10.8027 63.861Z" fill="#246D57"/>
<path fill-rule="evenodd" clip-rule="evenodd" d="M6.25548 33.5029L0 47.7179L2.97019 57.2236L8.02359 38.6526L6.25548 33.5029Z" fill="#1B5A47"/>
<path fill-rule="evenodd" clip-rule="evenodd" d="M6.82443 27.3115L1.47051 36.3679L0 47.7176L6.25548 33.5028L6.82443 27.3115Z" fill="#2F4F41"/>
<path fill-rule="evenodd" clip-rule="evenodd" d="M6.82658 27.311L1.47266 36.3675L6.63693 25.1374L10.1119 20.7405L14.9436 14.8643L21.1349 20.7405" fill="#2C4B3E"/>
<path fill-rule="evenodd" clip-rule="evenodd" d="M0 47.7168L2.21159 60.1314L6.00165 72.2019L2.97019 57.2254L0 47.7168Z" fill="#2E4F42"/>
<path fill-rule="evenodd" clip-rule="evenodd" d="M15.6985 81.2983L10.8027 63.8594L2.96875 57.2246L6.00021 72.201L15.6985 81.2983Z" fill="#1B5D49"/>
<path fill-rule="evenodd" clip-rule="evenodd" d="M10.8047 63.8613L15.7005 81.3002L30.8315 84.2675L22.7146 65.1539L10.8047 63.8613Z" fill="#246D57"/>
<path fill-rule="evenodd" clip-rule="evenodd" d="M30.8371 84.268L41.2618 95.0371L25.4656 91.4047L15.7031 81.2979L30.8371 84.268Z" fill="#1B5D49"/>
<path fill-rule="evenodd" clip-rule="evenodd" d="M6.00391 72.2012L14.7219 81.456L25.4618 91.4053L15.7023 81.2985L6.00391 72.2012Z" fill="#2F4F41"/>
<path fill-rule="evenodd" clip-rule="evenodd" d="M22.7148 65.1537L37.2157 60.7305L49.4407 79.5581L30.8347 84.2672L22.7148 65.1537Z" fill="#46826E"/>
<path fill-rule="evenodd" clip-rule="evenodd" d="M30.832 84.2667L41.2569 95.0359L59.9883 90.7732L49.4381 79.5605L30.832 84.2667Z" fill="#246D57"/>
<path fill-rule="evenodd" clip-rule="evenodd" d="M41.2578 95.0362L51.1283 96.5913L66.767 93.2301L59.9893 90.7734L41.2578 95.0362Z" fill="#1B5C49"/>
<path fill-rule="evenodd" clip-rule="evenodd" d="M59.9883 90.775L77.9231 78.3516L82.1159 82.8768L66.7631 93.2317L59.9883 90.775Z" fill="#246D57"/>
<path fill-rule="evenodd" clip-rule="evenodd" d="M77.9258 78.3509L90.4572 60.6523L92.4003 68.1391L82.1184 82.8763L77.9258 78.3509Z" fill="#46826E"/>
<path fill-rule="evenodd" clip-rule="evenodd" d="M49.4375 79.5593L67.0486 67.1445L77.9227 78.3513L59.9878 90.7748L49.4375 79.5593Z" fill="#46826E"/>
<path fill-rule="evenodd" clip-rule="evenodd" d="M77.9239 78.3515L90.4553 60.653L79.6366 49.6445L67.0469 67.1447L77.9239 78.3515Z" fill="#6B9A89"/>
</g>
<defs>
<clipPath id="clip0_5218_1336">
<rect width="487" height="96.185" fill="white" transform="translate(0 0.407227)"/>
</clipPath>
</defs>
</svg>
