<svg width="517" height="104" viewBox="0 0 517 104" fill="none" xmlns="http://www.w3.org/2000/svg">
<path d="M459.518 61.379C458.462 61.379 457.578 61.0094 456.866 60.2704C456.179 59.5312 455.836 58.6071 455.836 57.4984C455.836 56.3896 456.179 55.4657 456.866 54.7265C457.578 53.9872 458.462 53.6176 459.518 53.6176C460.574 53.6176 461.458 53.9872 462.172 54.7265C462.883 55.4657 463.24 56.3896 463.24 57.4984C463.24 58.6071 462.883 59.5312 462.172 60.2704C461.458 61.0094 460.574 61.379 459.518 61.379ZM472.498 60.8247V36.4949C472.498 35.6028 472.715 34.7918 473.147 34.0619C473.58 33.305 474.16 32.7102 474.89 32.2777C475.649 31.8452 476.472 31.6289 477.364 31.6289H496.828C497.72 31.6289 498.531 31.8452 499.261 32.2777C500.019 32.7102 500.613 33.305 501.045 34.0619C501.479 34.7918 501.694 35.6028 501.694 36.4949V60.8247H498.409V50.1601H475.782V60.8247H472.498ZM475.782 46.8756H498.409V36.4949C498.409 36.0624 498.247 35.6975 497.923 35.4C497.627 35.0756 497.262 34.9134 496.828 34.9134H477.364C476.932 34.9134 476.553 35.0756 476.228 35.4C475.932 35.6975 475.782 36.0624 475.782 36.4949V46.8756ZM510.775 60.8247V31.6289H514.1V60.8247H510.775Z" fill="#CDE9FF"/>
<path d="M106.56 23.2461C107.946 23.2461 109.293 23.4837 110.6 23.959C111.946 24.4342 113.233 25.1272 114.461 26.0379C114.659 26.2358 114.876 26.4339 115.114 26.632C115.312 26.4339 115.53 26.2358 115.767 26.0379C116.995 25.1272 118.262 24.4342 119.569 23.959C120.915 23.4837 122.262 23.2461 123.608 23.2461C124.994 23.2461 126.34 23.4837 127.647 23.959C128.994 24.4342 130.261 25.1469 131.449 26.0973C132.676 27.0081 133.745 28.2357 134.656 29.7801C135.607 31.3244 136.082 33.1658 136.082 35.3042V56.7473C135.844 59.1231 134.538 60.4101 132.162 60.6082C131.053 60.6082 130.083 60.2518 129.251 59.5389C128.459 58.7865 128.063 57.8559 128.063 56.7473V35.7794C128.063 34.8289 127.885 34.037 127.528 33.4034C127.172 32.7303 126.776 32.2155 126.34 31.8591C125.905 31.4631 125.449 31.1857 124.974 31.0274C124.499 30.8295 124.024 30.7304 123.549 30.7304C123.074 30.7304 122.598 30.8295 122.123 31.0274C121.688 31.1857 121.252 31.4631 120.816 31.8591C120.381 32.2155 119.985 32.7303 119.628 33.4034C119.272 34.037 119.074 34.8289 119.034 35.7794V56.7473C118.797 59.1231 117.49 60.4101 115.114 60.6082C114.005 60.6082 113.035 60.2518 112.203 59.5389C111.411 58.7865 111.015 57.8559 111.015 56.7473V35.7794C111.015 34.8289 110.837 34.037 110.481 33.4034C110.125 32.7303 109.728 32.2155 109.293 31.8591C108.857 31.4631 108.402 31.1857 107.927 31.0274C107.452 30.8295 106.976 30.7304 106.501 30.7304C106.026 30.7304 105.551 30.8295 105.076 31.0274C104.64 31.1857 104.204 31.4631 103.769 31.8591C103.333 32.2155 102.937 32.7303 102.581 33.4034C102.224 34.037 102.026 34.8289 101.987 35.7794V56.7473C101.789 59.1231 100.502 60.4101 98.1259 60.6082C97.0171 60.6082 96.0469 60.2518 95.2153 59.5389C94.4233 58.7865 94.0273 57.8559 94.0273 56.7473V35.3042C94.1066 33.1658 94.6015 31.3244 95.5123 29.7801C96.423 28.2357 97.4923 27.0081 98.72 26.0973C99.9474 25.1469 101.215 24.4342 102.522 23.959C103.868 23.4837 105.214 23.2461 106.56 23.2461ZM168.597 23.2461C170.656 23.2461 172.676 23.4837 174.656 23.959C176.675 24.4342 178.596 25.1469 180.417 26.0973C182.239 27.0081 183.843 28.2357 185.229 29.7801C186.654 31.3244 187.426 33.1658 187.545 35.3042V37.799V56.7473C187.308 59.1231 186.001 60.4101 183.625 60.6082C182.516 60.6082 181.546 60.2518 180.714 59.5389C179.922 58.7865 179.526 57.8559 179.526 56.7473V37.1455C179.447 35.9179 178.972 34.9082 178.101 34.1163C177.269 33.2846 176.319 32.6311 175.25 32.1561C174.22 31.6809 173.131 31.3244 171.983 31.0868C170.874 30.8492 169.745 30.7304 168.597 30.7304C167.449 30.7304 166.3 30.8492 165.152 31.0868C164.043 31.3244 162.954 31.6809 161.885 32.1561C160.855 32.6311 159.905 33.2846 159.034 34.1163C158.202 34.9082 157.747 35.9179 157.668 37.1455V56.7473C157.469 59.1231 156.182 60.4101 153.807 60.6082C152.698 60.6082 151.728 60.2518 150.896 59.5389C150.104 58.7865 149.708 57.8559 149.708 56.7473V37.799V35.3042C149.827 33.1658 150.579 31.3244 151.965 29.7801C153.351 28.2357 154.955 27.0081 156.776 26.0973C158.598 25.1469 160.499 24.4342 162.479 23.959C164.498 23.4837 166.538 23.2461 168.597 23.2461ZM199.865 55.9156C199.865 54.8068 200.241 53.8764 200.993 53.124C201.785 52.3318 202.736 51.9359 203.844 51.9359H215.249V32.8093H203.844C202.736 32.8093 201.805 32.4134 201.053 31.6214C200.261 30.869 199.865 29.9384 199.865 28.8296C199.865 27.721 200.241 26.7903 200.993 26.0379C201.785 25.246 202.736 24.8498 203.844 24.8498H234.613C235.722 24.8498 236.671 25.2261 237.464 25.9785C238.216 26.7705 238.593 27.721 238.593 28.8296C238.593 29.9384 238.196 30.8889 237.405 31.6808C236.653 32.4332 235.722 32.8093 234.613 32.8093H223.268V51.9359H234.613C235.722 51.9359 236.671 52.3122 237.464 53.0646C238.216 53.8565 238.593 54.8068 238.593 55.9156C238.593 57.0244 238.196 57.9747 237.405 58.7669C236.653 59.5193 235.722 59.8954 234.613 59.8954H203.844C202.736 59.8954 201.805 59.4994 201.053 58.7075C200.261 57.9551 199.865 57.0244 199.865 55.9156ZM316.512 32.8093C315.007 32.8886 313.74 33.4628 312.71 34.5319C311.721 35.6012 311.009 36.8288 310.573 38.2146C310.137 39.5611 309.918 40.9471 309.918 42.3726C309.918 43.7983 310.117 45.204 310.512 46.59C310.948 47.976 311.682 49.2036 312.71 50.2727C313.74 51.3023 315.007 51.8568 316.512 51.9359H336.113C338.609 52.1735 339.976 53.5396 340.213 56.0344C340.172 57.1433 339.757 58.0739 338.966 58.8263C338.173 59.5389 337.222 59.8954 336.113 59.8954H317.167H314.434C311.662 59.737 309.385 58.6876 307.603 56.7473C305.821 54.7672 304.533 52.5299 303.743 50.0351C302.988 47.5405 302.613 44.9862 302.613 42.3726C302.613 40.4323 302.83 38.5117 303.266 36.6109C303.702 34.7101 304.375 32.9085 305.285 31.2056C306.236 29.4632 307.483 27.9783 309.028 26.7508C310.612 25.5232 312.414 24.8896 314.434 24.8498H315.563H336.113C338.609 25.0875 339.976 26.4538 340.213 28.9484C340.213 30.0572 339.797 30.9879 338.966 31.7403C338.173 32.4529 337.222 32.8093 336.113 32.8093H316.512ZM383.658 24.8498C385.677 24.8896 387.478 25.5232 389.063 26.7508C390.647 27.9783 391.914 29.4435 392.865 31.1462C393.854 32.8491 394.586 34.6507 395.063 36.5515C395.537 38.4523 395.774 40.3928 395.774 42.3726C395.774 44.9862 395.359 47.5601 394.527 50.0945C393.735 52.5893 392.409 54.8068 390.547 56.7473C388.727 58.6876 386.43 59.737 383.658 59.8954H362.927C360.155 59.7766 357.838 58.747 355.977 56.8067C354.116 54.8662 352.79 52.6289 351.997 50.0945C351.245 47.5601 350.87 44.9862 350.87 42.3726C350.87 39.7592 351.265 37.2049 352.058 34.7101C352.848 32.1758 354.156 29.9384 355.977 27.9981C357.838 26.0181 360.155 24.9686 362.927 24.8498H364.056H382.529H383.658ZM381.637 51.9359C383.143 51.8568 384.39 51.3023 385.379 50.2727C386.409 49.2036 387.141 47.976 387.577 46.59C388.013 45.204 388.23 43.7983 388.23 42.3726C388.23 40.9471 387.993 39.5611 387.518 38.2146C387.082 36.8288 386.369 35.6012 385.379 34.5319C384.39 33.4628 383.143 32.8886 381.637 32.8093H364.768C363.264 32.8886 362.017 33.4628 361.025 34.5319C360.036 35.6012 359.304 36.8288 358.827 38.2146C358.394 39.5611 358.175 40.9471 358.175 42.3726C358.175 43.7983 358.394 45.204 358.827 46.59C359.263 47.976 359.977 49.2036 360.966 50.2727C361.996 51.3023 363.264 51.8568 364.768 51.9359H381.637ZM416.351 56.7473C416.112 59.1231 414.806 60.4101 412.43 60.6082C411.321 60.6082 410.352 60.2518 409.519 59.5389C408.728 58.7865 408.331 57.8559 408.331 56.7473V28.7108C408.371 27.6022 408.787 26.6914 409.579 25.9785C410.37 25.2261 411.321 24.8498 412.43 24.8498H437.378C440.862 24.9686 443.495 25.7409 445.277 27.1664C447.06 28.5524 448.347 30.1365 449.138 31.9185C449.931 33.7004 450.326 35.5023 450.326 37.3238C450.326 39.2245 449.931 41.0659 449.138 42.8478C448.386 44.6298 447.1 46.2335 445.277 47.6591C443.495 49.0451 441.218 49.7184 438.447 49.6787H423.478C422.369 49.6787 421.438 49.2827 420.686 48.4907C419.895 47.7383 419.498 46.8077 419.498 45.6991C419.498 44.5903 419.875 43.6597 420.627 42.9073C421.42 42.1153 422.369 41.7193 423.478 41.7193H438.804C439.556 41.7193 440.17 41.4817 440.645 41.0065C441.16 40.4917 441.535 39.9175 441.774 39.2839C442.011 38.6108 442.129 37.9375 442.129 37.2643C442.129 36.6308 442.011 35.9972 441.774 35.3636C441.535 34.6905 441.16 34.1163 440.645 33.641C440.17 33.1262 439.556 32.8491 438.804 32.8093H417.894C416.864 32.8491 416.351 33.3639 416.351 34.3539V56.7473Z" fill="white"/>
<path d="M289.223 28.8284C289.223 29.9372 288.828 30.8678 288.035 31.6202C287.283 32.4122 286.352 32.8081 285.245 32.8081H261.485C260.733 32.8479 260.098 33.0261 259.583 33.3428C259.109 33.62 258.752 33.9565 258.515 34.3527C258.278 34.7089 258.158 35.0852 258.158 35.4812C258.158 35.8772 258.278 36.2731 258.515 36.6691C258.752 37.0255 259.109 37.3621 259.583 37.679C260.098 37.9561 260.733 38.1145 261.485 38.1542H278.354C281.125 38.2333 283.402 38.8868 285.184 40.1142C287.007 41.3023 288.293 42.6883 289.045 44.2722C289.838 45.8165 290.233 47.4006 290.233 49.0242C290.233 50.6081 289.838 52.1921 289.045 53.776C288.254 55.3204 286.967 56.7063 285.184 57.934C283.402 59.1219 281.125 59.716 278.354 59.716H277.997C277.76 59.7555 277.523 59.7754 277.285 59.7754H254.833C253.724 59.7754 252.773 59.3993 251.98 58.6469C251.228 57.8547 250.853 56.9044 250.853 55.7956C250.853 54.6868 251.248 53.7564 252.041 53.004C252.793 52.2118 253.724 51.8158 254.833 51.8158H278.711C279.463 51.8556 280.077 51.7169 280.552 51.4002C281.067 51.0833 281.442 50.7269 281.681 50.3309C281.918 49.8954 282.036 49.4597 282.036 49.0242C282.036 48.747 281.918 48.3707 281.681 47.8955C281.442 47.3807 281.067 46.9651 280.552 46.6482C280.077 46.3315 279.463 46.1533 278.711 46.1135H261.842C259.068 46.0345 256.773 45.4009 254.951 44.2128C253.168 43.0249 251.881 41.6784 251.09 40.1736C250.338 38.6293 249.961 37.0651 249.961 35.4812C249.961 33.9368 250.356 32.4122 251.149 30.9074C251.942 29.363 253.227 27.9969 255.009 26.8088C256.792 25.6209 259.068 24.9873 261.842 24.908H262.197C262.436 24.8685 262.673 24.8486 262.911 24.8486H285.245C286.352 24.8486 287.283 25.2448 288.035 26.0367C288.828 26.7891 289.223 27.7198 289.223 28.8284Z" fill="#DB6A24"/>
<g filter="url(#filter0_d_5218_1424)">
<path d="M70.2755 14.7376C70.9045 15.249 71.5155 15.7717 72.1181 16.3113C72.6025 16.7428 73.101 17.1458 73.6105 17.5495C80.3211 23.1802 83.8739 32.1865 84.6531 40.4994C85.2862 49.7317 82.882 59.0793 76.6787 66.318C76.5717 66.4443 76.4648 66.5708 76.3546 66.701C69.8755 74.3258 60.3715 79.3762 50.1172 80.406C48.7006 80.4905 47.2824 80.4946 45.8634 80.4911C45.6699 80.4909 45.4767 80.4907 45.2776 80.4905C42.1437 80.4798 39.1623 80.2922 36.1251 79.4971C35.924 79.4458 35.7229 79.3945 35.5157 79.3418C25.8168 76.7847 17.4592 70.3162 12.4468 62.0167C7.83611 54.1081 6.38019 44.501 8.37801 35.6423C8.41745 35.4643 8.45688 35.2863 8.49751 35.103C9.79409 29.4506 12.4843 24.1146 16.4413 19.7366C16.553 19.6129 16.6648 19.4893 16.7799 19.3619C18.0752 17.9434 19.4196 16.6114 20.9472 15.4193C21.1185 15.2808 21.2896 15.1422 21.466 14.9995C35.4238 3.9356 56.1277 3.99625 70.2755 14.7376ZM25.9275 24.0538C25.7395 24.2196 25.5514 24.3855 25.3578 24.5562C20.4865 28.9692 17.5792 35.6938 17.3417 42.066C17.1947 50.1295 20.1514 57.2786 25.9275 63.1367C26.0929 63.3098 26.2582 63.483 26.4287 63.6614C31.0347 68.3165 37.8957 70.9009 44.5127 71.1615C48.9739 71.2683 53.1384 70.8334 57.2319 69.0446C57.4989 68.9304 57.7657 68.8161 58.0407 68.6985C64.9737 65.5648 70.4284 59.8087 73.2241 52.9915C75.7824 46.0526 75.443 38.346 72.1635 31.6757C68.6586 24.8984 62.447 19.9304 55.0086 17.4927C44.5137 14.237 33.8205 16.7544 25.9275 24.0538Z" fill="#DB6A24"/>
</g>
<g filter="url(#filter1_d_5218_1424)">
<path d="M77.1295 69.9492C77.6185 70.0283 77.8383 70.1702 78.1725 70.5157C78.5273 70.8701 78.8879 71.2012 79.2784 71.5197C79.6825 71.8518 80.0643 72.1955 80.4384 72.5582C80.8096 72.9181 81.1881 73.2589 81.5894 73.5879C81.9906 73.9172 82.3691 74.258 82.7404 74.6179C83.1086 74.975 83.4839 75.3131 83.8823 75.6392C84.4305 76.0887 84.9343 76.5724 85.4418 77.0633C85.823 77.4219 86.2236 77.7532 86.6297 78.0855C87.0297 78.4249 87.4004 78.7897 87.7756 79.1536C88.0546 79.4156 88.3421 79.6611 88.6389 79.9044C89.144 80.3188 89.6105 80.7604 90.0777 81.2133C90.3564 81.4753 90.6439 81.7208 90.9408 81.9641C91.4458 82.3783 91.9119 82.8197 92.3789 83.2725C92.6609 83.5374 92.9518 83.786 93.2517 84.0326C94.7522 85.2768 96.1139 86.7887 96.2893 88.7748C96.331 90.231 96.3513 91.5341 95.6885 92.8807C95.638 92.988 95.5876 93.0954 95.5356 93.2061C94.6936 94.8162 93.218 96.1026 91.4803 96.7855C89.4362 97.3694 87.1035 97.1772 85.2236 96.2583C83.757 95.4483 82.626 94.2189 81.5377 92.9987C81.1883 92.6208 80.81 92.2729 80.4339 91.9195C80.071 91.5675 79.7369 91.1953 79.3999 90.821C79.1329 90.5349 78.8541 90.2659 78.5682 89.997C78.1005 89.5577 77.6694 89.0986 77.2418 88.6238C76.9748 88.3377 76.696 88.0687 76.4102 87.8C76.0361 87.4485 75.6817 87.0904 75.34 86.7101C74.9704 86.2995 74.584 85.9145 74.1801 85.5343C73.6868 85.0698 73.2276 84.5895 72.7769 84.0877C72.4215 83.7059 72.0391 83.3523 71.6579 82.9941C71.295 82.6421 70.9611 82.2699 70.6239 81.8956C70.2675 81.5136 69.8851 81.159 69.5033 80.8001C69.1234 80.4319 68.7698 80.0447 68.4176 79.6524C68.2595 79.4786 68.0924 79.312 67.9219 79.1491C67.9219 79.0133 67.9219 78.8773 67.9219 78.7374C68.212 78.5354 68.4948 78.3615 68.803 78.1881C69.5737 77.7354 70.3044 77.2553 71.015 76.7204C71.0959 76.6602 71.1768 76.6 71.2601 76.5379C71.6739 76.2231 72.0539 75.8964 72.4223 75.5335C72.8134 75.1672 72.8134 75.1672 73.1011 75.1672C73.1382 75.0863 73.1753 75.0054 73.2136 74.922C73.4034 74.5926 73.6033 74.3998 73.8924 74.1459C75.2095 72.916 76.2027 71.4589 77.1295 69.9492ZM85.8295 87.5565C85.1604 88.3258 84.9998 89.1528 85.0422 90.1343C85.264 91.179 85.7186 91.9744 86.6246 92.606C87.5772 93.1934 88.5319 93.2903 89.646 93.1552C90.7483 92.9055 91.4602 92.2455 92.0918 91.3702C92.5727 90.5148 92.6069 89.698 92.3795 88.7613C92.0678 87.7903 91.3594 87.1472 90.5091 86.5643C88.8133 85.7387 87.0413 86.3078 85.8295 87.5565Z" fill="#DB6A24"/>
</g>
<g filter="url(#filter2_d_5218_1424)">
<path d="M89.4967 88.3323C89.8923 88.6004 89.8923 88.6004 90.1561 89.0241C90.2479 89.505 90.2487 89.9266 90.1561 90.4075C89.8246 90.9239 89.6109 91.0644 89.0434 91.2375C88.4921 91.2375 88.2324 91.155 87.7823 90.8225C87.4654 90.3505 87.3867 90.078 87.3867 89.4996C87.5432 88.9355 87.7511 88.7038 88.1781 88.3323C88.6127 88.1043 89.044 88.2044 89.4967 88.3323Z" fill="#DB6A24"/>
</g>
<defs>
<filter id="filter0_d_5218_1424" x="5.67917" y="6.69141" width="79.0708" height="76.6393" filterUnits="userSpaceOnUse" color-interpolation-filters="sRGB">
<feFlood flood-opacity="0" result="BackgroundImageFix"/>
<feColorMatrix in="SourceAlpha" type="matrix" values="0 0 0 0 0 0 0 0 0 0 0 0 0 0 0 0 0 0 127 0" result="hardAlpha"/>
<feOffset dx="-1.01374" dy="2.02749"/>
<feGaussianBlur stdDeviation="0.405498"/>
<feComposite in2="hardAlpha" operator="out"/>
<feColorMatrix type="matrix" values="0 0 0 0 0 0 0 0 0 0 0 0 0 0 0 0 0 0 0.25 0"/>
<feBlend mode="normal" in2="BackgroundImageFix" result="effect1_dropShadow_5218_1424"/>
<feBlend mode="normal" in="SourceGraphic" in2="effect1_dropShadow_5218_1424" result="shape"/>
</filter>
<filter id="filter1_d_5218_1424" x="66.0971" y="69.9492" width="30.2115" height="30.0065" filterUnits="userSpaceOnUse" color-interpolation-filters="sRGB">
<feFlood flood-opacity="0" result="BackgroundImageFix"/>
<feColorMatrix in="SourceAlpha" type="matrix" values="0 0 0 0 0 0 0 0 0 0 0 0 0 0 0 0 0 0 127 0" result="hardAlpha"/>
<feOffset dx="-1.01374" dy="2.02749"/>
<feGaussianBlur stdDeviation="0.405498"/>
<feComposite in2="hardAlpha" operator="out"/>
<feColorMatrix type="matrix" values="0 0 0 0 0 0 0 0 0 0 0 0 0 0 0 0 0 0 0.25 0"/>
<feBlend mode="normal" in2="BackgroundImageFix" result="effect1_dropShadow_5218_1424"/>
<feBlend mode="normal" in="SourceGraphic" in2="effect1_dropShadow_5218_1424" result="shape"/>
</filter>
<filter id="filter2_d_5218_1424" x="85.562" y="88.1963" width="4.66458" height="5.8795" filterUnits="userSpaceOnUse" color-interpolation-filters="sRGB">
<feFlood flood-opacity="0" result="BackgroundImageFix"/>
<feColorMatrix in="SourceAlpha" type="matrix" values="0 0 0 0 0 0 0 0 0 0 0 0 0 0 0 0 0 0 127 0" result="hardAlpha"/>
<feOffset dx="-1.01374" dy="2.02749"/>
<feGaussianBlur stdDeviation="0.405498"/>
<feComposite in2="hardAlpha" operator="out"/>
<feColorMatrix type="matrix" values="0 0 0 0 0 0 0 0 0 0 0 0 0 0 0 0 0 0 0.25 0"/>
<feBlend mode="normal" in2="BackgroundImageFix" result="effect1_dropShadow_5218_1424"/>
<feBlend mode="normal" in="SourceGraphic" in2="effect1_dropShadow_5218_1424" result="shape"/>
</filter>
</defs>
</svg>
