<svg width="512" height="58" viewBox="0 0 512 58" fill="none" xmlns="http://www.w3.org/2000/svg">
<g clip-path="url(#clip0_5218_1395)">
<path d="M29.2677 50.728C34.5345 59.8294 43.1508 59.8294 48.3945 50.728L51.3282 45.646L24.9942 0.0234375H0L29.2677 50.728Z" fill="#FFDD00"/>
<path d="M84.7526 31.2312C82.8353 34.5345 78.3077 34.5345 76.3904 31.2312L58.3493 0.0230961H33.332L62.6459 50.7276C67.9127 59.829 76.5059 59.829 81.7727 50.7276L101.385 16.7475L91.7288 0H66.7346L84.7526 31.2312Z" fill="#FFDD00"/>
<path d="M128.136 50.93H136.66L136.73 50.6528C141.996 31.1333 144.145 22.7942 145.023 17.6198C145.877 22.7711 147.933 31.2257 152.969 50.6528L153.038 50.93H161.747L173.875 6.30078H165.928L165.859 6.57798C160.592 26.8367 158.582 35.0372 157.658 40.2809C156.596 34.6676 154.309 25.4045 149.389 6.57798L149.319 6.30078H141.026L140.957 6.57798C135.829 26.6519 133.68 35.2451 132.756 40.8122C131.74 35.3837 129.499 26.3747 124.371 6.57798L124.302 6.30078H116.055L128.044 50.6759L128.136 50.93Z" fill="white"/>
<path d="M187.364 51.5539C193.809 51.5539 199.907 48.0427 202.356 42.799L196.465 39.796H196.35L196.234 40.0039C195.518 41.4823 192.908 44.9242 187.433 44.9242C182.467 44.9242 178.678 41.7595 178.101 37.1626H203.441V36.8161C203.603 30.556 201.894 25.4278 198.521 21.9859C195.61 18.9829 191.568 17.4121 186.879 17.4121C182.189 17.4121 178.008 19.1677 174.982 22.3324C171.979 25.474 170.316 29.8168 170.316 34.5292C170.316 44.5546 177.338 51.5539 187.364 51.5539ZM186.879 23.9032C191.568 23.9032 195.148 26.9062 195.518 31.0873H178.101C178.632 26.9062 182.259 23.9032 186.879 23.9032Z" fill="white"/>
<path d="M219.471 51.5477C227.764 51.5477 232.915 47.69 232.915 41.4761C232.915 34.1072 226.216 32.3747 220.834 30.9656C217.115 29.9954 213.904 29.1638 213.904 26.8076C213.904 24.9134 215.914 23.5736 218.778 23.5736C221.92 23.5736 224.091 25.2368 224.461 27.8933L224.692 29.2331H224.83L231.437 27.9857C231.437 21.7949 225.962 17.4521 218.847 17.4521C211.733 17.4521 206.42 21.4946 206.42 27.2696C206.42 34.2689 212.911 36.0014 218.131 37.3874C221.92 38.4038 225.177 39.2816 225.177 41.7302C225.177 43.8785 223.075 45.1952 219.702 45.1952C215.636 45.1952 212.911 43.301 212.564 40.2518L212.495 39.7436L205.496 41.0603C205.542 47.921 213.119 51.5477 219.471 51.5477Z" fill="white"/>
<path d="M238.832 44.8498C238.832 48.5458 241.165 51.5488 245.046 51.5488C249.851 51.5488 251.26 50.9251 251.26 50.9251V44.7112C251.26 44.7112 249.827 44.9422 248.072 44.9422C246.94 44.9422 246.131 44.2492 246.131 43.2328V24.3832H251.213L251.144 18.1H246.155V8.76758L238.855 10.5925V18.1H235.043V24.3832H238.855V44.8498H238.832Z" fill="white"/>
<path d="M296.074 22.2632V18.1052H289.652V50.9303H297.367L297.298 30.8564C297.39 28.8467 298.083 27.299 299.308 26.2595C300.925 24.8966 303.466 24.4346 306.815 24.8966L307.208 24.9428L307.277 18.1052L306.954 18.059C302.357 17.4122 298.176 18.8213 296.074 22.2632Z" fill="white"/>
<path d="M328.274 17.4355C323.631 17.4355 319.288 19.2835 317.117 22.7947V18.1054H310.441V50.9305H318.226V33.3052C318.226 27.6457 321.182 24.2731 326.149 24.2731C329.545 24.2731 333.587 25.7515 333.587 32.8201V50.9305H341.372V31.7575C341.372 21.2008 334.58 17.4355 328.274 17.4355Z" fill="white"/>
<path d="M383.207 32.45C383.207 40.0268 379.604 44.2079 373.09 44.2079C366.576 44.2079 363.042 40.0268 363.042 32.45V6.30078H355.188V32.2652C355.188 44.3465 361.887 51.5537 373.09 51.5537C384.294 51.5537 390.992 44.3465 390.992 32.2652V6.30078H383.207V32.45Z" fill="white"/>
<path d="M413.466 17.4355C408.823 17.4355 404.457 19.2835 402.308 22.7947V18.1054H395.609V50.9305H403.394V33.3052C403.394 27.6457 406.351 24.2731 411.317 24.2731C414.713 24.2731 418.756 25.7515 418.756 32.8201V50.9305H426.54V31.7575C426.563 21.2008 419.795 17.4355 413.466 17.4355Z" fill="white"/>
<path d="M439.106 18.0977H431.391V50.9228H439.106V18.0977Z" fill="white"/>
<path d="M435.274 6.00098C432.756 6.00098 430.77 7.94138 430.77 10.4361C430.77 12.9309 432.779 14.8021 435.274 14.8021C437.769 14.8021 439.709 12.8385 439.709 10.4361C439.709 7.98758 437.723 6.00098 435.274 6.00098Z" fill="white"/>
<path d="M460.013 17.4355C455.209 17.4355 450.82 19.168 447.632 22.2865C444.467 25.4281 442.711 29.7478 442.711 34.4833C442.711 44.3701 449.988 51.5542 460.013 51.5542C470.039 51.5542 477.361 44.3701 477.361 34.4833C477.361 29.7478 475.606 25.405 472.441 22.2865C469.253 19.1449 464.841 17.4355 460.013 17.4355ZM460.013 44.4625C454.446 44.4625 450.265 40.1659 450.265 34.4833C450.265 28.8007 454.446 24.5041 460.013 24.5041C465.58 24.5041 469.877 28.8007 469.877 34.4833C469.877 40.1659 465.627 44.4625 460.013 44.4625Z" fill="white"/>
<path d="M498.797 17.4355C494.154 17.4355 489.811 19.2835 487.64 22.7947V18.1054H480.941V50.9305H488.726V33.3052C488.726 27.6457 491.682 24.2731 496.649 24.2731C500.045 24.2731 504.087 25.7515 504.087 32.8201V50.9305H511.872V31.7575C511.895 21.2008 505.127 17.4355 498.797 17.4355Z" fill="white"/>
<path d="M269.762 17.4355C265.119 17.4355 260.892 19.1911 257.865 22.3558C254.862 25.4974 253.199 29.8402 253.199 34.5526C253.199 44.5549 260.199 51.5542 270.247 51.5542C276.692 51.5542 282.79 48.043 285.239 42.7993L279.348 39.7963H279.233L279.117 40.0042C278.401 41.4826 275.791 44.9245 270.316 44.9245C265.35 44.9245 261.561 41.7598 260.984 37.1629H286.325V36.8164C286.486 30.5563 284.777 25.4281 281.404 21.9862C278.494 19.0063 274.451 17.4355 269.762 17.4355ZM260.961 31.0876C261.492 26.9065 265.119 23.9035 269.762 23.9035C274.405 23.9035 278.032 26.9065 278.401 31.0876H260.961Z" fill="white"/>
</g>
<defs>
<clipPath id="clip0_5218_1395">
<rect width="512" height="58" fill="white"/>
</clipPath>
</defs>
</svg>
