<svg width="18" height="17" viewBox="0 0 18 17" fill="none" xmlns="http://www.w3.org/2000/svg">
<path d="M0.5 17V11.9H5.6V17H0.5ZM6.45 17V11.9H11.55V17H6.45ZM12.4 17V11.9H17.5V17H12.4ZM0.5 11.05V5.95H5.6V11.05H0.5ZM6.45 11.05V5.95H11.55V11.05H6.45ZM12.4 11.05V5.95H17.5V11.05H12.4ZM0.5 5.1V0H5.6V5.1H0.5ZM6.45 5.1V0H11.55V5.1H6.45ZM12.4 5.1V0H17.5V5.1H12.4Z" fill="url(#paint0_linear_4936_1547)"/>
<defs>
<linearGradient id="paint0_linear_4936_1547" x1="0.5" y1="8.5" x2="17.5" y2="8.5" gradientUnits="userSpaceOnUse">
<stop stop-color="#06007B"/>
<stop offset="1" stop-color="#E100B0"/>
</linearGradient>
</defs>
</svg>
