<svg width="32" height="23" viewBox="0 0 32 23" fill="none" xmlns="http://www.w3.org/2000/svg">
<g clip-path="url(#clip0_5653_2503)">
<path d="M13.4763 15.8811L10.7579 13.1627C10.6086 13.0133 10.4333 12.9341 10.2322 12.925C10.031 12.9158 9.84667 12.9946 9.67905 13.1611C9.51144 13.3298 9.42762 13.5111 9.42762 13.7051C9.42762 13.9002 9.51144 14.0815 9.67905 14.2491L12.6246 17.2022C12.8704 17.4491 13.1574 17.5725 13.4855 17.5725C13.8137 17.5725 14.1011 17.4491 14.348 17.2022L20.492 11.0583C20.6403 10.9099 20.7195 10.7322 20.7297 10.5249C20.7399 10.3177 20.6607 10.1298 20.492 9.96111C20.3234 9.79248 20.1406 9.70867 19.9434 9.70968C19.7464 9.7107 19.5635 9.79502 19.3948 9.96264L13.4763 15.8811ZM7.61887 22.1668C5.71816 22.1668 4.10039 21.5035 2.76553 20.1767C1.42965 18.852 0.761719 17.2383 0.761719 15.3356C0.761719 13.5893 1.35855 12.0396 2.55219 10.6864C3.74585 9.33331 5.22953 8.60645 7.00324 8.50588C7.3456 6.2862 8.36655 4.45254 10.0661 3.00493C11.7657 1.55731 13.7435 0.833496 15.9998 0.833496C18.5415 0.833496 20.7008 1.72188 22.4775 3.49864C24.2543 5.2754 25.1426 7.43464 25.1426 9.97636V11.5002H26.0814C27.5401 11.5469 28.7642 12.0828 29.7537 13.1078C30.7432 14.1328 31.2379 15.3747 31.2379 16.8335C31.2379 18.3278 30.7228 19.5906 29.6928 20.6217C28.6607 21.6518 27.3979 22.1668 25.9046 22.1668H7.61887Z" fill="black"/>
</g>
<defs>
<clipPath id="clip0_5653_2503">
<rect width="32" height="21.7143" fill="white" transform="translate(0 0.642822)"/>
</clipPath>
</defs>
</svg>
