<svg width="32" height="32" viewBox="0 0 32 32" fill="none" xmlns="http://www.w3.org/2000/svg">
<g clip-path="url(#clip0_5653_2494)">
<path d="M29.3187 21.3987C29.3307 20.9787 29.3333 20.5227 29.3333 20V8C29.3333 5.79467 27.5387 4 25.3333 4H6.66667C4.46133 4 2.66667 5.79467 2.66667 8V20C2.66667 20.5133 2.66933 20.9733 2.68267 21.3987C1.92704 21.5501 1.24707 21.9582 0.758104 22.5539C0.269138 23.1496 0.00128938 23.896 0 24.6667C0 26.504 1.496 28 3.33333 28H28.6667C30.504 28 32 26.504 32 24.6667C31.9988 23.8962 31.7311 23.1499 31.2424 22.5543C30.7537 21.9586 30.074 21.5504 29.3187 21.3987ZM5.33333 8C5.33333 7.26533 5.932 6.66667 6.66667 6.66667H25.3333C26.068 6.66667 26.6667 7.26533 26.6667 8V20C26.6667 20.5173 26.66 20.968 26.648 21.3333H25.3333V9.33333C25.3333 8.6 24.7333 8 24 8H8C7.26667 8 6.66667 8.6 6.66667 9.33333V21.3333H5.36C5.34311 20.9804 5.33422 20.536 5.33333 20V8ZM24 21.3333H8V9.33333H24V21.3333ZM28.6667 25.3333H3.33333C2.972 25.3333 2.66667 25.028 2.66667 24.6667C2.66667 24.3053 2.972 24 3.33333 24H28.6667C29.028 24 29.3333 24.3053 29.3333 24.6667C29.3333 25.028 29.028 25.3333 28.6667 25.3333Z" fill="white"/>
</g>
<defs>
<clipPath id="clip0_5653_2494">
<rect width="32" height="32" fill="white"/>
</clipPath>
</defs>
</svg>
